SplineFontDB: 3.0
FontName: Rokkitt-Light
FullName: Rokkitt Light
FamilyName: Rokkitt
Weight: Light
Copyright: Copyright (c) 2011 by vernon adams. All rights reserved.
Version: 1.000
ItalicAngle: 0
UnderlinePosition: -103
UnderlineWidth: 102
Ascent: 1638
Descent: 410
sfntRevision: 0x00010041
LayerCount: 2
Layer: 0 1 "Back"  1
Layer: 1 1 "Fore"  0
NeedsXUIDChange: 1
XUID: [1021 14 500265001 15302472]
FSType: 0
OS2Version: 2
OS2_WeightWidthSlopeOnly: 0
OS2_UseTypoMetrics: 1
CreationTime: 1318440780
ModificationTime: 1318584270
PfmFamily: 17
TTFWeight: 250
TTFWidth: 5
LineGap: 0
VLineGap: 0
Panose: 2 0 5 3 5 0 0 2 0 3
OS2TypoAscent: 1789
OS2TypoAOffset: 0
OS2TypoDescent: -439
OS2TypoDOffset: 0
OS2TypoLinegap: 0
OS2WinAscent: 1789
OS2WinAOffset: 0
OS2WinDescent: 439
OS2WinDOffset: 0
HheadAscent: 1789
HheadAOffset: 0
HheadDescent: -439
HheadDOffset: 0
OS2SubXSize: 1331
OS2SubYSize: 1228
OS2SubXOff: 0
OS2SubYOff: 153
OS2SupXSize: 1331
OS2SupYSize: 1228
OS2SupXOff: 0
OS2SupYOff: 716
OS2StrikeYSize: 102
OS2StrikeYPos: 509
OS2Vendor: 'newt'
OS2CodePages: 20000001.00000000
OS2UnicodeRanges: 800000ef.4000204b.00000000.00000000
Lookup: 4 0 1 "'liga' Standard Ligatures lookup 0"  {"'liga' Standard Ligatures lookup 0 subtable"  } ['liga' ('DFLT' <'dflt' > ) ]
Lookup: 4 0 1 "'liga' Standard Ligatures in Greek lookup 1"  {"'liga' Standard Ligatures in Greek lookup 1 subtable"  } ['liga' ('grek' <'dflt' > ) ]
Lookup: 258 0 0 "'kern' Horizontal Kerning lookup 0"  {"'kern' Horizontal Kerning lookup 0 subtable"  } ['kern' ('DFLT' <'dflt' > ) ]
MarkAttachClasses: 1
DEI: 91125
ShortTable: maxp 16
  1
  0
  332
  110
  5
  60
  3
  1
  0
  0
  0
  0
  0
  0
  2
  1
EndShort
LangName: 1033 "" "" "" "vernonadams: Rokkitt Light: 2011" "" "Version 1.000" "" "Rokkitt Light is a trademark of vernon adams." "vernon adams" "vernon adams" "Copyright (c) 2011 by vernon adams. All rights reserved." "" "newtypography.co.uk" "" "http://scripts.sil.org/OFL" "" "" "" "Rokkitt Light" 

StartChar: exclam
Encoding: 33 33 21
Width: 432
Flags: W
LayerCount: 2
Fore
SplineSet
200 344 m 1,0,-1
 171 809 l 1,1,-1
 171 1171 l 1,2,-1
 260 1171 l 1,3,-1
 260 809 l 1,4,-1
 231 344 l 1,5,-1
 200 344 l 1,0,-1
164 106 m 1,6,-1
 267 106 l 1,7,-1
 267 0 l 1,8,-1
 164 0 l 1,9,-1
 164 106 l 1,6,-1
EndSplineSet
EndChar

StartChar: quotedbl
Encoding: 34 34 22
Width: 543
Flags: W
LayerCount: 2
Fore
SplineSet
383 854 m 1,0,-1
 351 854 l 1,1,-1
 325 1234 l 1,2,-1
 416 1234 l 1,3,-1
 383 854 l 1,0,-1
190 854 m 1,4,-1
 158 854 l 1,5,-1
 131 1234 l 1,6,-1
 223 1234 l 1,7,-1
 190 854 l 1,4,-1
EndSplineSet
EndChar

StartChar: numbersign
Encoding: 35 35 23
Width: 1034
Flags: W
LayerCount: 2
Fore
SplineSet
269 880 m 1,0,-1
 298 1234 l 1,1,-1
 377 1234 l 1,2,-1
 348 880 l 1,3,-1
 713 880 l 1,4,-1
 742 1234 l 1,5,-1
 821 1234 l 1,6,-1
 792 880 l 1,7,-1
 980 880 l 1,8,-1
 975 821 l 1,9,-1
 787 821 l 1,10,-1
 757 457 l 1,11,-1
 944 457 l 1,12,-1
 939 398 l 1,13,-1
 752 398 l 1,14,-1
 719 0 l 1,15,-1
 640 0 l 1,16,-1
 673 398 l 1,17,-1
 308 398 l 1,18,-1
 275 0 l 1,19,-1
 196 0 l 1,20,-1
 229 398 l 1,21,-1
 53 398 l 1,22,-1
 58 457 l 1,23,-1
 234 457 l 1,24,-1
 264 821 l 1,25,-1
 89 821 l 1,26,-1
 94 880 l 1,27,-1
 269 880 l 1,0,-1
313 457 m 1,28,-1
 678 457 l 1,29,-1
 708 821 l 1,30,-1
 343 821 l 1,31,-1
 313 457 l 1,28,-1
EndSplineSet
EndChar

StartChar: dollar
Encoding: 36 36 24
Width: 1151
Flags: W
LayerCount: 2
Fore
SplineSet
701 -23 m 1,0,-1
 701 -190 l 1,1,-1
 641 -190 l 1,2,-1
 641 -20 l 1,3,4
 464.438922434 -1.2169066419 464.438922434 -1.2169066419 303 112 c 1,5,-1
 303 0 l 1,6,-1
 224 0 l 1,7,-1
 224 416 l 1,8,-1
 303 416 l 1,9,-1
 303 196 l 1,10,11
 462.793512165 77.6344354336 462.793512165 77.6344354336 641 57 c 1,12,-1
 641 594 l 1,13,14
 422.551236749 616.065531642 422.551236749 616.065531642 329 679 c 0,15,16
 215 755.690909091 215 755.690909091 215 918.239259855 c 128,-1,17
 215 1080.78761062 215 1080.78761062 333.590361446 1167.89380531 c 128,-1,18
 452.180722892 1255 452.180722892 1255 624 1255 c 2,19,-1
 641 1255 l 1,20,-1
 641 1421 l 1,21,-1
 701 1421 l 1,22,-1
 701 1250 l 1,23,24
 833.969132517 1234.58328898 833.969132517 1234.58328898 971 1163 c 1,25,-1
 971 1234 l 1,26,-1
 1050 1234 l 1,27,-1
 1050 899 l 1,28,-1
 971 899 l 1,29,-1
 971 1080 l 1,30,31
 844.172690763 1162.437751 844.172690763 1162.437751 701 1178 c 1,32,-1
 701 663 l 1,33,34
 899.737720111 639.619091752 899.737720111 639.619091752 995.5 575.5 c 0,35,36
 1121 491.469565217 1121 491.469565217 1121 317 c 0,37,38
 1121 194.461538462 1121 194.461538462 1030.5 97 c 0,39,40
 919.071428571 -23 919.071428571 -23 704 -23 c 2,41,-1
 701 -23 l 1,0,-1
951.720822281 508.197066625 m 128,-1,43
 871.441644562 564.864721485 871.441644562 564.864721485 701 587 c 1,44,-1
 701 53 l 1,45,46
 709 52 709 52 717 52 c 2,47,-1
 764 52 l 2,48,49
 803 52 803 52 859 74.5 c 128,-1,50
 915 97 915 97 953 134.5 c 0,51,52
 1032 212.460526316 1032 212.460526316 1032 331.99496904 c 128,-1,42
 1032 451.529411765 1032 451.529411765 951.720822281 508.197066625 c 128,-1,43
399 728.5 m 0,53,54
 468.122717078 688.440243512 468.122717078 688.440243512 641 670 c 1,55,-1
 641 1182 l 1,56,-1
 637 1182 l 2,57,58
 472.555555556 1182 472.555555556 1182 389.277777778 1108.87804878 c 128,-1,59
 306 1035.75609756 306 1035.75609756 306 909.076912417 c 128,-1,60
 306 782.397727273 306 782.397727273 399 728.5 c 0,53,54
EndSplineSet
EndChar

StartChar: percent
Encoding: 37 37 25
Width: 1610
Flags: W
LayerCount: 2
Fore
SplineSet
1446 1310 m 1,0,-1
 1487 1270 l 1,1,-1
 386 -47 l 1,2,-1
 341 0 l 1,3,-1
 1446 1310 l 1,0,-1
646.467213115 1126.99275362 m 128,-1,5
 572.93442623 1192 572.93442623 1192 474 1192 c 256,6,7
 374.557377049 1192 374.557377049 1192 302.278688525 1127.16176471 c 128,-1,8
 230 1062.32352941 230 1062.32352941 230 949 c 128,-1,9
 230 835.676470588 230 835.676470588 302.278688525 770.838235294 c 128,-1,10
 374.557377049 706 374.557377049 706 474 706 c 256,11,12
 572.93442623 706 572.93442623 706 646.467213115 771.007246377 c 128,-1,13
 720 836.014492754 720 836.014492754 720 949 c 128,-1,4
 720 1061.98550725 720 1061.98550725 646.467213115 1126.99275362 c 128,-1,5
699 723.333333333 m 128,-1,15
 604 641 604 641 474 641 c 256,16,17
 345 641 345 641 250.5 722.9 c 128,-1,18
 156 804.8 156 804.8 156 949.343820225 c 128,-1,19
 156 1093.88764045 156 1093.88764045 250.335526316 1174.44382022 c 128,-1,20
 344.671052632 1255 344.671052632 1255 474 1255 c 256,21,22
 604.584415584 1255 604.584415584 1255 699.292207792 1173.97222222 c 128,-1,23
 794 1092.94444444 794 1092.94444444 794 949.305555556 c 128,-1,14
 794 805.666666667 794 805.666666667 699 723.333333333 c 128,-1,15
1487.46721311 460.992753623 m 128,-1,25
 1413.93442623 526 1413.93442623 526 1315 526 c 256,26,27
 1215.55737705 526 1215.55737705 526 1143.27868852 461.161764706 c 128,-1,28
 1071 396.323529412 1071 396.323529412 1071 283 c 128,-1,29
 1071 169.676470588 1071 169.676470588 1143.27868852 104.838235294 c 128,-1,30
 1215.55737705 40 1215.55737705 40 1315 40 c 256,31,32
 1413.93442623 40 1413.93442623 40 1487.46721311 105.007246377 c 128,-1,33
 1561 170.014492754 1561 170.014492754 1561 283 c 128,-1,24
 1561 395.985507246 1561 395.985507246 1487.46721311 460.992753623 c 128,-1,25
1540 57.3333333333 m 128,-1,35
 1445 -25 1445 -25 1315 -25 c 256,36,37
 1186 -25 1186 -25 1091.5 56.9 c 128,-1,38
 997 138.8 997 138.8 997 283.343820225 c 128,-1,39
 997 427.887640449 997 427.887640449 1091.33552632 508.443820225 c 128,-1,40
 1185.67105263 589 1185.67105263 589 1315 589 c 256,41,42
 1445.58441558 589 1445.58441558 589 1540.29220779 507.972222222 c 128,-1,43
 1635 426.944444444 1635 426.944444444 1635 283.305555556 c 128,-1,34
 1635 139.666666667 1635 139.666666667 1540 57.3333333333 c 128,-1,35
EndSplineSet
EndChar

StartChar: ampersand
Encoding: 38 38 26
Width: 1161
Flags: W
LayerCount: 2
Fore
SplineSet
1108 68 m 1,0,-1
 1108 0 l 1,1,-1
 914 0 l 1,2,-1
 812 113 l 1,3,4
 709.102244389 -3.0897755611 709.102244389 -3.0897755611 555 -18.5 c 0,5,6
 510 -23 510 -23 447 -23 c 128,-1,7
 384 -23 384 -23 312 4 c 128,-1,8
 240 31 240 31 187 78 c 0,9,10
 72 179.981132075 72 179.981132075 72 322.736942849 c 128,-1,11
 72 465.492753623 72 465.492753623 138.169014085 555.636048173 c 128,-1,12
 204.338028169 645.779342723 204.338028169 645.779342723 373 702 c 1,13,-1
 256 863 l 2,14,15
 206 930.307692308 206 930.307692308 206 994.653846154 c 0,16,17
 206 1111.63888889 206 1111.63888889 283.029850746 1183.31944444 c 128,-1,18
 360.059701493 1255 360.059701493 1255 486.836302359 1255 c 128,-1,19
 613.612903226 1255 613.612903226 1255 691.306451613 1189.01369863 c 128,-1,20
 769 1123.02739726 769 1123.02739726 769 1024 c 0,21,22
 769 853.315789474 769 853.315789474 618 750 c 0,23,24
 561 711 561 711 475 676 c 1,25,-1
 824 229 l 1,26,27
 830 238 830 238 844.5 257 c 0,28,29
 912 345.448275862 912 345.448275862 912 511 c 1,30,-1
 1108 511 l 1,31,-1
 1108 446 l 1,32,-1
 968 446 l 1,33,34
 968 334.647058824 968 334.647058824 887 206 c 0,35,36
 870 179 870 179 864 171 c 1,37,-1
 948 68 l 1,38,-1
 1108 68 l 1,0,-1
410 646 m 1,39,40
 194.262100323 583.19023174 194.262100323 583.19023174 156.5 430.5 c 0,41,42
 145 384 145 384 145 331.5 c 0,43,44
 145 219.720930233 145 219.720930233 237.3 133.860465116 c 128,-1,45
 329.6 48 329.6 48 474 48 c 0,46,47
 569.32 48 569.32 48 618.16 64.5 c 0,48,49
 709.192681797 95.2542843909 709.192681797 95.2542843909 773 170 c 1,50,-1
 410 646 l 1,39,40
440 728 m 1,51,52
 652.152965661 809.597294485 652.152965661 809.597294485 683.5 932 c 0,53,54
 694 973 694 973 694 1017.5 c 0,55,56
 694 1099.42857143 694 1099.42857143 635.5 1141.21428571 c 128,-1,57
 577 1183 577 1183 510.5 1183 c 0,58,59
 400.869565217 1183 400.869565217 1183 340 1133 c 128,-1,60
 279 1082.89285714 279 1082.89285714 279 1016.55512422 c 128,-1,61
 279 950.217391304 279 950.217391304 323 889 c 2,62,-1
 440 728 l 1,51,52
EndSplineSet
EndChar

StartChar: quotesingle
Encoding: 39 39 27
Width: 350
Flags: W
LayerCount: 2
Fore
SplineSet
190 854 m 1,0,-1
 158 854 l 1,1,-1
 131 1234 l 1,2,-1
 223 1234 l 1,3,-1
 190 854 l 1,0,-1
EndSplineSet
EndChar

StartChar: parenleft
Encoding: 40 40 28
Width: 580
Flags: W
LayerCount: 2
Fore
SplineSet
106 616 m 256,0,1
 106 850.5 106 850.5 210.433569617 1035.34741822 c 0,2,3
 314.867139234 1220.19483644 314.867139234 1220.19483644 508 1268 c 1,4,-1
 508 1200 l 1,5,6
 346.769441741 1142.55003097 346.769441741 1142.55003097 263 969.5 c 0,7,8
 191 820.763157895 191 820.763157895 191 616 c 256,9,10
 191 293.916666667 191 293.916666667 361 122.5 c 0,11,12
 421 62 421 62 508 31 c 1,13,-1
 508 -37 l 1,14,15
 314.867139234 10.805163556 314.867139234 10.805163556 210.433569617 195.652581778 c 0,16,17
 106 380.5 106 380.5 106 616 c 256,0,1
EndSplineSet
EndChar

StartChar: parenright
Encoding: 41 41 29
Width: 588
Flags: W
LayerCount: 2
Fore
SplineSet
480 616 m 256,0,1
 480 379.623762376 480 379.623762376 374.799011532 195.261634071 c 0,2,3
 269.598023064 10.8995057661 269.598023064 10.8995057661 78 -37 c 1,4,-1
 78 31 l 1,5,6
 240.343562673 89.5191911962 240.343562673 89.5191911962 322.5 261.5 c 0,7,8
 394 411.173333333 394 411.173333333 394 616 c 256,9,10
 394 939 394 939 224.5 1108.5 c 0,11,12
 164 1169 164 1169 78 1200 c 1,13,-1
 78 1268 l 1,14,15
 269.598023064 1220.10049423 269.598023064 1220.10049423 374.799011532 1035.73836593 c 0,16,17
 480 851.376237624 480 851.376237624 480 616 c 256,0,1
EndSplineSet
EndChar

StartChar: asterisk
Encoding: 42 42 30
Width: 934
Flags: W
LayerCount: 2
Fore
SplineSet
517 1229 m 1,0,-1
 485 818 l 1,1,-1
 859 992 l 1,2,-1
 890 906 l 1,3,-1
 494 785 l 1,4,-1
 763 472 l 1,5,-1
 687 415 l 1,6,-1
 467 761 l 1,7,-1
 246 415 l 1,8,-1
 170 472 l 1,9,-1
 439 785 l 1,10,-1
 43 906 l 1,11,-1
 74 992 l 1,12,-1
 449 818 l 1,13,-1
 416 1229 l 1,14,-1
 517 1229 l 1,0,-1
EndSplineSet
EndChar

StartChar: plus
Encoding: 43 43 31
Width: 811
Flags: W
LayerCount: 2
Fore
SplineSet
439 598 m 1,0,-1
 794 598 l 1,1,-1
 794 534 l 1,2,-1
 439 534 l 1,3,-1
 439 138 l 1,4,-1
 377 138 l 1,5,-1
 377 534 l 1,6,-1
 20 534 l 1,7,-1
 20 598 l 1,8,-1
 377 598 l 1,9,-1
 377 982 l 1,10,-1
 439 982 l 1,11,-1
 439 598 l 1,0,-1
EndSplineSet
EndChar

StartChar: comma
Encoding: 44 44 32
Width: 412
Flags: W
LayerCount: 2
Fore
SplineSet
274 116 m 1,0,-1
 274 -6 l 2,1,2
 274 -180 274 -180 139 -180 c 1,3,-1
 139 -136 l 1,4,5
 185.943573668 -120.978056426 185.943573668 -120.978056426 197.971786834 -95.2033139275 c 0,6,7
 210 -69.4285714286 210 -69.4285714286 210 -4 c 1,8,-1
 148 -4 l 1,9,-1
 148 116 l 1,10,-1
 274 116 l 1,0,-1
EndSplineSet
EndChar

StartChar: hyphen
Encoding: 45 45 33
Width: 786
Flags: W
LayerCount: 2
Fore
SplineSet
661 413 m 1,0,-1
 131 413 l 1,1,-1
 131 475 l 1,2,-1
 661 475 l 1,3,-1
 661 413 l 1,0,-1
EndSplineSet
EndChar

StartChar: period
Encoding: 46 46 34
Width: 403
Flags: W
LayerCount: 2
Fore
SplineSet
263 120 m 1,0,-1
 263 0 l 1,1,-1
 147 0 l 1,2,-1
 147 120 l 1,3,-1
 263 120 l 1,0,-1
EndSplineSet
EndChar

StartChar: slash
Encoding: 47 47 35
Width: 537
Flags: W
LayerCount: 2
Fore
SplineSet
415 1255 m 1,0,-1
 486 1255 l 1,1,-1
 118 -23 l 1,2,-1
 43 -23 l 1,3,-1
 415 1255 l 1,0,-1
EndSplineSet
EndChar

StartChar: zero
Encoding: 48 48 36
Width: 1124
Flags: W
LayerCount: 2
Fore
SplineSet
561 -23 m 256,0,1
 113 -23 113 -23 113 616 c 0,2,3
 113 1063.40588235 113 1063.40588235 357 1205.5 c 0,4,5
 442 1255 442 1255 561 1255 c 256,6,7
 898.463519313 1255 898.463519313 1255 983.5 866.5 c 0,8,9
 1009 750 1009 750 1009 614.5 c 0,10,11
 1009 325.75 1009 325.75 898.868421053 151.375 c 128,-1,12
 788.736842105 -23 788.736842105 -23 561 -23 c 256,0,1
561 48 m 256,13,14
 925 48 925 48 925 615 c 128,-1,15
 925 1182 925 1182 561 1182 c 128,-1,16
 197 1182 197 1182 197 615 c 128,-1,17
 197 48 197 48 561 48 c 256,13,14
EndSplineSet
EndChar

StartChar: one
Encoding: 49 49 37
Width: 598
Flags: W
LayerCount: 2
Fore
SplineSet
529 62 m 1,0,-1
 529 0 l 1,1,-1
 102 0 l 1,2,-1
 102 62 l 1,3,-1
 279 62 l 1,4,-1
 279 1147 l 1,5,-1
 123 1118 l 1,6,-1
 106 1186 l 1,7,-1
 360 1234 l 1,8,-1
 360 62 l 1,9,-1
 529 62 l 1,0,-1
EndSplineSet
EndChar

StartChar: two
Encoding: 50 50 38
Width: 993
Flags: W
LayerCount: 2
Fore
SplineSet
216 899 m 0,0,1
 216 836 216 836 232 778 c 1,2,-1
 147 778 l 1,3,4
 135 835 135 835 135 906.5 c 128,-1,5
 135 978 135 978 163.5 1045.5 c 128,-1,6
 192 1113 192 1113 242.5 1159.5 c 0,7,8
 346.215053763 1255 346.215053763 1255 512.471163245 1255 c 128,-1,9
 678.727272727 1255 678.727272727 1255 778.863636364 1163.20833333 c 128,-1,10
 879 1071.41666667 879 1071.41666667 879 910 c 0,11,12
 879 667.666666667 879 667.666666667 318 169 c 0,13,14
 255 113 255 113 219 78 c 1,15,-1
 819 78 l 1,16,-1
 819 0 l 1,17,-1
 109 0 l 1,18,-1
 109 80 l 1,19,20
 130 101 130 101 171 137.5 c 128,-1,21
 212 174 212 174 264 221.5 c 128,-1,22
 316 269 316 269 375.5 325.5 c 128,-1,23
 435 382 435 382 494 443 c 0,24,25
 793 752.13559322 793 752.13559322 793 910 c 0,26,27
 793 1042 793 1042 718.5 1112.5 c 128,-1,28
 644 1183 644 1183 512.351351351 1183 c 128,-1,29
 380.702702703 1183 380.702702703 1183 298.351351351 1105.86075949 c 128,-1,30
 216 1028.72151899 216 1028.72151899 216 899 c 0,0,1
EndSplineSet
EndChar

StartChar: three
Encoding: 51 51 39
Width: 997
Flags: W
LayerCount: 2
Fore
SplineSet
74 1057 m 1,0,1
 177.185185185 1256 177.185185185 1256 464 1256 c 0,2,3
 613.819277108 1256 613.819277108 1256 733.909638554 1167.7920354 c 128,-1,4
 854 1079.5840708 854 1079.5840708 854 930.229535398 c 128,-1,5
 854 780.875 854 780.875 723 699 c 0,6,7
 683 674 683 674 636 660 c 1,8,9
 745.970302376 634.007019438 745.970302376 634.007019438 811 548 c 128,-1,10
 876 462.032258065 876 462.032258065 876 364.016129032 c 0,11,12
 876 188.076923077 876 188.076923077 749.8125 84.5384615385 c 128,-1,13
 623.625 -19 623.625 -19 457 -19 c 0,14,15
 253 -19 253 -19 121 113 c 0,16,17
 77 157 77 157 49 216 c 1,18,-1
 113 257 l 1,19,20
 165 153 165 153 257.5 101.5 c 128,-1,21
 350 50 350 50 439.5 50 c 0,22,23
 596.833333333 50 596.833333333 50 694.416666667 133.642857143 c 128,-1,24
 792 217.285714286 792 217.285714286 792 348 c 0,25,26
 792 522.333333333 792 522.333333333 652 579 c 0,27,28
 573.624763108 610.723310171 573.624763108 610.723310171 492.812381554 613.861655085 c 128,-1,29
 412 617 412 617 363 617 c 2,30,-1
 324 617 l 1,31,-1
 324 697 l 1,32,-1
 394 697 l 2,33,34
 564.934782609 697 564.934782609 697 632.467391304 725.5 c 128,-1,35
 700 754 700 754 734.5 800.5 c 128,-1,36
 769 847 769 847 769 920 c 0,37,38
 769 1049.5 769 1049.5 673.642857143 1116.25 c 128,-1,39
 578.285714286 1183 578.285714286 1183 455 1183 c 0,40,41
 225.244444444 1183 225.244444444 1183 145 1026 c 1,42,-1
 74 1057 l 1,0,1
EndSplineSet
EndChar

StartChar: four
Encoding: 52 52 40
Width: 895
Flags: W
LayerCount: 2
Fore
SplineSet
4 442 m 1,0,-1
 489 1234 l 1,1,-1
 603 1234 l 1,2,-1
 603 442 l 1,3,-1
 860 442 l 1,4,-1
 860 379 l 1,5,-1
 603 379 l 1,6,-1
 603 62 l 1,7,-1
 764 62 l 1,8,-1
 764 0 l 1,9,-1
 361 0 l 1,10,-1
 361 62 l 1,11,-1
 522 62 l 1,12,-1
 522 379 l 1,13,-1
 15 379 l 1,14,-1
 4 442 l 1,0,-1
522 442 m 1,15,-1
 522 1156 l 1,16,-1
 97 442 l 1,17,-1
 522 442 l 1,15,-1
EndSplineSet
EndChar

StartChar: five
Encoding: 53 53 41
Width: 1022
Flags: W
LayerCount: 2
Fore
SplineSet
235 748 m 1,0,1
 343.8 796 343.8 796 542.454054054 796 c 128,-1,2
 741.108108108 796 741.108108108 796 848.554054054 679.073529412 c 128,-1,3
 956 562.147058824 956 562.147058824 956 374.75210084 c 128,-1,4
 956 187.357142857 956 187.357142857 825.318181818 84.6785714286 c 128,-1,5
 694.636363636 -18 694.636363636 -18 496.752005348 -18 c 128,-1,6
 298.867647059 -18 298.867647059 -18 160.5 79 c 0,7,8
 112 113 112 113 76 163 c 1,9,-1
 123 217 l 1,10,11
 229.956521739 53 229.956521739 53 496.32226087 53 c 128,-1,12
 762.688 53 762.688 53 844 234.5 c 0,13,14
 872 297 872 297 872 374.5 c 0,15,16
 872 526 872 526 791.6 626.5 c 128,-1,17
 711.2 727 711.2 727 571 727 c 0,18,19
 346.214285714 727 346.214285714 727 217 660 c 1,20,-1
 165 685 l 1,21,-1
 165 1234 l 1,22,-1
 812 1234 l 1,23,-1
 812 1164 l 1,24,-1
 244 1164 l 1,25,-1
 235 748 l 1,0,1
EndSplineSet
EndChar

StartChar: six
Encoding: 54 54 42
Width: 885
Flags: W
LayerCount: 2
Fore
SplineSet
665.75 577.413793103 m 128,-1,1
 573.5 658 573.5 658 445.21835443 658 c 128,-1,2
 316.936708861 658 316.936708861 658 223.46835443 575.033707865 c 128,-1,3
 130 492.06741573 130 492.06741573 130 356.767474099 c 128,-1,4
 130 221.467532468 130 221.467532468 210.975609756 135.233766234 c 128,-1,5
 291.951219512 49 291.951219512 49 441 49 c 256,6,7
 589.117647059 49 589.117647059 49 673.558823529 138.71875 c 128,-1,8
 758 228.4375 758 228.4375 758 362.632543103 c 128,-1,0
 758 496.827586207 758 496.827586207 665.75 577.413793103 c 128,-1,1
261 678 m 1,9,10
 359 726 359 726 446.5 726 c 0,11,12
 612.84375 726 612.84375 726 725.921875 622.614285714 c 128,-1,13
 839 519.228571429 839 519.228571429 839 363.886562942 c 128,-1,14
 839 208.544554455 839 208.544554455 732.7 92.7722772277 c 128,-1,15
 626.4 -23 626.4 -23 457.85625 -23 c 128,-1,16
 289.3125 -23 289.3125 -23 171.15625 81.0642201835 c 128,-1,17
 53 185.128440367 53 185.128440367 53 330.932641236 c 128,-1,18
 53 476.736842105 53 476.736842105 188 697 c 1,19,-1
 545 1361 l 1,20,-1
 612 1314 l 1,21,-1
 261 678 l 1,9,10
EndSplineSet
EndChar

StartChar: seven
Encoding: 55 55 43
Width: 897
Flags: W
LayerCount: 2
Fore
SplineSet
155 1164 m 1,0,-1
 155 916 l 1,1,-1
 78 916 l 1,2,-1
 78 1234 l 1,3,-1
 870 1234 l 1,4,-1
 870 1158 l 1,5,6
 629.33736201 896.327131709 629.33736201 896.327131709 539.668681005 639.722076493 c 0,7,8
 450 383.117021277 450 383.117021277 450 52 c 1,9,-1
 631 52 l 1,10,-1
 631 -11 l 1,11,-1
 204 -11 l 1,12,-1
 204 52 l 1,13,-1
 368 52 l 1,14,15
 368 337.409090909 368 337.409090909 441 573 c 0,16,17
 539.427971576 890.653908269 539.427971576 890.653908269 782 1164 c 1,18,-1
 155 1164 l 1,0,-1
EndSplineSet
EndChar

StartChar: eight
Encoding: 56 56 44
Width: 1042
Flags: W
LayerCount: 2
Fore
SplineSet
934 304 m 0,0,1
 934 231 934 231 898.5 166.5 c 128,-1,2
 863 102 863 102 805 59.5 c 0,3,4
 691.047058824 -24 691.047058824 -24 523.023529412 -24 c 128,-1,5
 355 -24 355 -24 233 64.3448275862 c 128,-1,6
 111 152.689655172 111 152.689655172 111 328.264019505 c 128,-1,7
 111 503.838383838 111 503.838383838 269.5 601.5 c 0,8,9
 319 632 319 632 380 644 c 1,10,11
 267.346016972 678.369011771 267.346016972 678.369011771 209.673008486 759.729148743 c 128,-1,12
 152 841.089285714 152 841.089285714 152 919.544642857 c 0,13,14
 152 1066.55319149 152 1066.55319149 251.516853933 1160.77659574 c 128,-1,15
 351.033707865 1255 351.033707865 1255 523 1255 c 256,16,17
 694.966292135 1255 694.966292135 1255 794.483146067 1160.77659574 c 128,-1,18
 894 1066.55319149 894 1066.55319149 894 938 c 0,19,20
 894 841.379310345 894 841.379310345 832.912181303 757.120250073 c 128,-1,21
 771.824362606 672.861189802 771.824362606 672.861189802 666 644 c 1,22,23
 785.757149342 620.441216523 785.757149342 620.441216523 859.878574671 529.377751119 c 128,-1,24
 934 438.314285714 934 438.314285714 934 304 c 0,0,1
523 596 m 256,25,26
 370.116883117 596 370.116883117 596 282.558441558 513.780487805 c 128,-1,27
 195 431.56097561 195 431.56097561 195 312.345705196 c 128,-1,28
 195 193.130434783 195 193.130434783 292.5 121.065217391 c 128,-1,29
 390 49 390 49 522.323529412 49 c 128,-1,30
 654.647058824 49 654.647058824 49 752.323529412 121.195652174 c 128,-1,31
 850 193.391304348 850 193.391304348 850 313.177579885 c 128,-1,32
 850 432.963855422 850 432.963855422 762.12987013 514.481927711 c 128,-1,33
 674.25974026 596 674.25974026 596 523 596 c 256,25,26
523 1182 m 256,34,35
 386.188405797 1182 386.188405797 1182 311.594202899 1109.50704225 c 128,-1,36
 237 1037.01408451 237 1037.01408451 237 937 c 256,37,38
 237 833.5 237 833.5 313.191780822 756.25 c 128,-1,39
 389.383561644 679 389.383561644 679 523 679 c 256,40,41
 657.232876712 679 657.232876712 679 732.616438356 756.507042254 c 128,-1,42
 808 834.014084507 808 834.014084507 808 937 c 256,43,44
 808 1037.98591549 808 1037.98591549 733.905797101 1109.99295775 c 128,-1,45
 659.811594203 1182 659.811594203 1182 523 1182 c 256,34,35
EndSplineSet
EndChar

StartChar: nine
Encoding: 57 57 45
Width: 952
Flags: W
LayerCount: 2
Fore
SplineSet
255.25 655.586206897 m 128,-1,1
 347.5 575 347.5 575 475 575 c 256,2,3
 602.5 575 602.5 575 696.75 657.601123596 c 128,-1,4
 791 740.202247191 791 740.202247191 791 874.620604115 c 128,-1,5
 791 1009.03896104 791 1009.03896104 710.307228916 1096.01948052 c 128,-1,6
 629.614457831 1183 629.614457831 1183 480 1183 c 128,-1,7
 330.372093023 1183 330.372093023 1183 246.686046512 1093.0375 c 128,-1,8
 163 1003.075 163 1003.075 163 869.623706897 c 128,-1,0
 163 736.172413793 163 736.172413793 255.25 655.586206897 c 128,-1,1
308 -82 m 1,9,-1
 660 554 l 1,10,11
 562 506 562 506 474.5 506 c 0,12,13
 308.15625 506 308.15625 506 195.078125 609.385714286 c 128,-1,14
 82 712.771428571 82 712.771428571 82 868.113437058 c 128,-1,15
 82 1023.45544554 82 1023.45544554 188.3 1139.22772277 c 128,-1,16
 294.6 1255 294.6 1255 462.64375 1255 c 128,-1,17
 630.6875 1255 630.6875 1255 749.34375 1150.49541284 c 128,-1,18
 868 1045.99082569 868 1045.99082569 868 905.427845276 c 128,-1,19
 868 764.864864865 868 764.864864865 733 535 c 1,20,-1
 376 -128 l 1,21,-1
 308 -82 l 1,9,-1
EndSplineSet
EndChar

StartChar: colon
Encoding: 58 58 46
Width: 416
Flags: W
LayerCount: 2
Fore
SplineSet
267 815 m 1,0,-1
 267 695 l 1,1,-1
 150 695 l 1,2,-1
 150 815 l 1,3,-1
 267 815 l 1,0,-1
267 314 m 1,4,-1
 267 194 l 1,5,-1
 150 194 l 1,6,-1
 150 314 l 1,7,-1
 267 314 l 1,4,-1
EndSplineSet
EndChar

StartChar: semicolon
Encoding: 59 59 47
Width: 440
Flags: W
LayerCount: 2
Fore
SplineSet
292 316 m 1,0,-1
 292 193 l 2,1,2
 292 19 292 19 156 19 c 1,3,-1
 156 64 l 1,4,5
 203.492163009 79.197492163 203.492163009 79.197492163 215.246081505 104.384460367 c 0,6,7
 227 129.571428571 227 129.571428571 227 196 c 1,8,-1
 166 196 l 1,9,-1
 166 316 l 1,10,-1
 292 316 l 1,0,-1
287 815 m 1,11,-1
 287 695 l 1,12,-1
 170 695 l 1,13,-1
 170 815 l 1,14,-1
 287 815 l 1,11,-1
EndSplineSet
EndChar

StartChar: less
Encoding: 60 60 48
Width: 907
Flags: W
LayerCount: 2
Fore
SplineSet
-18 613 m 1,0,-1
 829 1255 l 1,1,-1
 829 1162 l 1,2,-1
 96 613 l 1,3,-1
 829 68 l 1,4,-1
 829 -23 l 1,5,-1
 -18 613 l 1,0,-1
EndSplineSet
EndChar

StartChar: equal
Encoding: 61 61 49
Width: 791
Flags: W
LayerCount: 2
Fore
SplineSet
652 634 m 1,0,-1
 143 634 l 1,1,-1
 143 696 l 1,2,-1
 652 696 l 1,3,-1
 652 634 l 1,0,-1
652 356 m 1,4,-1
 143 356 l 1,5,-1
 143 419 l 1,6,-1
 652 419 l 1,7,-1
 652 356 l 1,4,-1
EndSplineSet
EndChar

StartChar: greater
Encoding: 62 62 50
Width: 909
Flags: W
LayerCount: 2
Fore
SplineSet
86 -23 m 1,0,-1
 86 68 l 1,1,-1
 819 613 l 1,2,-1
 86 1162 l 1,3,-1
 86 1255 l 1,4,-1
 933 613 l 1,5,-1
 86 -23 l 1,0,-1
EndSplineSet
EndChar

StartChar: question
Encoding: 63 63 51
Width: 727
Flags: W
LayerCount: 2
Fore
SplineSet
20 1040 m 1,0,1
 96.25 1223 96.25 1223 330 1223 c 0,2,3
 456.153846154 1223 456.153846154 1223 549.076923077 1139.68965517 c 128,-1,4
 642 1056.37931034 642 1056.37931034 642 919.064655172 c 128,-1,5
 642 781.75 642 781.75 544 692.5 c 0,6,7
 516 667 516 667 486.5 641.5 c 0,8,9
 410.984555985 576.223938224 410.984555985 576.223938224 365.512133588 499.48922543 c 128,-1,10
 320.039711191 422.754512635 320.039711191 422.754512635 313 289 c 1,11,-1
 280 289 l 1,12,13
 280 543.712328767 280 543.712328767 422.5 674.5 c 0,14,15
 515.195377504 759.576579353 515.195377504 759.576579353 540.097688752 808.788289676 c 128,-1,16
 565 858 565 858 565 912 c 0,17,18
 565 1018.03389831 565 1018.03389831 502.738095238 1084.51694915 c 128,-1,19
 440.476190476 1151 440.476190476 1151 334.738095238 1151 c 0,20,21
 142.061538462 1151 142.061538462 1151 81 1004 c 1,22,-1
 20 1040 l 1,0,1
349 -23 m 1,23,-1
 265 -23 l 1,24,-1
 265 56 l 1,25,-1
 349 56 l 1,26,-1
 349 -23 l 1,23,-1
EndSplineSet
EndChar

StartChar: at
Encoding: 64 64 52
Width: 1458
Flags: W
LayerCount: 2
Fore
SplineSet
951 375 m 0,0,1
 951 325 951 325 1001 325 c 128,-1,2
 1051 325 1051 325 1115.98455837 374.82149475 c 128,-1,3
 1180.96911674 424.6429895 1180.96911674 424.6429895 1229.48455837 517.544899005 c 128,-1,4
 1278 610.446808511 1278 610.446808511 1278 716.223404255 c 0,5,6
 1278 921.515384615 1278 921.515384615 1140.70155039 1057.75769231 c 128,-1,7
 1003.40310078 1194 1003.40310078 1194 755.858957795 1194 c 128,-1,8
 508.314814815 1194 508.314814815 1194 340.157407407 1022.66981132 c 128,-1,9
 172 851.339622642 172 851.339622642 172 590.57948874 c 128,-1,10
 172 329.819354839 172 329.819354839 332.176870748 177.909677419 c 128,-1,11
 492.353741497 26 492.353741497 26 756.889833713 26 c 128,-1,12
 1021.42592593 26 1021.42592593 26 1174 133 c 1,13,-1
 1211 83 l 1,14,15
 1044.35483871 -43 1044.35483871 -43 743.408511792 -43 c 128,-1,16
 442.462184874 -43 442.462184874 -43 263.231092437 142.465217391 c 128,-1,17
 84 327.930434783 84 327.930434783 84 590.85410628 c 128,-1,18
 84 853.777777778 84 853.777777778 269.05 1059.38888889 c 128,-1,19
 454.1 1265 454.1 1265 758.81 1265 c 128,-1,20
 1063.52 1265 1063.52 1265 1210.26 1108.89361702 c 128,-1,21
 1357 952.787234043 1357 952.787234043 1357 751.369807498 c 128,-1,22
 1357 549.952380952 1357 549.952380952 1240.26492537 400.976190476 c 128,-1,23
 1123.52985075 252 1123.52985075 252 987.1 252 c 0,24,25
 888 252 888 252 888 377.25 c 0,26,27
 888 407.5 888 407.5 891 424 c 1,28,29
 775.723404255 252 775.723404255 252 651.611702127 252 c 128,-1,30
 527.5 252 527.5 252 452.25 334.669014085 c 128,-1,31
 377 417.338028169 377 417.338028169 377 571.419014085 c 128,-1,32
 377 725.5 377 725.5 470.636363636 854.25 c 128,-1,33
 564.272727273 983 564.272727273 983 729.303030303 983 c 128,-1,34
 894.333333333 983 894.333333333 983 964 840 c 1,35,-1
 988 962 l 1,36,-1
 1075 962 l 1,37,-1
 953 402 l 2,38,39
 951 392 951 392 951 375 c 0,0,1
921 677.806043956 m 0,40,41
 921 913 921 913 710.463585434 913 c 0,42,43
 608.784313725 913 608.784313725 913 539.892156863 803.203125 c 128,-1,44
 471 693.40625 471 693.40625 471 544.703125 c 0,45,46
 471 318 471 318 690.344036697 318 c 0,47,48
 765.688073394 318 765.688073394 318 843.344036697 438.921428571 c 128,-1,49
 921 559.842857143 921 559.842857143 921 677.806043956 c 0,40,41
EndSplineSet
EndChar

StartChar: A
Encoding: 65 65 53
Width: 1321
Flags: W
LayerCount: 2
Fore
SplineSet
872 1234 m 1,0,-1
 872 1171 l 1,1,-1
 715 1171 l 1,2,-1
 1130 62 l 1,3,-1
 1288 62 l 1,4,-1
 1288 0 l 1,5,-1
 885 0 l 1,6,-1
 885 62 l 1,7,-1
 1044 62 l 1,8,-1
 884 503 l 1,9,-1
 409 503 l 1,10,-1
 249 62 l 1,11,-1
 408 62 l 1,12,-1
 408 0 l 1,13,-1
 4 0 l 1,14,-1
 4 62 l 1,15,-1
 163 62 l 1,16,-1
 579 1171 l 1,17,-1
 421 1171 l 1,18,-1
 421 1234 l 1,19,-1
 872 1234 l 1,0,-1
430 564 m 1,20,-1
 872 564 l 1,21,-1
 646 1153 l 1,22,-1
 430 564 l 1,20,-1
EndSplineSet
EndChar

StartChar: B
Encoding: 66 66 54
Width: 1233
Flags: W
LayerCount: 2
Fore
SplineSet
940 654 m 1,0,1
 1183 587.370967745 1183 587.370967745 1183 322.969322344 c 0,2,3
 1183 201.021978022 1183 201.021978022 1086.72105263 100.510989011 c 128,-1,4
 990.442105263 4.26325641456e-14 990.442105263 4.26325641456e-14 820 0 c 2,5,-1
 101 0 l 1,6,-1
 101 62 l 1,7,-1
 254 62 l 1,8,-1
 254 1171 l 1,9,-1
 88 1171 l 1,10,-1
 88 1234 l 1,11,-1
 748 1234 l 2,12,13
 918.976744186 1234 918.976744186 1234 1014.98837209 1143.26373626 c 128,-1,14
 1111 1052.52747253 1111 1052.52747253 1111 898.415421658 c 128,-1,15
 1111 744.303370787 1111 744.303370787 940 654 c 1,0,1
820 62 m 2,16,17
 953.307692308 62 953.307692308 62 1028.15384615 144.225352113 c 128,-1,18
 1103 226.450704225 1103 226.450704225 1103 336.985352113 c 128,-1,19
 1103 447.52 1103 447.52 1023.44230769 530.26 c 128,-1,20
 943.884615385 613 943.884615385 613 805 613 c 2,21,-1
 335 613 l 1,22,-1
 335 62 l 1,23,-1
 820 62 l 2,16,17
335 678 m 1,24,-1
 796 678 l 2,25,26
 905.757142857 678 905.757142857 678 968.378571429 752.296610169 c 128,-1,27
 1031 826.593220339 1031 826.593220339 1031 927.536046789 c 128,-1,28
 1031 1028.47887324 1031 1028.47887324 956.595588235 1099.73943662 c 128,-1,29
 882.191176471 1171 882.191176471 1171 748 1171 c 2,30,-1
 335 1171 l 1,31,-1
 335 678 l 1,24,-1
EndSplineSet
EndChar

StartChar: C
Encoding: 67 67 55
Width: 1341
Flags: W
LayerCount: 2
Fore
SplineSet
1204 874 m 1,0,1
 1067.67213114 1182 1067.67213114 1182 698.5 1182 c 0,2,3
 465.25 1182 465.25 1182 313.625 1016.59090909 c 128,-1,4
 162 851.181818182 162 851.181818182 162 617.674242424 c 128,-1,5
 162 384.166666667 162 384.166666667 306.071428571 216.083333333 c 128,-1,6
 450.142857143 48 450.142857143 48 703.534731324 48 c 0,7,8
 1051.71052632 48 1051.71052632 48 1206 334 c 1,9,-1
 1275 283 l 1,10,11
 1096.5 -23 1096.5 -23 701 -23 c 0,12,13
 456.867924528 -23 456.867924528 -23 305.288723286 110.894961096 c 128,-1,14
 153.709522045 244.789922193 153.709522045 244.789922193 115.854761022 378.394961096 c 128,-1,15
 78 512 78 512 78 612 c 0,16,17
 78 995.172661878 78 995.172661878 386.496056662 1172.72434916 c 0,18,19
 529.45 1255 529.45 1255 706 1255 c 0,20,21
 1027 1255 1027 1255 1191 1027 c 1,22,-1
 1191 1234 l 1,23,-1
 1266 1234 l 1,24,-1
 1266 887 l 1,25,-1
 1204 874 l 1,0,1
EndSplineSet
EndChar

StartChar: D
Encoding: 68 68 56
Width: 1409
Flags: W
LayerCount: 2
Fore
SplineSet
793 1234 m 2,0,1
 1051.88983051 1234 1051.88983051 1234 1194.94491525 1048.5 c 128,-1,2
 1338 863 1338 863 1338 613.434306569 c 128,-1,3
 1338 363.868613139 1338 363.868613139 1193.92485549 181.934306569 c 128,-1,4
 1049.84971098 1.42108547152e-14 1049.84971098 1.42108547152e-14 793 0 c 2,5,-1
 100 0 l 1,6,-1
 100 62 l 1,7,-1
 266 62 l 1,8,-1
 266 1171 l 1,9,-1
 100 1171 l 1,10,-1
 100 1234 l 1,11,-1
 793 1234 l 2,0,1
348 1171 m 1,12,-1
 348 62 l 1,13,-1
 792 62 l 2,14,15
 1011.96794872 62 1011.96794872 62 1132.98397436 226.160869565 c 128,-1,16
 1254 390.32173913 1254 390.32173913 1254 615.160869565 c 128,-1,17
 1254 840 1254 840 1132.63333333 1005.5 c 128,-1,18
 1011.26666667 1171 1011.26666667 1171 792 1171 c 2,19,-1
 348 1171 l 1,12,-1
EndSplineSet
EndChar

StartChar: E
Encoding: 69 69 57
Width: 1249
Flags: W
LayerCount: 2
Fore
SplineSet
355 1164 m 1,0,-1
 355 666 l 1,1,-1
 788 666 l 1,2,-1
 788 824 l 1,3,-1
 855 824 l 1,4,-1
 855 424 l 1,5,-1
 788 424 l 1,6,-1
 788 596 l 1,7,-1
 355 596 l 1,8,-1
 355 70 l 1,9,-1
 1040 70 l 1,10,-1
 1040 376 l 1,11,-1
 1117 376 l 1,12,-1
 1117 0 l 1,13,-1
 98 0 l 1,14,-1
 98 70 l 1,15,-1
 273 70 l 1,16,-1
 273 1164 l 1,17,-1
 98 1164 l 1,18,-1
 98 1234 l 1,19,-1
 1095 1234 l 1,20,-1
 1095 858 l 1,21,-1
 1019 858 l 1,22,-1
 1019 1164 l 1,23,-1
 355 1164 l 1,0,-1
EndSplineSet
EndChar

StartChar: F
Encoding: 70 70 58
Width: 1137
Flags: W
LayerCount: 2
Fore
SplineSet
355 1164 m 1,0,-1
 355 643 l 1,1,-1
 848 643 l 1,2,-1
 848 817 l 1,3,-1
 915 817 l 1,4,-1
 915 404 l 1,5,-1
 848 404 l 1,6,-1
 848 577 l 1,7,-1
 355 577 l 1,8,-1
 355 70 l 1,9,-1
 557 70 l 1,10,-1
 557 0 l 1,11,-1
 98 0 l 1,12,-1
 98 70 l 1,13,-1
 273 70 l 1,14,-1
 273 1164 l 1,15,-1
 98 1164 l 1,16,-1
 98 1234 l 1,17,-1
 1103 1234 l 1,18,-1
 1103 858 l 1,19,-1
 1026 858 l 1,20,-1
 1026 1164 l 1,21,-1
 355 1164 l 1,0,-1
EndSplineSet
EndChar

StartChar: G
Encoding: 71 71 59
Width: 1356
Flags: W
LayerCount: 2
Fore
SplineSet
1294 589 m 1,0,1
 1294 -23 1294 -23 657.747427101 -23 c 0,2,3
 459.858490566 -23 459.858490566 -23 268.929245283 144.260330579 c 128,-1,4
 78 311.520661157 78 311.520661157 78 601.171835003 c 128,-1,5
 78 890.82300885 78 890.82300885 256.92173913 1072.91150442 c 128,-1,6
 435.843478261 1255 435.843478261 1255 722.649461903 1255 c 128,-1,7
 1009.45544554 1255 1009.45544554 1255 1167 1051 c 1,8,-1
 1167 1234 l 1,9,-1
 1242 1234 l 1,10,-1
 1242 898 l 1,11,-1
 1180 898 l 1,12,13
 1048.14285714 1182 1048.14285714 1182 696 1182 c 0,14,15
 465.25 1182 465.25 1182 313.625 1016.59090909 c 128,-1,16
 162 851.181818182 162 851.181818182 162 616.431488801 c 128,-1,17
 162 381.68115942 162 381.68115942 305.9 214.84057971 c 128,-1,18
 449.8 48 449.8 48 676.441095891 48 c 128,-1,19
 903.082191781 48 903.082191781 48 1053.78858791 160.260886913 c 128,-1,20
 1204.49498404 272.521773826 1204.49498404 272.521773826 1210 523 c 1,21,-1
 945 523 l 1,22,-1
 945 589 l 1,23,-1
 1294 589 l 1,0,1
EndSplineSet
EndChar

StartChar: H
Encoding: 72 72 60
Width: 1475
Flags: W
LayerCount: 2
Fore
SplineSet
1360 1234 m 1,0,-1
 1360 1171 l 1,1,-1
 1220 1171 l 1,2,-1
 1220 62 l 1,3,-1
 1360 62 l 1,4,-1
 1360 0 l 1,5,-1
 991 0 l 1,6,-1
 991 62 l 1,7,-1
 1139 62 l 1,8,-1
 1139 598 l 1,9,-1
 337 598 l 1,10,-1
 337 62 l 1,11,-1
 492 62 l 1,12,-1
 492 0 l 1,13,-1
 104 0 l 1,14,-1
 104 62 l 1,15,-1
 256 62 l 1,16,-1
 256 1171 l 1,17,-1
 104 1171 l 1,18,-1
 104 1234 l 1,19,-1
 492 1234 l 1,20,-1
 492 1171 l 1,21,-1
 337 1171 l 1,22,-1
 337 661 l 1,23,-1
 1139 661 l 1,24,-1
 1139 1171 l 1,25,-1
 991 1171 l 1,26,-1
 991 1234 l 1,27,-1
 1360 1234 l 1,0,-1
EndSplineSet
EndChar

StartChar: I
Encoding: 73 73 61
Width: 612
Flags: W
LayerCount: 2
Fore
SplineSet
505 1234 m 1,0,-1
 505 1171 l 1,1,-1
 345 1171 l 1,2,-1
 345 62 l 1,3,-1
 505 62 l 1,4,-1
 505 0 l 1,5,-1
 102 0 l 1,6,-1
 102 62 l 1,7,-1
 263 62 l 1,8,-1
 263 1171 l 1,9,-1
 102 1171 l 1,10,-1
 102 1234 l 1,11,-1
 505 1234 l 1,0,-1
EndSplineSet
EndChar

StartChar: J
Encoding: 74 74 62
Width: 461
Flags: W
LayerCount: 2
Fore
SplineSet
181 1174 m 1,0,-1
 42 1174 l 1,1,-1
 42 1234 l 1,2,-1
 402 1234 l 1,3,-1
 402 1174 l 1,4,-1
 263 1174 l 1,5,-1
 263 60 l 2,6,7
 263 -47.5882352941 263 -47.5882352941 204.5 -82 c 0,8,9
 172.2 -101 172.2 -101 94 -101 c 2,10,-1
 23 -101 l 1,11,-1
 23 -41 l 1,12,-1
 107 -41 l 2,13,14
 141.555555556 -41 141.555555556 -41 153.777777778 -31 c 0,15,16
 181 -8.72727272727 181 -8.72727272727 181 59 c 2,17,-1
 181 1174 l 1,0,-1
EndSplineSet
EndChar

StartChar: K
Encoding: 75 75 63
Width: 1317
Flags: W
LayerCount: 2
Fore
SplineSet
506 1234 m 1,0,-1
 506 1174 l 1,1,-1
 345 1174 l 1,2,-1
 345 642 l 1,3,-1
 941 1174 l 1,4,-1
 788 1174 l 1,5,-1
 788 1234 l 1,6,-1
 1220 1234 l 1,7,-1
 1220 1174 l 1,8,-1
 1047 1174 l 1,9,-1
 447 634 l 1,10,-1
 1107 60 l 1,11,-1
 1277 60 l 1,12,-1
 1277 0 l 1,13,-1
 822 0 l 1,14,-1
 822 60 l 1,15,-1
 989 60 l 1,16,-1
 345 625 l 1,17,-1
 345 60 l 1,18,-1
 506 60 l 1,19,-1
 506 0 l 1,20,-1
 102 0 l 1,21,-1
 102 60 l 1,22,-1
 263 60 l 1,23,-1
 263 1174 l 1,24,-1
 102 1174 l 1,25,-1
 102 1234 l 1,26,-1
 506 1234 l 1,0,-1
EndSplineSet
EndChar

StartChar: L
Encoding: 76 76 64
Width: 1149
Flags: W
LayerCount: 2
Fore
SplineSet
471 1234 m 1,0,-1
 471 1174 l 1,1,-1
 332 1174 l 1,2,-1
 332 70 l 1,3,-1
 960 70 l 1,4,-1
 960 412 l 1,5,-1
 1036 412 l 1,6,-1
 1036 0 l 1,7,-1
 111 0 l 1,8,-1
 111 70 l 1,9,-1
 250 70 l 1,10,-1
 250 1174 l 1,11,-1
 111 1174 l 1,12,-1
 111 1234 l 1,13,-1
 471 1234 l 1,0,-1
EndSplineSet
EndChar

StartChar: M
Encoding: 77 77 65
Width: 1663
Flags: W
LayerCount: 2
Fore
SplineSet
342 1088 m 1,0,-1
 342 62 l 1,1,-1
 503 62 l 1,2,-1
 503 0 l 1,3,-1
 102 0 l 1,4,-1
 102 62 l 1,5,-1
 263 62 l 1,6,-1
 263 1171 l 1,7,-1
 102 1171 l 1,8,-1
 102 1234 l 1,9,-1
 358 1234 l 1,10,-1
 839 239 l 1,11,-1
 1300 1234 l 1,12,-1
 1556 1234 l 1,13,-1
 1556 1171 l 1,14,-1
 1395 1171 l 1,15,-1
 1395 62 l 1,16,-1
 1556 62 l 1,17,-1
 1556 0 l 1,18,-1
 1155 0 l 1,19,-1
 1155 62 l 1,20,-1
 1316 62 l 1,21,-1
 1316 1088 l 1,22,-1
 839 78 l 1,23,-1
 342 1088 l 1,0,-1
EndSplineSet
EndChar

StartChar: N
Encoding: 78 78 66
Width: 1473
Flags: W
LayerCount: 2
Fore
SplineSet
342 1234 m 1,0,-1
 1186 125 l 1,1,-1
 1186 1171 l 1,2,-1
 1025 1171 l 1,3,-1
 1025 1234 l 1,4,-1
 1426 1234 l 1,5,-1
 1426 1171 l 1,6,-1
 1265 1171 l 1,7,-1
 1265 0 l 1,8,-1
 1186 0 l 1,9,-1
 342 1114 l 1,10,-1
 342 62 l 1,11,-1
 503 62 l 1,12,-1
 503 0 l 1,13,-1
 102 0 l 1,14,-1
 102 62 l 1,15,-1
 263 62 l 1,16,-1
 263 1171 l 1,17,-1
 102 1171 l 1,18,-1
 102 1234 l 1,19,-1
 342 1234 l 1,0,-1
EndSplineSet
EndChar

StartChar: O
Encoding: 79 79 67
Width: 1427
Flags: W
LayerCount: 2
Fore
SplineSet
301.5 1004 m 0,0,1
 255 950 255 950 224 886.5 c 0,2,3
 162 759.5 162 759.5 162 632.75 c 0,4,5
 162 381 162 381 307.424050633 214.5 c 128,-1,6
 452.848101266 48 452.848101266 48 718 48 c 0,7,8
 891.461538462 48 891.461538462 48 1017.67782805 127.394117647 c 128,-1,9
 1143.89411765 206.788235294 1143.89411765 206.788235294 1208.94705882 336.894117647 c 128,-1,10
 1274 467 1274 467 1274 614 c 0,11,12
 1274 840.838709677 1274 840.838709677 1127.11111111 1011.41935484 c 128,-1,13
 980.222222222 1182 980.222222222 1182 717.5 1182 c 128,-1,14
 454.777777778 1182 454.777777778 1182 301.5 1004 c 0,0,1
718 -23 m 256,15,16
 415.430167598 -23 415.430167598 -23 246.715083799 165.75 c 128,-1,17
 78 354.5 78 354.5 78 612.75 c 128,-1,18
 78 871 78 871 238.5 1054 c 0,19,20
 348.596346639 1179.53041392 348.596346639 1179.53041392 523 1229.5 c 0,21,22
 612 1255 612 1255 718 1255 c 256,23,24
 1021.21311475 1255 1021.21311475 1255 1189.60655738 1063 c 128,-1,25
 1358 871 1358 871 1358 612.75 c 128,-1,26
 1358 354.5 1358 354.5 1189.2849162 165.75 c 128,-1,27
 1020.5698324 -23 1020.5698324 -23 718 -23 c 256,15,16
EndSplineSet
EndChar

StartChar: P
Encoding: 80 80 68
Width: 1184
Flags: W
LayerCount: 2
Fore
SplineSet
101 62 m 1,0,-1
 254 62 l 1,1,-1
 254 1171 l 1,2,-1
 88 1171 l 1,3,-1
 88 1234 l 1,4,-1
 769 1234 l 2,5,6
 940.454545455 1234 940.454545455 1234 1035.72727273 1129.2 c 0,7,8
 1131 1024.4 1131 1024.4 1131 880.777777778 c 0,9,10
 1131 737.155555556 1131 737.155555556 1035.74038462 627.077777778 c 0,11,12
 940.480769231 517 940.480769231 517 769 517 c 2,13,-1
 335 517 l 1,14,-1
 335 62 l 1,15,-1
 505 62 l 1,16,-1
 505 0 l 1,17,-1
 101 0 l 1,18,-1
 101 62 l 1,0,-1
335 582 m 1,19,-1
 769 582 l 2,20,21
 901.892857143 582 901.892857143 582 976.946428571 670.795774648 c 0,22,23
 1052 759.591549296 1052 759.591549296 1052 879.830985915 c 0,24,25
 1052 1000.07042254 1052 1000.07042254 977.086419753 1085.53521127 c 0,26,27
 902.172839506 1171 902.172839506 1171 769 1171 c 2,28,-1
 335 1171 l 1,29,-1
 335 582 l 1,19,-1
EndSplineSet
EndChar

StartChar: Q
Encoding: 81 81 69
Width: 1425
Flags: W
LayerCount: 2
Fore
SplineSet
1191 -177 m 1,0,1
 1105.93333333 -206 1105.93333333 -206 1041.96666667 -206 c 0,2,3
 933.090909091 -206 933.090909091 -206 844.052019853 -157.513476158 c 128,-1,4
 755.013130615 -109.026952315 755.013130615 -109.026952315 612 3 c 1,5,-1
 767 -11 l 1,6,7
 917.105263158 -135 917.105263158 -135 1032.5 -135 c 0,8,9
 1100 -135 1100 -135 1168 -112 c 1,10,-1
 1191 -177 l 1,0,1
301.5 1004 m 0,11,12
 255 950 255 950 224 886.5 c 0,13,14
 162 759.5 162 759.5 162 632.75 c 0,15,16
 162 381 162 381 307.424050633 214.5 c 128,-1,17
 452.848101266 48 452.848101266 48 718 48 c 0,18,19
 891.461538462 48 891.461538462 48 1017.67782805 127.394117647 c 128,-1,20
 1143.89411765 206.788235294 1143.89411765 206.788235294 1208.94705882 336.894117647 c 128,-1,21
 1274 467 1274 467 1274 614 c 0,22,23
 1274 840.838709677 1274 840.838709677 1127.11111111 1011.41935484 c 128,-1,24
 980.222222222 1182 980.222222222 1182 717.5 1182 c 128,-1,25
 454.777777778 1182 454.777777778 1182 301.5 1004 c 0,11,12
718 -23 m 256,26,27
 415.430167598 -23 415.430167598 -23 246.715083799 165.75 c 128,-1,28
 78 354.5 78 354.5 78 612.75 c 128,-1,29
 78 871 78 871 238.5 1054 c 0,30,31
 348.596346639 1179.53041392 348.596346639 1179.53041392 523 1229.5 c 0,32,33
 612 1255 612 1255 718 1255 c 256,34,35
 1021.21311475 1255 1021.21311475 1255 1189.60655738 1063 c 128,-1,36
 1358 871 1358 871 1358 612.75 c 128,-1,37
 1358 354.5 1358 354.5 1189.2849162 165.75 c 128,-1,38
 1020.5698324 -23 1020.5698324 -23 718 -23 c 256,26,27
EndSplineSet
EndChar

StartChar: R
Encoding: 82 82 70
Width: 1274
Flags: W
LayerCount: 2
Fore
SplineSet
101 62 m 1,0,-1
 254 62 l 1,1,-1
 254 1171 l 1,2,-1
 88 1171 l 1,3,-1
 88 1234 l 1,4,-1
 728 1234 l 2,5,6
 899.217391304 1234 899.217391304 1234 994.608695652 1136.48888889 c 0,7,8
 1090 1038.97777778 1090 1038.97777778 1090 907 c 256,9,10
 1090 774.533333333 1090 774.533333333 994.419354839 675.766666667 c 0,11,12
 898.838709677 577 898.838709677 577 728 577 c 2,13,-1
 727 577 l 1,14,-1
 1043 62 l 1,15,-1
 1217 62 l 1,16,-1
 1217 0 l 1,17,-1
 985 0 l 1,18,-1
 643 577 l 1,19,-1
 335 577 l 1,20,-1
 335 62 l 1,21,-1
 505 62 l 1,22,-1
 505 0 l 1,23,-1
 101 0 l 1,24,-1
 101 62 l 1,0,-1
335 642 m 1,25,-1
 728 642 l 2,26,27
 860.824324324 642 860.824324324 642 935.912162162 720.26056338 c 0,28,29
 1011 798.521126761 1011 798.521126761 1011 906.274647887 c 0,30,31
 1011 1014.02816901 1011 1014.02816901 936.7 1092.51408451 c 0,32,33
 862.4 1171 862.4 1171 728 1171 c 2,34,-1
 335 1171 l 1,35,-1
 335 642 l 1,25,-1
EndSplineSet
EndChar

StartChar: S
Encoding: 83 83 71
Width: 1106
Flags: W
LayerCount: 2
Fore
SplineSet
643.5 -23 m 0,0,1
 510.157894737 -23 510.157894737 -23 399.50347567 15.9339622642 c 128,-1,2
 288.849056604 54.8679245283 288.849056604 54.8679245283 231 132 c 1,3,-1
 231 0 l 1,4,-1
 152 0 l 1,5,-1
 152 416 l 1,6,-1
 231 416 l 1,7,-1
 231 266 l 2,8,9
 231 166.684210526 231 166.684210526 352.055555556 109.342105263 c 128,-1,10
 473.111111111 52 473.111111111 52 628.655555556 52 c 128,-1,11
 784.2 52 784.2 52 872.1 131.427710843 c 128,-1,12
 960 210.855421687 960 210.855421687 960 322 c 0,13,14
 960 462.2 960 462.2 857 524 c 0,15,16
 775.904109589 572.657534247 775.904109589 572.657534247 625.952054795 587.828767123 c 128,-1,17
 476 603 476 603 396.5 622 c 128,-1,18
 317 641 317 641 262 678 c 0,19,20
 149 754.018181818 149 754.018181818 149 917.707289107 c 128,-1,21
 149 1081.3963964 149 1081.3963964 265.084337349 1168.1981982 c 128,-1,22
 381.168674699 1255 381.168674699 1255 547.768010819 1255 c 128,-1,23
 714.367346939 1255 714.367346939 1255 836 1180.5 c 0,24,25
 876 1156 876 1156 899 1123 c 1,26,-1
 899 1234 l 1,27,-1
 978 1234 l 1,28,-1
 978 899 l 1,29,-1
 899 899 l 1,30,-1
 899 1008 l 2,31,32
 899 1072.86458333 899 1072.86458333 792.091836735 1127.43229167 c 128,-1,33
 685.183673469 1182 685.183673469 1182 582.091836735 1182 c 0,34,35
 401.444444444 1182 401.444444444 1182 320.722222222 1109.35 c 128,-1,36
 240 1036.7 240 1036.7 240 906.807894737 c 128,-1,37
 240 776.915789474 240 776.915789474 339.5 723.5 c 0,38,39
 409.742509641 685.790863245 409.742509641 685.790863245 549.871254821 671.895431623 c 128,-1,40
 690 658 690 658 771 639 c 0,41,42
 1049 573.790123457 1049 573.790123457 1049 317 c 0,43,44
 1049 194.461538462 1049 194.461538462 969.70712098 109.069207209 c 0,45,46
 847.071428571 -23 847.071428571 -23 643.5 -23 c 0,0,1
EndSplineSet
EndChar

StartChar: T
Encoding: 84 84 72
Width: 1071
Flags: W
LayerCount: 2
Fore
SplineSet
1073 1234 m 1,0,-1
 1073 842 l 1,1,-1
 996 842 l 1,2,-1
 996 1164 l 1,3,-1
 566 1164 l 1,4,-1
 566 60 l 1,5,-1
 742 60 l 1,6,-1
 742 0 l 1,7,-1
 310 0 l 1,8,-1
 310 60 l 1,9,-1
 485 60 l 1,10,-1
 485 1164 l 1,11,-1
 62 1164 l 1,12,-1
 62 842 l 1,13,-1
 -14 842 l 1,14,-1
 -14 1234 l 1,15,-1
 1073 1234 l 1,0,-1
EndSplineSet
EndChar

StartChar: U
Encoding: 85 85 73
Width: 1421
Flags: W
LayerCount: 2
Fore
SplineSet
1142 1171 m 1,0,-1
 981 1171 l 1,1,-1
 981 1234 l 1,2,-1
 1384 1234 l 1,3,-1
 1384 1171 l 1,4,-1
 1224 1171 l 1,5,-1
 1224 404 l 2,6,7
 1224 203.039215686 1224 203.039215686 1062.39252336 90.0196078431 c 0,8,9
 900.785046729 -23 900.785046729 -23 685.892523364 -23 c 0,10,11
 471 -23 471 -23 317 88.8082191781 c 0,12,13
 163 200.616438356 163 200.616438356 163 404 c 2,14,-1
 163 1171 l 1,15,-1
 2 1171 l 1,16,-1
 2 1234 l 1,17,-1
 405 1234 l 1,18,-1
 405 1171 l 1,19,-1
 244 1171 l 1,20,-1
 244 406 l 2,21,22
 244 235.268292683 244 235.268292683 373.404494382 141.634146341 c 0,23,24
 502.808988764 48 502.808988764 48 684.904494382 48 c 0,25,26
 867 48 867 48 1004.5 143.192307692 c 0,27,28
 1142 238.384615385 1142 238.384615385 1142 406 c 2,29,-1
 1142 1171 l 1,0,-1
EndSplineSet
EndChar

StartChar: V
Encoding: 86 86 74
Width: 1159
Flags: W
LayerCount: 2
Fore
SplineSet
516 0 m 1,0,-1
 76 1171 l 1,1,-1
 -82 1171 l 1,2,-1
 -82 1234 l 1,3,-1
 321 1234 l 1,4,-1
 321 1171 l 1,5,-1
 164 1171 l 1,6,-1
 560 100 l 1,7,-1
 952 1171 l 1,8,-1
 799 1171 l 1,9,-1
 799 1234 l 1,10,-1
 1202 1234 l 1,11,-1
 1202 1171 l 1,12,-1
 1046 1171 l 1,13,-1
 602 0 l 1,14,-1
 516 0 l 1,0,-1
EndSplineSet
EndChar

StartChar: W
Encoding: 87 87 75
Width: 1827
Flags: W
LayerCount: 2
Fore
SplineSet
1239 0 m 1,0,-1
 893 1044 l 1,1,-1
 560 0 l 1,2,-1
 471 0 l 1,3,-1
 80 1171 l 1,4,-1
 -78 1171 l 1,5,-1
 -78 1234 l 1,6,-1
 325 1234 l 1,7,-1
 325 1171 l 1,8,-1
 168 1171 l 1,9,-1
 516 100 l 1,10,-1
 848 1171 l 1,11,-1
 695 1171 l 1,12,-1
 695 1234 l 1,13,-1
 1093 1234 l 1,14,-1
 1093 1171 l 1,15,-1
 936 1171 l 1,16,-1
 1284 100 l 1,17,-1
 1616 1171 l 1,18,-1
 1463 1171 l 1,19,-1
 1463 1234 l 1,20,-1
 1862 1234 l 1,21,-1
 1862 1171 l 1,22,-1
 1706 1171 l 1,23,-1
 1326 0 l 1,24,-1
 1239 0 l 1,0,-1
EndSplineSet
EndChar

StartChar: X
Encoding: 88 88 76
Width: 1270
Flags: W
LayerCount: 2
Fore
SplineSet
470 1234 m 1,0,-1
 470 1171 l 1,1,-1
 310 1171 l 1,2,-1
 629 695 l 1,3,-1
 947 1171 l 1,4,-1
 787 1171 l 1,5,-1
 787 1234 l 1,6,-1
 1190 1234 l 1,7,-1
 1190 1171 l 1,8,-1
 1032 1171 l 1,9,-1
 673 629 l 1,10,-1
 1054 62 l 1,11,-1
 1214 62 l 1,12,-1
 1214 0 l 1,13,-1
 811 0 l 1,14,-1
 811 62 l 1,15,-1
 972 62 l 1,16,-1
 632 568 l 1,17,-1
 298 62 l 1,18,-1
 458 62 l 1,19,-1
 458 0 l 1,20,-1
 55 0 l 1,21,-1
 55 62 l 1,22,-1
 209 62 l 1,23,-1
 588 634 l 1,24,-1
 228 1171 l 1,25,-1
 67 1171 l 1,26,-1
 67 1234 l 1,27,-1
 470 1234 l 1,0,-1
EndSplineSet
EndChar

StartChar: Y
Encoding: 89 89 77
Width: 1141
Flags: W
LayerCount: 2
Fore
SplineSet
-88 1171 m 1,0,-1
 -88 1234 l 1,1,-1
 315 1234 l 1,2,-1
 315 1171 l 1,3,-1
 158 1171 l 1,4,-1
 555 508 l 1,5,-1
 945 1171 l 1,6,-1
 786 1171 l 1,7,-1
 786 1234 l 1,8,-1
 1189 1234 l 1,9,-1
 1189 1171 l 1,10,-1
 1033 1171 l 1,11,-1
 594 436 l 1,12,-1
 594 62 l 1,13,-1
 754 62 l 1,14,-1
 754 0 l 1,15,-1
 351 0 l 1,16,-1
 351 62 l 1,17,-1
 512 62 l 1,18,-1
 512 436 l 1,19,-1
 70 1171 l 1,20,-1
 -88 1171 l 1,0,-1
EndSplineSet
EndChar

StartChar: Z
Encoding: 90 90 78
Width: 1229
Flags: W
LayerCount: 2
Fore
SplineSet
185 70 m 1,0,-1
 1027 70 l 1,1,-1
 1027 376 l 1,2,-1
 1104 376 l 1,3,-1
 1104 0 l 1,4,-1
 102 0 l 1,5,-1
 102 96 l 1,6,-1
 979 1164 l 1,7,-1
 198 1164 l 1,8,-1
 198 870 l 1,9,-1
 121 870 l 1,10,-1
 121 1234 l 1,11,-1
 1068 1234 l 1,12,-1
 1068 1153 l 1,13,-1
 185 70 l 1,0,-1
EndSplineSet
EndChar

StartChar: bracketleft
Encoding: 91 91 79
Width: 518
Flags: W
LayerCount: 2
Fore
SplineSet
420 1255 m 1,0,-1
 420 1193 l 1,1,-1
 260 1193 l 1,2,-1
 260 40 l 1,3,-1
 420 40 l 1,4,-1
 420 -23 l 1,5,-1
 178 -23 l 1,6,-1
 178 1255 l 1,7,-1
 420 1255 l 1,0,-1
EndSplineSet
EndChar

StartChar: backslash
Encoding: 92 92 80
Width: 535
Flags: W
LayerCount: 2
Fore
SplineSet
496 -23 m 1,0,-1
 420 -23 l 1,1,-1
 53 1255 l 1,2,-1
 124 1255 l 1,3,-1
 496 -23 l 1,0,-1
EndSplineSet
EndChar

StartChar: bracketright
Encoding: 93 93 81
Width: 522
Flags: W
LayerCount: 2
Fore
SplineSet
342 1255 m 1,0,-1
 342 -23 l 1,1,-1
 100 -23 l 1,2,-1
 100 40 l 1,3,-1
 261 40 l 1,4,-1
 261 1193 l 1,5,-1
 100 1193 l 1,6,-1
 100 1255 l 1,7,-1
 342 1255 l 1,0,-1
EndSplineSet
EndChar

StartChar: asciicircum
Encoding: 94 94 82
Width: 891
Flags: W
LayerCount: 2
Fore
SplineSet
822 761 m 1,0,-1
 750 761 l 1,1,-1
 449 1186 l 1,2,-1
 135 761 l 1,3,-1
 61 761 l 1,4,-1
 407 1255 l 1,5,-1
 492 1255 l 1,6,-1
 822 761 l 1,0,-1
EndSplineSet
EndChar

StartChar: underscore
Encoding: 95 95 83
Width: 1016
Flags: W
LayerCount: 2
Fore
SplineSet
871 -62 m 1,0,-1
 139 -62 l 1,1,-1
 139 0 l 1,2,-1
 871 0 l 1,3,-1
 871 -62 l 1,0,-1
EndSplineSet
EndChar

StartChar: grave
Encoding: 96 96 84
Width: 420
Flags: W
LayerCount: 2
Fore
SplineSet
261 985 m 1,0,-1
 104 1234 l 1,1,-1
 231 1234 l 1,2,-1
 292 985 l 1,3,-1
 261 985 l 1,0,-1
EndSplineSet
EndChar

StartChar: a
Encoding: 97 97 85
Width: 981
Flags: W
LayerCount: 2
Fore
SplineSet
120 755 m 1,0,1
 222.666666667 854 222.666666667 854 418.275641026 854 c 128,-1,2
 613.884615385 854 613.884615385 854 693.5 764 c 0,3,4
 754 695.608695652 754 695.608695652 754 593 c 2,5,-1
 754 60 l 1,6,-1
 907 60 l 1,7,-1
 907 0 l 1,8,-1
 690 0 l 1,9,-1
 674 95 l 1,10,11
 524.62962963 -14 524.62962963 -14 376.197167756 -14 c 128,-1,12
 227.764705882 -14 227.764705882 -14 153.882352941 56.7605633803 c 128,-1,13
 80 127.521126761 80 127.521126761 80 220.76056338 c 128,-1,14
 80 314 80 314 111.5 362.5 c 128,-1,15
 143 411 143 411 208.92 443 c 128,-1,16
 274.84 475 274.84 475 400.711666667 475 c 128,-1,17
 526.583333333 475 526.583333333 475 674 446 c 1,18,-1
 674 575 l 2,19,20
 674 743.329545455 674 743.329545455 535 776.5 c 0,21,22
 491 787 491 787 436 787 c 0,23,24
 246 787 246 787 156 696 c 1,25,-1
 120 755 l 1,0,1
376 53 m 0,26,27
 560.101694915 53 560.101694915 53 674 158 c 1,28,-1
 674 384 l 1,29,30
 544 410 544 410 474.5 410 c 128,-1,31
 405 410 405 410 354 407.5 c 0,32,33
 161 398.039215686 161 398.039215686 161 230 c 0,34,35
 161 113.097560976 161 113.097560976 274 69 c 0,36,37
 315 53 315 53 376 53 c 0,26,27
EndSplineSet
EndChar

StartChar: b
Encoding: 98 98 86
Width: 1169
Flags: W
LayerCount: 2
Fore
SplineSet
338 695 m 1,0,1
 472.909090909 854 472.909090909 854 722.5 854 c 0,2,3
 804 854 804 854 886 818 c 128,-1,4
 968 782 968 782 1023.5 723 c 0,5,6
 1136 603.405405405 1136 603.405405405 1136 434 c 128,-1,7
 1136 264.550724638 1136 264.550724638 1037.5 137.5 c 0,8,9
 920.04494382 -14 920.04494382 -14 700 -14 c 0,10,11
 589.285714286 -14 589.285714286 -14 485.215022091 31.5309278351 c 128,-1,12
 381.144329897 77.0618556701 381.144329897 77.0618556701 338 125 c 1,13,14
 334 93 334 93 331 62 c 128,-1,15
 328 31 328 31 325 0 c 1,16,-1
 94 0 l 1,17,-1
 94 60 l 1,18,-1
 259 60 l 1,19,-1
 259 1174 l 1,20,-1
 110 1174 l 1,21,-1
 110 1234 l 1,22,-1
 338 1234 l 1,23,-1
 338 695 l 1,0,1
1035.5 291.5 m 0,24,25
 1057 358 1057 358 1057 429 c 0,26,27
 1057 580.365591398 1057 580.365591398 958.954081633 683.682795699 c 128,-1,28
 860.908163265 787 860.908163265 787 701 787 c 0,29,30
 598.918918919 787 598.918918919 787 516.410754396 751.910320835 c 128,-1,31
 433.902589872 716.82064167 433.902589872 716.82064167 338 619 c 1,32,-1
 338 193 l 1,33,34
 440.654545455 113.157575758 440.654545455 113.157575758 506.827272727 89.5787878788 c 0,35,36
 716.300861632 14.9387734415 716.300861632 14.9387734415 853.148882099 82.8483174325 c 128,-1,37
 989.996902565 150.757861423 989.996902565 150.757861423 1035.5 291.5 c 0,24,25
EndSplineSet
EndChar

StartChar: c
Encoding: 99 99 87
Width: 936
Flags: W
LayerCount: 2
Fore
SplineSet
867 149 m 1,0,1
 704 -14 704 -14 510.405740721 -12.9582062875 c 128,-1,2
 316.811481443 -11.9164125749 316.811481443 -11.9164125749 186.905740721 108.326917679 c 128,-1,3
 57 228.570247934 57 228.570247934 57 418.519906576 c 128,-1,4
 57 608.469565217 57 608.469565217 176.748165216 729.259018826 c 128,-1,5
 296.496330432 850.048472436 296.496330432 850.048472436 500 854 c 1,6,7
 638.756756757 854 638.756756757 854 725.5 788.5 c 0,8,9
 750 770 750 770 762 750 c 1,10,-1
 762 860 l 1,11,-1
 838 860 l 1,12,-1
 838 600 l 1,13,-1
 772 600 l 1,14,15
 760.887856072 725.937631184 760.887856072 725.937631184 624.5 770.5 c 0,16,17
 574 787 574 787 502 787 c 0,18,19
 351.043010753 787 351.043010753 787 245.021505376 689.376237624 c 128,-1,20
 139 591.752475248 139 591.752475248 139 422.476237624 c 128,-1,21
 139 253.2 139 253.2 246.137748756 154.633271144 c 128,-1,22
 353.275497512 56.0665422886 353.275497512 56.0665422886 502.637748756 55.0332711443 c 128,-1,23
 652 54 652 54 772 148.5 c 0,24,25
 812 180 812 180 844 222 c 1,26,-1
 867 149 l 1,0,1
EndSplineSet
EndChar

StartChar: d
Encoding: 100 100 88
Width: 1165
Flags: W
LayerCount: 2
Fore
SplineSet
924 1234 m 1,0,-1
 924 60 l 1,1,-1
 1089 60 l 1,2,-1
 1089 0 l 1,3,-1
 858 0 l 1,4,-1
 845 125 l 1,5,6
 771.248593926 43.0539932508 771.248593926 43.0539932508 602.5 0.5 c 0,7,8
 545 -14 545 -14 474 -14 c 128,-1,9
 403 -14 403 -14 340 5.5 c 128,-1,10
 277 25 277 25 228.5 59 c 0,11,12
 137.229617304 122.983361065 137.229617304 122.983361065 92.1148086522 224.491680532 c 128,-1,13
 47 326 47 326 47 419.5 c 0,14,15
 47 603.405405405 47 603.405405405 164.86440678 728.702702703 c 128,-1,16
 282.728813559 854 282.728813559 854 486 854 c 0,17,18
 649.724137931 854 649.724137931 854 778.5 757 c 0,19,20
 817 728 817 728 845 695 c 1,21,-1
 845 1174 l 1,22,-1
 641 1174 l 1,23,-1
 641 1234 l 1,24,-1
 924 1234 l 1,0,-1
218.896226415 164.897727273 m 128,-1,26
 311.79245283 53 311.79245283 53 466.099930119 53 c 128,-1,27
 620.407407407 53 620.407407407 53 744 124 c 0,28,29
 791 151 791 151 845 193 c 1,30,-1
 845 619 l 1,31,32
 708.446614932 758.28445277 708.446614932 758.28445277 573.5 780 c 0,33,34
 530 787 530 787 464.5 787 c 128,-1,35
 399 787 399 787 333.5 758.5 c 128,-1,36
 268 730 268 730 221.5 681 c 0,37,38
 126 580.365591398 126 580.365591398 126 428.580522972 c 128,-1,25
 126 276.795454545 126 276.795454545 218.896226415 164.897727273 c 128,-1,26
EndSplineSet
EndChar

StartChar: e
Encoding: 101 101 89
Width: 934
Flags: W
LayerCount: 2
Fore
SplineSet
867 149 m 1,0,1
 694.523255814 -14 694.523255814 -14 500.541800321 -14 c 0,2,3
 306.560344828 -14 306.560344828 -14 181.780172414 109.713675214 c 0,4,5
 57 233.427350427 57 233.427350427 57 414.713675214 c 0,6,7
 57 596 57 596 175.426229508 725 c 0,8,9
 293.852459016 854 293.852459016 854 504 854 c 0,10,11
 680.516129032 854 680.516129032 854 785.258064516 722.808080808 c 0,12,13
 890 591.616161616 890 591.616161616 890 400 c 1,14,-1
 139 400 l 1,15,16
 150.457574583 233.865168539 150.457574583 233.865168539 249.751775797 142.93258427 c 0,17,18
 349.045977011 52 349.045977011 52 488 52 c 0,19,20
 690.216216216 52 690.216216216 52 834 204 c 1,21,-1
 867 149 l 1,0,1
812 466 m 1,22,23
 799.027830189 600.045754717 799.027830189 600.045754717 718.154364533 693.522877358 c 0,24,25
 637.280898876 787 637.280898876 787 488.640449438 787 c 0,26,27
 340 787 340 787 243.767857143 690.767857143 c 0,28,29
 147.535714286 594.535714286 147.535714286 594.535714286 141 466 c 1,30,-1
 812 466 l 1,22,23
EndSplineSet
EndChar

StartChar: f
Encoding: 102 102 90
Width: 643
Flags: W
LayerCount: 2
Fore
SplineSet
106 60 m 1,0,-1
 261 60 l 1,1,-1
 261 779 l 1,2,-1
 106 779 l 1,3,-1
 106 836 l 1,4,-1
 261 836 l 1,5,-1
 261 1064 l 2,6,7
 261 1142.46808511 261 1142.46808511 311.023255814 1188.23404255 c 128,-1,8
 361.046511628 1234 361.046511628 1234 426.047065338 1234 c 128,-1,9
 491.047619048 1234 491.047619048 1234 523.523809524 1203 c 0,10,11
 582.114594595 1147.07243243 582.114594595 1147.07243243 584 1066 c 1,12,-1
 509 1066 l 1,13,14
 509 1120 509 1120 485.5 1146 c 128,-1,15
 462 1172 462 1172 437.5 1172 c 0,16,17
 393.962962963 1172 393.962962963 1172 366.981481481 1142.86 c 128,-1,18
 340 1113.72 340 1113.72 340 1066 c 2,19,-1
 340 836 l 1,20,-1
 543 836 l 1,21,-1
 543 779 l 1,22,-1
 340 779 l 1,23,-1
 340 60 l 1,24,-1
 531 60 l 1,25,-1
 531 0 l 1,26,-1
 106 0 l 1,27,-1
 106 60 l 1,0,-1
EndSplineSet
EndChar

StartChar: g
Encoding: 103 103 91
Width: 1110
Flags: W
LayerCount: 2
Fore
SplineSet
831 120 m 1,0,1
 701.785714286 -14 701.785714286 -14 462.5 -14 c 0,2,3
 382 -14 382 -14 301 23 c 128,-1,4
 220 60 220 60 166 121 c 0,5,6
 57 244.12962963 57 244.12962963 57 414.282636597 c 128,-1,7
 57 584.435643564 57 584.435643564 154.5 708 c 0,8,9
 269.703125 854 269.703125 854 480 854 c 0,10,11
 587.785714286 854 587.785714286 854 687.501119251 808.967236467 c 128,-1,12
 787.216524217 763.934472934 787.216524217 763.934472934 831 715 c 1,13,-1
 844 840 l 1,14,-1
 1074 840 l 1,15,-1
 1074 780 l 1,16,-1
 910 780 l 1,17,-1
 910 29 l 2,18,19
 910 -204.45 910 -204.45 717 -272 c 0,20,21
 606.36329588 -310.722846442 606.36329588 -310.722846442 477.68164794 -313.861423221 c 128,-1,22
 349 -317 349 -317 261 -317 c 1,23,-1
 261 -248 l 1,24,-1
 410.5 -248 l 2,25,26
 659.689655172 -248 659.689655172 -248 745.344827586 -181.76 c 128,-1,27
 831 -115.52 831 -115.52 831 12 c 2,28,-1
 831 120 l 1,0,1
234.732137548 157.113894669 m 128,-1,30
 330.346938776 53 330.346938776 53 484 53 c 0,31,32
 584.379310345 53 584.379310345 53 661.358189462 79.8962348723 c 128,-1,33
 738.337068579 106.792469745 738.337068579 106.792469745 831 190 c 1,34,-1
 831 647 l 1,35,36
 728.908222812 727.902917772 728.908222812 727.902917772 648.84120818 757.451458886 c 128,-1,37
 568.774193548 787 568.774193548 787 478.887096774 787 c 128,-1,38
 389 787 389 787 324.5 754 c 128,-1,39
 260 721 260 721 218 668 c 0,40,41
 134.836098208 563.055076311 134.836098208 563.055076311 136.976717265 412.141432825 c 128,-1,29
 139.117336321 261.227789339 139.117336321 261.227789339 234.732137548 157.113894669 c 128,-1,30
EndSplineSet
EndChar

StartChar: h
Encoding: 104 104 92
Width: 1198
Flags: W
LayerCount: 2
Fore
SplineSet
86 1176 m 1,0,-1
 86 1234 l 1,1,-1
 338 1234 l 1,2,-1
 338 736 l 1,3,4
 457.0625 802.145833333 457.0625 802.145833333 529.479525862 828.072916667 c 128,-1,5
 601.896551724 854 601.896551724 854 685.948275862 854 c 0,6,7
 833.362318841 854 833.362318841 854 896.68115942 783.532258065 c 128,-1,8
 960 713.064516129 960 713.064516129 960 617 c 2,9,-1
 960 60 l 1,10,-1
 1135 60 l 1,11,-1
 1135 0 l 1,12,-1
 723 0 l 1,13,-1
 723 60 l 1,14,-1
 881 60 l 1,15,-1
 881 601 l 2,16,17
 881 688.785714286 881 688.785714286 852.5 723.392857143 c 0,18,19
 800.117647059 787 800.117647059 787 696.758823529 787 c 128,-1,20
 593.4 787 593.4 787 523.157746479 757.732394366 c 128,-1,21
 452.915492958 728.464788732 452.915492958 728.464788732 338 664 c 1,22,-1
 338 60 l 1,23,-1
 530 60 l 1,24,-1
 530 0 l 1,25,-1
 97 0 l 1,26,-1
 97 60 l 1,27,-1
 259 60 l 1,28,-1
 259 1176 l 1,29,-1
 86 1176 l 1,0,-1
EndSplineSet
EndChar

StartChar: i
Encoding: 105 105 93
Width: 582
Flags: W
LayerCount: 2
Fore
SplineSet
301 1205 m 256,0,1
 333 1205 333 1205 348.5 1187.5 c 128,-1,2
 364 1170 364 1170 364 1149 c 0,3,4
 364 1128 364 1128 348 1110 c 128,-1,5
 332 1092 332 1092 300.5 1092 c 0,6,7
 269 1092 269 1092 254 1110 c 128,-1,8
 239 1128 239 1128 239 1149 c 0,9,10
 239 1170 239 1170 254 1187.5 c 128,-1,11
 269 1205 269 1205 301 1205 c 256,0,1
115 776 m 1,12,-1
 115 836 l 1,13,-1
 344 836 l 1,14,-1
 344 60 l 1,15,-1
 498 60 l 1,16,-1
 498 0 l 1,17,-1
 115 0 l 1,18,-1
 115 60 l 1,19,-1
 265 60 l 1,20,-1
 265 776 l 1,21,-1
 115 776 l 1,12,-1
EndSplineSet
EndChar

StartChar: j
Encoding: 106 106 94
Width: 408
Flags: W
LayerCount: 2
Fore
SplineSet
162 779 m 1,0,-1
 25 779 l 1,1,-1
 25 836 l 1,2,-1
 241 836 l 1,3,-1
 241 -22 l 2,4,5
 241 -144.75 241 -144.75 217.5 -185.875 c 0,6,7
 168.857142857 -271 168.857142857 -271 27 -271 c 2,8,-1
 -53 -271 l 1,9,-1
 -53 -211 l 1,10,-1
 25 -211 l 2,11,12
 118.711111111 -211 118.711111111 -211 145 -165.5 c 0,13,14
 162 -136.076923077 162 -136.076923077 162 -34 c 2,15,-1
 162 779 l 1,0,-1
192 1205 m 256,16,17
 224 1205 224 1205 239 1187.5 c 128,-1,18
 254 1170 254 1170 254 1149 c 128,-1,19
 254 1128 254 1128 238.5 1110 c 128,-1,20
 223 1092 223 1092 191.5 1092 c 128,-1,21
 160 1092 160 1092 145 1110 c 128,-1,22
 130 1128 130 1128 130 1149 c 128,-1,23
 130 1170 130 1170 145 1187.5 c 128,-1,24
 160 1205 160 1205 192 1205 c 256,16,17
EndSplineSet
EndChar

StartChar: k
Encoding: 107 107 95
Width: 1124
Flags: W
LayerCount: 2
Fore
SplineSet
94 1174 m 1,0,-1
 94 1234 l 1,1,-1
 359 1234 l 1,2,-1
 359 454 l 1,3,-1
 753 776 l 1,4,-1
 629 776 l 1,5,-1
 629 836 l 1,6,-1
 1014 836 l 1,7,-1
 1014 776 l 1,8,-1
 855 776 l 1,9,-1
 452 439 l 1,10,-1
 898 60 l 1,11,-1
 1049 60 l 1,12,-1
 1049 0 l 1,13,-1
 666 0 l 1,14,-1
 666 60 l 1,15,-1
 789 60 l 1,16,-1
 359 431 l 1,17,-1
 359 60 l 1,18,-1
 543 60 l 1,19,-1
 543 0 l 1,20,-1
 94 0 l 1,21,-1
 94 60 l 1,22,-1
 280 60 l 1,23,-1
 280 1174 l 1,24,-1
 94 1174 l 1,0,-1
EndSplineSet
EndChar

StartChar: l
Encoding: 108 108 96
Width: 612
Flags: W
LayerCount: 2
Fore
SplineSet
94 1174 m 1,0,-1
 94 1234 l 1,1,-1
 359 1234 l 1,2,-1
 359 60 l 1,3,-1
 543 60 l 1,4,-1
 543 0 l 1,5,-1
 94 0 l 1,6,-1
 94 60 l 1,7,-1
 280 60 l 1,8,-1
 280 1174 l 1,9,-1
 94 1174 l 1,0,-1
EndSplineSet
EndChar

StartChar: m
Encoding: 109 109 97
Width: 1659
Flags: W
LayerCount: 2
Fore
SplineSet
858 727 m 1,0,1
 1041.44444444 854 1041.44444444 854 1195 854 c 0,2,3
 1307.2173913 854 1307.2173913 854 1359.60869565 783.117647059 c 0,4,5
 1412 712.235294118 1412 712.235294118 1412 617 c 2,6,-1
 1412 60 l 1,7,-1
 1588 60 l 1,8,-1
 1588 0 l 1,9,-1
 1176 0 l 1,10,-1
 1176 60 l 1,11,-1
 1333 60 l 1,12,-1
 1333 601 l 2,13,14
 1333 691.0625 1333 691.0625 1312 724.53125 c 0,15,16
 1272.80392157 787 1272.80392157 787 1188.40196078 787 c 0,17,18
 1104 787 1104 787 1041.55813953 757.860465116 c 0,19,20
 979.11627907 728.720930233 979.11627907 728.720930233 875 664 c 1,21,22
 878 640 878 640 878 617 c 2,23,-1
 878 60 l 1,24,-1
 1054 60 l 1,25,-1
 1054 0 l 1,26,-1
 642 0 l 1,27,-1
 642 60 l 1,28,-1
 799 60 l 1,29,-1
 799 601 l 2,30,31
 799 691.0625 799 691.0625 778 724.53125 c 0,32,33
 738.803921569 787 738.803921569 787 654.601960784 787 c 0,34,35
 570.4 787 570.4 787 510.745454545 758.785012285 c 0,36,37
 451.090909091 730.57002457 451.090909091 730.57002457 344 664 c 1,38,-1
 344 60 l 1,39,-1
 500 60 l 1,40,-1
 500 0 l 1,41,-1
 103 0 l 1,42,-1
 103 60 l 1,43,-1
 265 60 l 1,44,-1
 265 779 l 1,45,-1
 92 779 l 1,46,-1
 92 836 l 1,47,-1
 332 836 l 1,48,-1
 341 736 l 1,49,50
 446.623188406 802.014492754 446.623188406 802.014492754 512.949525237 828.007246377 c 0,51,52
 579.275862069 854 579.275862069 854 661 854 c 0,53,54
 804.269230769 854 804.269230769 854 858 727 c 1,0,1
EndSplineSet
EndChar

StartChar: n
Encoding: 110 110 98
Width: 1202
Flags: W
LayerCount: 2
Fore
SplineSet
101 779 m 1,0,-1
 101 836 l 1,1,-1
 349 836 l 1,2,-1
 357 736 l 1,3,4
 500.195620438 830.448175182 500.195620438 830.448175182 613 847.5 c 0,5,6
 656 854 656 854 716.5 854 c 0,7,8
 837.231884058 854 837.231884058 854 897.615942029 783.381355932 c 128,-1,9
 958 712.762711864 958 712.762711864 958 617 c 2,10,-1
 958 60 l 1,11,-1
 1133 60 l 1,12,-1
 1133 0 l 1,13,-1
 722 0 l 1,14,-1
 722 60 l 1,15,-1
 879 60 l 1,16,-1
 879 601 l 2,17,18
 879 688.692307692 879 688.692307692 852.5 723.346153846 c 0,19,20
 803.823529412 787 803.823529412 787 702.814990512 787 c 128,-1,21
 601.806451613 787 601.806451613 787 523.698945651 757.107003891 c 128,-1,22
 445.591439689 727.214007782 445.591439689 727.214007782 361 668 c 1,23,-1
 361 60 l 1,24,-1
 543 60 l 1,25,-1
 543 0 l 1,26,-1
 100 0 l 1,27,-1
 100 60 l 1,28,-1
 281 60 l 1,29,-1
 281 779 l 1,30,-1
 101 779 l 1,0,-1
EndSplineSet
EndChar

StartChar: o
Encoding: 111 111 99
Width: 1004
Flags: W
LayerCount: 2
Fore
SplineSet
767.384615385 690.266666667 m 128,-1,1
 655.769230769 787 655.769230769 787 506.983516484 787 c 128,-1,2
 358.197802198 787 358.197802198 787 248.598901099 690.169902913 c 128,-1,3
 139 593.339805825 139 593.339805825 139 421.611650485 c 128,-1,4
 139 249.883495146 139 249.883495146 248.02688172 151.441747573 c 128,-1,5
 357.053763441 53 357.053763441 53 506.994623656 53 c 128,-1,6
 656.935483871 53 656.935483871 53 767.967741935 151.342857143 c 128,-1,7
 879 249.685714286 879 249.685714286 879 421.60952381 c 128,-1,0
 879 593.533333333 879 593.533333333 767.384615385 690.266666667 c 128,-1,1
824 102.015625 m 128,-1,9
 689 -14 689 -14 506.572727273 -14 c 128,-1,10
 324.145454545 -14 324.145454545 -14 190.572727273 102.611111111 c 128,-1,11
 57 219.222222222 57 219.222222222 57 422.53968254 c 128,-1,12
 57 625.857142857 57 625.857142857 190.083333333 739.928571429 c 128,-1,13
 323.166666667 854 323.166666667 854 506 854 c 128,-1,14
 689 854 689 854 824 740.09375 c 128,-1,15
 959 626.1875 959 626.1875 959 422.109375 c 128,-1,8
 959 218.03125 959 218.03125 824 102.015625 c 128,-1,9
EndSplineSet
EndChar

StartChar: p
Encoding: 112 112 100
Width: 1120
Flags: W
LayerCount: 2
Fore
SplineSet
53 -322 m 1,0,-1
 53 -262 l 1,1,-1
 202 -262 l 1,2,-1
 202 780 l 1,3,-1
 37 780 l 1,4,-1
 37 840 l 1,5,-1
 268 840 l 1,6,-1
 281 715 l 1,7,8
 359.851473241 798.232110643 359.851473241 798.232110643 523.5 839.5 c 0,9,10
 581 854 581 854 652 854 c 128,-1,11
 723 854 723 854 786 834.5 c 128,-1,12
 849 815 849 815 897.5 781 c 0,13,14
 988.770382696 717.016638935 988.770382696 717.016638935 1033.88519135 615.508319468 c 128,-1,15
 1079 514 1079 514 1079 420.5 c 0,16,17
 1079 236.594594595 1079 236.594594595 961.13559322 111.297297297 c 128,-1,18
 843.271186441 -14 843.271186441 -14 640 -14 c 0,19,20
 476.275862069 -14 476.275862069 -14 347.5 83 c 0,21,22
 309 112 309 112 281 145 c 1,23,-1
 281 -262 l 1,24,-1
 428 -262 l 1,25,-1
 428 -322 l 1,26,-1
 53 -322 l 1,0,-1
907.103773585 675.102272727 m 128,-1,28
 814.20754717 787 814.20754717 787 659.900069881 787 c 128,-1,29
 505.592592593 787 505.592592593 787 382 716 c 0,30,31
 335 689 335 689 281 647 c 1,32,-1
 281 221 l 1,33,34
 417.553385068 81.7155472304 417.553385068 81.7155472304 552.5 60 c 0,35,36
 596 53 596 53 661 53 c 128,-1,37
 726 53 726 53 792 81.5 c 128,-1,38
 858 110 858 110 904.5 159 c 0,39,40
 1000 259.634408602 1000 259.634408602 1000 411.419477028 c 128,-1,27
 1000 563.204545455 1000 563.204545455 907.103773585 675.102272727 c 128,-1,28
EndSplineSet
EndChar

StartChar: q
Encoding: 113 113 101
Width: 1141
Flags: W
LayerCount: 2
Fore
SplineSet
855 97 m 1,0,1
 719.869565217 -14 719.869565217 -14 471 -14 c 0,2,3
 389 -14 389 -14 307 22 c 128,-1,4
 225 58 225 58 169.5 117 c 0,5,6
 57 236.594594595 57 236.594594595 57 406 c 128,-1,7
 57 575.449275362 57 575.449275362 155.5 702.5 c 0,8,9
 272.95505618 854 272.95505618 854 493 854 c 0,10,11
 604.714285714 854 604.714285714 854 708.170656371 808.737837838 c 128,-1,12
 811.627027027 763.475675676 811.627027027 763.475675676 855 715 c 1,13,-1
 869 840 l 1,14,-1
 1099 840 l 1,15,-1
 1099 780 l 1,16,-1
 935 780 l 1,17,-1
 935 -262 l 1,18,-1
 1083 -262 l 1,19,-1
 1083 -322 l 1,20,-1
 708 -322 l 1,21,-1
 708 -262 l 1,22,-1
 855 -262 l 1,23,-1
 855 97 l 1,0,1
234.255102041 156.597826087 m 128,-1,25
 331.510204082 53 331.510204082 53 492 53 c 0,26,27
 600.52173913 53 600.52173913 53 682.847868115 74.764378927 c 128,-1,28
 765.1739971 96.528757854 765.1739971 96.528757854 855 163 c 1,29,-1
 855 647 l 1,30,31
 752.795665635 726.492260062 752.795665635 726.492260062 668.865574753 756.746130031 c 128,-1,32
 584.935483871 787 584.935483871 787 492.967741935 787 c 128,-1,33
 401 787 401 787 334.5 754 c 128,-1,34
 268 721 268 721 224 668 c 0,35,36
 137 563.204545455 137 563.204545455 137 411.700098814 c 128,-1,24
 137 260.195652174 137 260.195652174 234.255102041 156.597826087 c 128,-1,25
EndSplineSet
EndChar

StartChar: r
Encoding: 114 114 102
Width: 748
Flags: W
LayerCount: 2
Fore
SplineSet
546 60 m 1,0,-1
 546 0 l 1,1,-1
 100 0 l 1,2,-1
 100 60 l 1,3,-1
 284 60 l 1,4,-1
 284 779 l 1,5,-1
 101 779 l 1,6,-1
 101 836 l 1,7,-1
 351 836 l 1,8,-1
 363 652 l 1,9,10
 388 744 388 744 447 799 c 128,-1,11
 506 854 506 854 586.5 854 c 128,-1,12
 667 854 667 854 756 814 c 1,13,-1
 744 746 l 1,14,15
 660 787 660 787 600 787 c 0,16,17
 487.463414634 787 487.463414634 787 425.231707317 701.95 c 128,-1,18
 363 616.9 363 616.9 363 468 c 2,19,-1
 363 60 l 1,20,-1
 546 60 l 1,0,-1
EndSplineSet
EndChar

StartChar: s
Encoding: 115 115 103
Width: 874
Flags: W
LayerCount: 2
Fore
SplineSet
684 695 m 1,0,1
 609.545454545 786 609.545454545 786 443.5 786 c 0,2,3
 350.875 786 350.875 786 282.9375 744.192307692 c 128,-1,4
 215 702.384615385 215 702.384615385 215 620.103021978 c 128,-1,5
 215 537.821428571 215 537.821428571 308 503.5 c 0,6,7
 353.157894737 486.834586466 353.157894737 486.834586466 461.078947368 471.417293233 c 128,-1,8
 569 456 569 456 622.5 443 c 0,9,10
 811 397.196261682 811 397.196261682 811 223 c 0,11,12
 811 109.021052632 811 109.021052632 710.25 47.5105263158 c 128,-1,13
 609.5 -14 609.5 -14 475 -14 c 0,14,15
 284 -14 284 -14 197 73 c 1,16,-1
 197 0 l 1,17,-1
 129 0 l 1,18,-1
 129 268 l 1,19,-1
 197 268 l 1,20,-1
 197 168 l 1,21,22
 237.438574423 84.2343815514 237.438574423 84.2343815514 391.5 60 c 0,23,24
 436 53 436 53 482.5 53 c 0,25,26
 584 53 584 53 657.5 97.1 c 128,-1,27
 731 141.2 731 141.2 731 224.1 c 128,-1,28
 731 307 731 307 672.894710071 344.487283825 c 128,-1,29
 614.789420142 381.97456765 614.789420142 381.97456765 513.894710071 393.487283825 c 0,30,31
 313.231607345 416.384196328 313.231607345 416.384196328 236 455 c 0,32,33
 133 506.5 133 506.5 133 621.045180723 c 128,-1,34
 133 735.590361446 133 735.590361446 220.008928571 794.295180723 c 128,-1,35
 307.017857143 853 307.017857143 853 452.425595238 853 c 128,-1,36
 597.833333333 853 597.833333333 853 684 776 c 1,37,-1
 684 836 l 1,38,-1
 754 836 l 1,39,-1
 754 572 l 1,40,-1
 684 572 l 1,41,-1
 684 695 l 1,0,1
EndSplineSet
EndChar

StartChar: t
Encoding: 116 116 104
Width: 547
Flags: W
LayerCount: 2
Fore
SplineSet
37 781 m 1,0,-1
 37 836 l 1,1,-1
 162 836 l 1,2,-1
 162 1148 l 1,3,-1
 241 1166 l 1,4,-1
 241 836 l 1,5,-1
 440 836 l 1,6,-1
 440 781 l 1,7,-1
 241 781 l 1,8,-1
 241 238 l 2,9,10
 241 134.923076923 241 134.923076923 256 108.961538462 c 0,11,12
 284.288888889 60 284.288888889 60 378 60 c 2,13,-1
 456 60 l 1,14,-1
 456 0 l 1,15,-1
 375 0 l 2,16,17
 178.04494382 0 178.04494382 0 165.5 159.5 c 0,18,19
 162 204 162 204 162 250 c 2,20,-1
 162 781 l 1,21,-1
 37 781 l 1,0,-1
EndSplineSet
EndChar

StartChar: u
Encoding: 117 117 105
Width: 1102
Flags: W
LayerCount: 2
Fore
SplineSet
1036 58 m 1,0,-1
 1036 0 l 1,1,-1
 796 0 l 1,2,-1
 788 104 l 1,3,4
 678.786516854 38.4719101124 678.786516854 38.4719101124 608.220844634 12.2359550562 c 128,-1,5
 537.655172414 -14 537.655172414 -14 456.827586207 -14 c 0,6,7
 313.014492754 -14 313.014492754 -14 251.007246377 56.1393442623 c 128,-1,8
 189 126.278688525 189 126.278688525 189 223 c 2,9,-1
 189 776 l 1,10,-1
 14 776 l 1,11,-1
 14 836 l 1,12,-1
 268 836 l 1,13,-1
 268 239 l 2,14,15
 268 150.414634146 268 150.414634146 295.5 116.207317073 c 0,16,17
 346.31372549 53 346.31372549 53 446.020499109 53 c 128,-1,18
 545.727272727 53 545.727272727 53 618.839364519 83.932038835 c 128,-1,19
 691.951456311 114.86407767 691.951456311 114.86407767 784 173 c 1,20,-1
 784 776 l 1,21,-1
 610 776 l 1,22,-1
 610 836 l 1,23,-1
 863 836 l 1,24,-1
 863 58 l 1,25,-1
 1036 58 l 1,0,-1
EndSplineSet
EndChar

StartChar: v
Encoding: 118 118 106
Width: 1032
Flags: W
LayerCount: 2
Fore
SplineSet
217 776 m 1,0,-1
 519 71 l 1,1,-1
 797 776 l 1,2,-1
 654 776 l 1,3,-1
 654 836 l 1,4,-1
 1046 836 l 1,5,-1
 1046 776 l 1,6,-1
 887 776 l 1,7,-1
 567 0 l 1,8,-1
 477 0 l 1,9,-1
 135 776 l 1,10,-1
 -29 776 l 1,11,-1
 -29 836 l 1,12,-1
 369 836 l 1,13,-1
 369 776 l 1,14,-1
 217 776 l 1,0,-1
EndSplineSet
EndChar

StartChar: w
Encoding: 119 119 107
Width: 1554
Flags: W
LayerCount: 2
Fore
SplineSet
217 776 m 1,0,-1
 463 65 l 1,1,-1
 724 776 l 1,2,-1
 581 776 l 1,3,-1
 581 836 l 1,4,-1
 961 836 l 1,5,-1
 961 776 l 1,6,-1
 815 776 l 1,7,-1
 1078 65 l 1,8,-1
 1316 776 l 1,9,-1
 1174 776 l 1,10,-1
 1174 836 l 1,11,-1
 1566 836 l 1,12,-1
 1566 776 l 1,13,-1
 1406 776 l 1,14,-1
 1127 0 l 1,15,-1
 1037 0 l 1,16,-1
 774 710 l 1,17,-1
 509 0 l 1,18,-1
 419 0 l 1,19,-1
 139 776 l 1,20,-1
 -25 776 l 1,21,-1
 -25 836 l 1,22,-1
 370 836 l 1,23,-1
 370 776 l 1,24,-1
 217 776 l 1,0,-1
EndSplineSet
EndChar

StartChar: x
Encoding: 120 120 108
Width: 1182
Flags: W
LayerCount: 2
Fore
SplineSet
327 776 m 1,0,-1
 577 481 l 1,1,-1
 824 776 l 1,2,-1
 676 776 l 1,3,-1
 676 836 l 1,4,-1
 1073 836 l 1,5,-1
 1073 776 l 1,6,-1
 914 776 l 1,7,-1
 623 426 l 1,8,-1
 933 60 l 1,9,-1
 1084 60 l 1,10,-1
 1084 0 l 1,11,-1
 689 0 l 1,12,-1
 689 60 l 1,13,-1
 853 60 l 1,14,-1
 584 378 l 1,15,-1
 321 60 l 1,16,-1
 459 60 l 1,17,-1
 459 0 l 1,18,-1
 76 0 l 1,19,-1
 76 60 l 1,20,-1
 226 60 l 1,21,-1
 537 433 l 1,22,-1
 249 776 l 1,23,-1
 100 776 l 1,24,-1
 100 836 l 1,25,-1
 484 836 l 1,26,-1
 484 776 l 1,27,-1
 327 776 l 1,0,-1
EndSplineSet
EndChar

StartChar: y
Encoding: 121 121 109
Width: 1026
Flags: W
LayerCount: 2
Fore
SplineSet
139 -206 m 1,0,-1
 192 -206 l 2,1,2
 295.5 -206 295.5 -206 334.25 -193.5 c 0,3,4
 407.761506276 -169.786610879 407.761506276 -169.786610879 437 -104 c 2,5,-1
 507 58 l 1,6,-1
 451 58 l 1,7,-1
 131 776 l 1,8,-1
 -33 776 l 1,9,-1
 -33 836 l 1,10,-1
 366 836 l 1,11,-1
 366 776 l 1,12,-1
 218 776 l 1,13,-1
 517 89 l 1,14,-1
 793 776 l 1,15,-1
 650 776 l 1,16,-1
 650 836 l 1,17,-1
 1043 836 l 1,18,-1
 1043 776 l 1,19,-1
 884 776 l 1,20,-1
 510 -127 l 2,21,22
 468.557398234 -227.903726039 468.557398234 -227.903726039 369 -256.5 c 0,23,24
 308.074074074 -274 308.074074074 -274 139 -274 c 1,25,-1
 139 -206 l 1,0,-1
EndSplineSet
EndChar

StartChar: z
Encoding: 122 122 110
Width: 909
Flags: W
LayerCount: 2
Fore
SplineSet
106 0 m 1,0,-1
 106 67 l 1,1,-1
 682 776 l 1,2,-1
 211 776 l 1,3,-1
 211 583 l 1,4,-1
 142 583 l 1,5,-1
 142 836 l 1,6,-1
 765 836 l 1,7,-1
 765 764 l 1,8,-1
 196 58 l 1,9,-1
 714 58 l 1,10,-1
 714 277 l 1,11,-1
 783 277 l 1,12,-1
 783 0 l 1,13,-1
 106 0 l 1,0,-1
EndSplineSet
EndChar

StartChar: braceleft
Encoding: 123 123 111
Width: 555
Flags: W
LayerCount: 2
Fore
SplineSet
68 658 m 1,0,1
 172.362068966 658 172.362068966 658 197.5 712 c 0,2,3
 216 751.740740741 216 751.740740741 216 867.87037037 c 128,-1,4
 216 984 216 984 218 1047.5 c 128,-1,5
 220 1111 220 1111 238 1157 c 0,6,7
 276.347826087 1255 276.347826087 1255 410 1255 c 2,8,-1
 475 1255 l 1,9,-1
 475 1201 l 1,10,11
 367.071428571 1201 367.071428571 1201 341.535714286 1173.5 c 128,-1,12
 316 1146 316 1146 308.5 1107 c 128,-1,13
 301 1068 301 1068 301 989.5 c 0,14,15
 301 795.714285714 301 795.714285714 279 719.5 c 0,16,17
 250.756966651 621.658063042 250.756966651 621.658063042 164 616 c 1,18,19
 250.905063291 610.332278481 250.905063291 610.332278481 279 512 c 0,20,21
 301 435 301 435 301 299.5 c 128,-1,22
 301 164 301 164 308.5 125.5 c 128,-1,23
 316 87 316 87 335.5 66 c 0,24,25
 368 31 368 31 475 31 c 1,26,-1
 475 -23 l 1,27,-1
 410 -23 l 2,28,29
 282.060240964 -23 282.060240964 -23 242 64.5 c 0,30,31
 216 121.289473684 216 121.289473684 216 246.144736842 c 128,-1,32
 216 371 216 371 215 425.5 c 128,-1,33
 214 480 214 480 200.5 513 c 128,-1,34
 187 546 187 546 156.5 560 c 128,-1,35
 126 574 126 574 68 574 c 1,36,-1
 68 658 l 1,0,1
EndSplineSet
EndChar

StartChar: bar
Encoding: 124 124 112
Width: 426
Flags: W
LayerCount: 2
Fore
SplineSet
178 1255 m 1,0,-1
 246 1255 l 1,1,-1
 246 -23 l 1,2,-1
 178 -23 l 1,3,-1
 178 1255 l 1,0,-1
EndSplineSet
EndChar

StartChar: braceright
Encoding: 125 125 113
Width: 557
Flags: W
LayerCount: 2
Fore
SplineSet
493 574 m 1,0,1
 389.637931034 574 389.637931034 574 364.5 520 c 0,2,3
 346 480.259259259 346 480.259259259 346 364.12962963 c 128,-1,4
 346 248 346 248 344 184.5 c 128,-1,5
 342 121 342 121 324 75 c 0,6,7
 285.652173913 -23 285.652173913 -23 151 -23 c 2,8,-1
 86 -23 l 1,9,-1
 86 31 l 1,10,11
 194 31 194 31 227 66.5384615385 c 128,-1,12
 260 102.076923077 260 102.076923077 260 211.538461538 c 0,13,14
 260 435.965517241 260 435.965517241 282.5 512 c 0,15,16
 311.627912237 610.432255146 311.627912237 610.432255146 397 616 c 1,17,18
 311.781714286 621.557714286 311.781714286 621.557714286 282.5 719.5 c 0,19,20
 260 794.75862069 260 794.75862069 260 931.379310345 c 128,-1,21
 260 1068 260 1068 253 1107 c 128,-1,22
 246 1146 246 1146 220.464285714 1173.5 c 128,-1,23
 194.928571429 1201 194.928571429 1201 86 1201 c 1,24,-1
 86 1255 l 1,25,-1
 151 1255 l 2,26,27
 280.493975904 1255 280.493975904 1255 319.5 1167.5 c 0,28,29
 346 1108.05405405 346 1108.05405405 346 984.027027027 c 128,-1,30
 346 860 346 860 347 806 c 128,-1,31
 348 752 348 752 361 719 c 0,32,33
 385.03030303 658 385.03030303 658 493 658 c 1,34,-1
 493 574 l 1,0,1
EndSplineSet
EndChar

StartChar: asciitilde
Encoding: 126 126 114
Width: 788
Flags: W
LayerCount: 2
Fore
SplineSet
291.5 1061.5 m 128,-1,1
 256 1069 256 1069 215.65 1069 c 128,-1,2
 175.3 1069 175.3 1069 163 1028 c 1,3,-1
 125 1028 l 1,4,5
 133 1096 133 1096 167 1126.5 c 128,-1,6
 201 1157 201 1157 246.5 1157 c 0,7,8
 305.823529412 1157 305.823529412 1157 409.5 1133.5 c 128,-1,9
 513.176470588 1110 513.176470588 1110 561.063235294 1110 c 128,-1,10
 608.95 1110 608.95 1110 624 1153 c 1,11,-1
 661 1153 l 1,12,13
 654 1092 654 1092 622.5 1057 c 128,-1,14
 591 1022 591 1022 540 1022 c 128,-1,15
 489 1022 489 1022 446.5 1029.5 c 128,-1,16
 404 1037 404 1037 365.5 1045.5 c 128,-1,0
 327 1054 327 1054 291.5 1061.5 c 128,-1,1
EndSplineSet
EndChar

StartChar: exclamdown
Encoding: 161 161 115
Width: 430
Flags: W
LayerCount: 2
Fore
SplineSet
164 1171 m 1,0,-1
 269 1171 l 1,1,-1
 269 1066 l 1,2,-1
 164 1066 l 1,3,-1
 164 1171 l 1,0,-1
231 827 m 1,4,-1
 260 362 l 1,5,-1
 260 0 l 1,6,-1
 164 0 l 1,7,-1
 164 362 l 1,8,-1
 200 827 l 1,9,-1
 231 827 l 1,4,-1
EndSplineSet
EndChar

StartChar: cent
Encoding: 162 162 116
Width: 950
Flags: W
LayerCount: 2
Fore
SplineSet
865 149 m 1,0,1
 702 -14 702 -14 494 -14 c 1,2,3
 439 -12 439 -12 392 -1 c 1,4,-1
 331 -214 l 1,5,-1
 268 -214 l 1,6,-1
 335 15 l 1,7,8
 211.859060403 60.1516778523 211.859060403 60.1516778523 133.429530201 166.815838926 c 128,-1,9
 55 273.48 55 273.48 55 416 c 0,10,11
 55 608.469565217 55 608.469565217 174.748165216 729.259018826 c 128,-1,12
 294.496330432 850.048472436 294.496330432 850.048472436 498 854 c 0,13,14
 532.666666667 854 532.666666667 854 577 847 c 1,15,-1
 640 1064 l 1,16,-1
 698 1064 l 1,17,-1
 632 834 l 1,18,19
 723.726603575 806.677181914 723.726603575 806.677181914 760 750 c 1,20,-1
 760 860 l 1,21,-1
 836 860 l 1,22,-1
 836 600 l 1,23,-1
 770 600 l 1,24,25
 754.384317522 735.335914811 754.384317522 735.335914811 614 773 c 1,26,-1
 411 65 l 1,27,28
 455 54 455 54 500.5 54 c 0,29,30
 596.5 54 596.5 54 688.23245614 97.2894736842 c 128,-1,31
 779.964912281 140.578947368 779.964912281 140.578947368 842 222 c 1,32,-1
 865 149 l 1,0,1
558 783 m 1,33,34
 530 787 530 787 479 787 c 128,-1,35
 428 787 428 787 363 763.5 c 128,-1,36
 298 740 298 740 247.5 693.5 c 0,37,38
 137 591.752475248 137 591.752475248 137 413.138737624 c 128,-1,39
 137 234.525 137 234.525 268 133 c 0,40,41
 308 102 308 102 355 83 c 1,42,-1
 558 783 l 1,33,34
EndSplineSet
EndChar

StartChar: sterling
Encoding: 163 163 117
Width: 1096
Flags: W
LayerCount: 2
Fore
SplineSet
785 -29 m 0,0,1
 628 -29 628 -29 526 107 c 1,2,3
 488.366039953 18.0470035253 488.366039953 18.0470035253 389.5 -22 c 0,4,5
 327.78125 -47 327.78125 -47 266.890625 -47 c 0,6,7
 156.52173913 -47 156.52173913 -47 102.760869565 0.557692307692 c 128,-1,8
 49 48.1153846154 49 48.1153846154 49 107.557692308 c 0,9,10
 49 207.590163934 49 207.590163934 113.056818182 253.795081967 c 128,-1,11
 177.113636364 300 177.113636364 300 253.556818182 300 c 0,12,13
 410.043478261 300 410.043478261 300 481 204 c 1,14,15
 491 252 491 252 491 301 c 0,16,17
 491 421.307692308 491 421.307692308 432 562 c 1,18,-1
 184 562 l 1,19,-1
 184 611 l 1,20,-1
 407 611 l 1,21,22
 387 650 387 650 366 690 c 128,-1,23
 345 730 345 730 318 797.909090909 c 128,-1,24
 291 865.818181818 291 865.818181818 291 938.909090909 c 0,25,26
 291 1088.27472527 291 1088.27472527 384.654320988 1171.63736264 c 128,-1,27
 478.308641975 1255 478.308641975 1255 638.154320988 1255 c 128,-1,28
 798 1255 798 1255 878.5 1178.5 c 128,-1,29
 959 1102 959 1102 959 968 c 1,30,-1
 883 968 l 1,31,32
 883 1189 883 1189 649 1189 c 0,33,34
 378 1189 378 1189 378 954 c 0,35,36
 378 870.756756757 378 870.756756757 407.5 805.378378378 c 128,-1,37
 437 740 437 740 460 698.5 c 128,-1,38
 483 657 483 657 507 611 c 1,39,-1
 882 611 l 1,40,-1
 882 562 l 1,41,-1
 523 562 l 1,42,43
 569 432.363636364 569 432.363636364 569 333.181818182 c 128,-1,44
 569 234 569 234 543 156 c 1,45,46
 630.322033898 44 630.322033898 44 780 44 c 0,47,48
 965 44 965 44 965 262 c 1,49,-1
 1015 262 l 1,50,51
 1018 239 1018 239 1018 202 c 0,52,53
 1018 108 1018 108 957.803030303 39.5 c 128,-1,54
 897.606060606 -29 897.606060606 -29 785 -29 c 0,0,1
283.5 244 m 0,55,56
 169.340425532 244 169.340425532 244 132 176.5 c 0,57,58
 119 153 119 153 119 121.5 c 0,59,60
 119 64.5128205128 119 64.5128205128 161.5 34 c 0,61,62
 224.129945694 -10.9650892164 224.129945694 -10.9650892164 309.147424196 11.8754273959 c 0,63,64
 439.978851964 47.0241691843 439.978851964 47.0241691843 466 154 c 1,65,66
 431 197 431 197 378 220.5 c 128,-1,67
 325 244 325 244 283.5 244 c 0,55,56
EndSplineSet
EndChar

StartChar: currency
Encoding: 164 164 118
Width: 1073
Flags: W
LayerCount: 2
Fore
SplineSet
242 982 m 256,0,1
 242 833.344827586 242 833.344827586 334.018518519 747.672413793 c 0,2,3
 426.037037037 662 426.037037037 662 552.768518519 662 c 0,4,5
 679.5 662 679.5 662 773.25 746.269662921 c 0,6,7
 867 830.539325843 867 830.539325843 867 982 c 256,8,9
 867 1133.46067416 867 1133.46067416 773.25 1217.73033708 c 0,10,11
 679.5 1302 679.5 1302 552.768518519 1302 c 0,12,13
 426.037037037 1302 426.037037037 1302 334.018518519 1216.32758621 c 0,14,15
 242 1130.65517241 242 1130.65517241 242 982 c 256,0,1
796 667 m 1,16,17
 674 596 674 596 556.142857143 596 c 128,-1,18
 438.285714286 596 438.285714286 596 320 665 c 1,19,-1
 223 562 l 1,20,-1
 166 611 l 1,21,-1
 268 712 l 1,22,23
 169 820.9 169 820.9 169 978 c 256,24,25
 169 1135.18 169 1135.18 268 1252 c 1,26,-1
 166 1353 l 1,27,-1
 223 1402 l 1,28,-1
 320 1299 l 1,29,30
 437 1368 437 1368 550.571428571 1368 c 128,-1,31
 664.142857143 1368 664.142857143 1368 796 1297 c 1,32,-1
 893 1403 l 1,33,-1
 945 1353 l 1,34,-1
 840 1250 l 1,35,36
 933 1127.31914894 933 1127.31914894 933 984 c 256,37,38
 933 842.617021277 933 842.617021277 840 714 c 1,39,-1
 945 611 l 1,40,-1
 893 561 l 1,41,-1
 796 667 l 1,16,17
EndSplineSet
EndChar

StartChar: yen
Encoding: 165 165 119
Width: 1266
Flags: W
LayerCount: 2
Fore
SplineSet
1014 226 m 1,0,-1
 678 226 l 1,1,-1
 678 62 l 1,2,-1
 838 62 l 1,3,-1
 838 0 l 1,4,-1
 435 0 l 1,5,-1
 435 62 l 1,6,-1
 596 62 l 1,7,-1
 596 226 l 1,8,-1
 265 226 l 1,9,-1
 265 288 l 1,10,-1
 596 288 l 1,11,-1
 596 433 l 1,12,-1
 265 433 l 1,13,-1
 265 496 l 1,14,-1
 560 496 l 1,15,-1
 154 1171 l 1,16,-1
 -4 1171 l 1,17,-1
 -4 1234 l 1,18,-1
 399 1234 l 1,19,-1
 399 1171 l 1,20,-1
 242 1171 l 1,21,-1
 639 508 l 1,22,-1
 1029 1171 l 1,23,-1
 870 1171 l 1,24,-1
 870 1234 l 1,25,-1
 1273 1234 l 1,26,-1
 1273 1171 l 1,27,-1
 1117 1171 l 1,28,-1
 714 496 l 1,29,-1
 1014 496 l 1,30,-1
 1014 433 l 1,31,-1
 678 433 l 1,32,-1
 678 288 l 1,33,-1
 1014 288 l 1,34,-1
 1014 226 l 1,0,-1
EndSplineSet
EndChar

StartChar: brokenbar
Encoding: 166 166 120
Width: 414
Flags: W
LayerCount: 2
Fore
SplineSet
172 1255 m 1,0,-1
 240 1255 l 1,1,-1
 240 715 l 1,2,-1
 172 715 l 1,3,-1
 172 1255 l 1,0,-1
172 517 m 1,4,-1
 240 517 l 1,5,-1
 172 -23 l 1,6,-1
 172 517 l 1,4,-1
EndSplineSet
EndChar

StartChar: section
Encoding: 167 167 121
Width: 963
Flags: W
LayerCount: 2
Fore
SplineSet
261 782 m 1,0,1
 156 835.571428571 156 835.571428571 156 938.5 c 0,2,3
 156 1040.5060241 156 1040.5060241 242.885416667 1090.75301205 c 128,-1,4
 329.770833333 1141 329.770833333 1141 475.302083333 1141 c 128,-1,5
 620.833333333 1141 620.833333333 1141 707 1064 c 1,6,-1
 707 1124 l 1,7,-1
 777 1124 l 1,8,-1
 777 896 l 1,9,-1
 707 896 l 1,10,-1
 707 983 l 1,11,12
 632.545454545 1074 632.545454545 1074 466.5 1074 c 0,13,14
 374.451612903 1074 374.451612903 1074 306.225806452 1041.46153846 c 128,-1,15
 238 1008.92307692 238 1008.92307692 238 954.961538462 c 128,-1,16
 238 901 238 901 263.5 874.5 c 128,-1,17
 289 848 289 848 331 832.5 c 128,-1,18
 373 817 373 817 426.5 809 c 128,-1,19
 480 801 480 801 536 793 c 0,20,21
 675.685714286 773.044897959 675.685714286 773.044897959 741 736.5 c 0,22,23
 834 684.464285714 834 684.464285714 833.003980892 573.94711101 c 128,-1,24
 832.007961783 463.429936306 832.007961783 463.429936306 730 407 c 1,25,26
 826 351.533333333 826 351.533333333 826 248 c 0,27,28
 826 107.744 826 107.744 649.5 55.5 c 0,29,30
 587 37 587 37 498 37 c 0,31,32
 308 37 308 37 220 125 c 1,33,-1
 220 52 l 1,34,-1
 152 52 l 1,35,-1
 152 283 l 1,36,-1
 220 283 l 1,37,-1
 220 220 l 1,38,39
 259.791649093 137.574441164 259.791649093 137.574441164 414.5 111.5 c 0,40,41
 459 104 459 104 511.5 104 c 0,42,43
 617.25 104 617.25 104 683.125 146.5 c 128,-1,44
 749 189 749 189 749 241 c 128,-1,45
 749 293 749 293 723.5 320.5 c 128,-1,46
 698 348 698 348 656.5 364 c 128,-1,47
 615 380 615 380 561.5 389 c 128,-1,48
 508 398 508 398 452.5 406 c 0,49,50
 312.220472441 426.220472441 312.220472441 426.220472441 248.5 460 c 0,51,52
 156 509.036144578 156 509.036144578 156 618.174322289 c 128,-1,53
 156 727.3125 156 727.3125 261 782 c 1,0,1
674 439 m 1,54,55
 754 474.789473684 754 474.789473684 754 569 c 0,56,57
 754 674.725274725 754 674.725274725 593.5 710 c 0,58,59
 538.994091581 721.979320532 538.994091581 721.979320532 449.49704579 734.489660266 c 128,-1,60
 360 747 360 747 324 758 c 1,61,62
 288 744 288 744 263 707.5 c 128,-1,63
 238 671 238 671 238 623.5 c 128,-1,64
 238 576 238 576 257.5 551.5 c 128,-1,65
 277 527 277 527 310 511 c 0,66,67
 363.540516474 485.04096171 363.540516474 485.04096171 492.184236731 467.800050747 c 128,-1,68
 620.827956989 450.559139785 620.827956989 450.559139785 674 439 c 1,54,55
EndSplineSet
EndChar

StartChar: dieresis
Encoding: 168 168 122
Width: 608
Flags: W
LayerCount: 2
Fore
SplineSet
473 1046 m 1,0,-1
 473 940 l 1,1,-1
 373 940 l 1,2,-1
 373 1046 l 1,3,-1
 473 1046 l 1,0,-1
231 1046 m 1,4,-1
 231 940 l 1,5,-1
 131 940 l 1,6,-1
 131 1046 l 1,7,-1
 231 1046 l 1,4,-1
EndSplineSet
EndChar

StartChar: copyright
Encoding: 169 169 123
Width: 1458
Flags: W
LayerCount: 2
Fore
SplineSet
1040 379 m 1,0,1
 903.890410959 241 903.890410959 241 739.572720272 242.039349112 c 128,-1,2
 575.255029586 243.078698225 575.255029586 243.078698225 466.127514793 343.64719225 c 128,-1,3
 357 444.215686275 357 444.215686275 357 603.566176471 c 128,-1,4
 357 762.916666667 357 762.916666667 457.470842333 865.480651548 c 128,-1,5
 557.941684665 968.044636429 557.941684665 968.044636429 730 972 c 1,6,7
 811 972 811 972 866.5 949.5 c 128,-1,8
 922 927 922 927 945 895 c 1,9,-1
 945 977 l 1,10,-1
 1016 977 l 1,11,-1
 1016 754 l 1,12,-1
 955 754 l 1,13,14
 943.808928571 858.45 943.808928571 858.45 832.5 896 c 0,15,16
 791 910 791 910 732 910 c 0,17,18
 606 910 606 910 519.5 827.719512195 c 128,-1,19
 433 745.43902439 433 745.43902439 433 606.948427858 c 128,-1,20
 433 468.457831325 433 468.457831325 521.097402597 386.728915663 c 128,-1,21
 609.194805195 305 609.194805195 305 732.465327126 305 c 128,-1,22
 855.735849057 305 855.735849057 305 957.5 385.5 c 0,23,24
 991 412 991 412 1018 448 c 1,25,-1
 1040 379 l 1,0,1
308.460606061 1024.16901408 m 128,-1,27
 158 849.338028169 158 849.338028169 158 612.345070423 c 128,-1,28
 158 375.352112676 158 375.352112676 306.687116564 204.676056338 c 128,-1,29
 455.374233129 34 455.374233129 34 724.84565315 34 c 128,-1,30
 994.317073171 34 994.317073171 34 1146.65853659 207.5 c 128,-1,31
 1299 381 1299 381 1299 617 c 256,32,33
 1299 849.354166667 1299 849.354166667 1146.42727273 1024.17708333 c 128,-1,34
 993.854545455 1199 993.854545455 1199 726.387878788 1199 c 128,-1,26
 458.921212121 1199 458.921212121 1199 308.460606061 1024.16901408 c 128,-1,27
728 -23 m 256,35,36
 422.917355372 -23 422.917355372 -23 254.458677686 167.5 c 128,-1,37
 86 358 86 358 86 616 c 256,38,39
 86 872.859813084 86 872.859813084 247.5 1057 c 0,40,41
 357.260717141 1182.14773356 357.260717141 1182.14773356 533 1232.5 c 0,42,43
 622 1258 622 1258 728.5 1258 c 128,-1,44
 835 1258 835 1258 924 1232.5 c 128,-1,45
 1013 1207 1013 1207 1084.5 1162.5 c 0,46,47
 1222.78172589 1076.43654822 1222.78172589 1076.43654822 1296.39086294 929.218274112 c 128,-1,48
 1370 782 1370 782 1370 616 c 256,49,50
 1370 358 1370 358 1201.54132231 167.5 c 128,-1,51
 1033.08264463 -23 1033.08264463 -23 728 -23 c 256,35,36
EndSplineSet
EndChar

StartChar: ordfeminine
Encoding: 170 170 124
Width: 805
Flags: W
LayerCount: 2
Fore
SplineSet
533 708 m 1,0,1
 434.59375 641 434.59375 641 331.888711735 641 c 128,-1,2
 229.183673469 641 229.183673469 641 176.091836735 692.009803922 c 128,-1,3
 123 743.019607843 123 743.019607843 123 810.509803922 c 0,4,5
 123 926.191780822 123 926.191780822 204.5 967.5 c 0,6,7
 260.72972973 996 260.72972973 996 351.989864865 996 c 128,-1,8
 443.25 996 443.25 996 531 978 c 1,9,-1
 531 1055 l 2,10,11
 531 1132 531 1132 489.5 1162 c 128,-1,12
 448 1192 448 1192 376 1192 c 0,13,14
 249 1192 249 1192 183 1123 c 1,15,-1
 147 1181 l 1,16,17
 222.804878049 1255 222.804878049 1255 362.884581882 1255 c 128,-1,18
 502.964285714 1255 502.964285714 1255 561 1190 c 0,19,20
 604 1141.84 604 1141.84 604 1067 c 2,21,-1
 604 710 l 1,22,-1
 710 710 l 1,23,-1
 710 650 l 1,24,-1
 542 650 l 1,25,-1
 533 708 l 1,0,1
335 706 m 0,26,27
 456.315789474 706 456.315789474 706 531 772 c 1,28,-1
 531 917 l 1,29,30
 471 932 471 932 414 932 c 0,31,32
 298 932 298 932 262 918.5 c 0,33,34
 197 894.125 197 894.125 197 818.741745283 c 128,-1,35
 197 743.358490566 197 743.358490566 269.5 716 c 0,36,37
 296 706 296 706 335 706 c 0,26,27
EndSplineSet
EndChar

StartChar: guillemotleft
Encoding: 171 171 125
Width: 778
Flags: W
LayerCount: 2
Fore
SplineSet
616 1043 m 1,0,-1
 664 1043 l 1,1,-1
 451 664 l 1,2,-1
 664 281 l 1,3,-1
 616 281 l 1,4,-1
 343 664 l 1,5,-1
 616 1043 l 1,0,-1
348 1043 m 1,6,-1
 396 1043 l 1,7,-1
 184 664 l 1,8,-1
 396 281 l 1,9,-1
 348 281 l 1,10,-1
 76 664 l 1,11,-1
 348 1043 l 1,6,-1
EndSplineSet
EndChar

StartChar: logicalnot
Encoding: 172 172 126
Width: 987
Flags: W
LayerCount: 2
Fore
SplineSet
838 697 m 1,0,-1
 838 304 l 1,1,-1
 761 304 l 1,2,-1
 761 617 l 1,3,-1
 100 617 l 1,4,-1
 100 697 l 1,5,-1
 838 697 l 1,0,-1
EndSplineSet
EndChar

StartChar: registered
Encoding: 174 174 128
Width: 1458
Flags: W
LayerCount: 2
Fore
SplineSet
411 316 m 1,0,-1
 497 316 l 1,1,-1
 497 931 l 1,2,-1
 404 931 l 1,3,-1
 404 988 l 1,4,-1
 782 988 l 2,5,6
 884.214285714 988 884.214285714 988 941.107142857 929 c 128,-1,7
 998 870 998 870 998 790 c 0,8,9
 998 666.5 998 666.5 888 611.5 c 0,10,11
 851 593 851 593 802 590 c 1,12,-1
 970 316 l 1,13,-1
 1072 316 l 1,14,-1
 1072 258 l 1,15,-1
 921 258 l 1,16,-1
 724 590 l 1,17,-1
 566 590 l 1,18,-1
 566 316 l 1,19,-1
 662 316 l 1,20,-1
 662 258 l 1,21,-1
 411 258 l 1,22,-1
 411 316 l 1,0,-1
566 648 m 1,23,-1
 782 648 l 2,24,25
 851.615384615 648 851.615384615 648 892.307692308 689.763157895 c 128,-1,26
 933 731.526315789 933 731.526315789 933 772.763157895 c 0,27,28
 933 846 933 846 892.625 888.5 c 128,-1,29
 852.25 931 852.25 931 782 931 c 2,30,-1
 566 931 l 1,31,-1
 566 648 l 1,23,-1
308.460606061 1024.16901408 m 128,-1,33
 158 849.338028169 158 849.338028169 158 612.345070423 c 128,-1,34
 158 375.352112676 158 375.352112676 306.687116564 204.676056338 c 128,-1,35
 455.374233129 34 455.374233129 34 724.84565315 34 c 128,-1,36
 994.317073171 34 994.317073171 34 1146.65853659 207.5 c 128,-1,37
 1299 381 1299 381 1299 617 c 256,38,39
 1299 849.354166667 1299 849.354166667 1146.42727273 1024.17708333 c 128,-1,40
 993.854545455 1199 993.854545455 1199 726.387878788 1199 c 128,-1,32
 458.921212121 1199 458.921212121 1199 308.460606061 1024.16901408 c 128,-1,33
728 -23 m 256,41,42
 422.917355372 -23 422.917355372 -23 254.458677686 167.5 c 128,-1,43
 86 358 86 358 86 616 c 256,44,45
 86 872.859813084 86 872.859813084 247.5 1057 c 0,46,47
 357.260717141 1182.14773356 357.260717141 1182.14773356 533 1232.5 c 0,48,49
 622 1258 622 1258 728.5 1258 c 128,-1,50
 835 1258 835 1258 924 1232.5 c 128,-1,51
 1013 1207 1013 1207 1084.5 1162.5 c 0,52,53
 1222.78172589 1076.43654822 1222.78172589 1076.43654822 1296.39086294 929.218274112 c 128,-1,54
 1370 782 1370 782 1370 616 c 256,55,56
 1370 358 1370 358 1201.54132231 167.5 c 128,-1,57
 1033.08264463 -23 1033.08264463 -23 728 -23 c 256,41,42
EndSplineSet
EndChar

StartChar: macron
Encoding: 175 175 129
Width: 662
Flags: W
LayerCount: 2
Fore
SplineSet
131 1123 m 1,0,-1
 522 1123 l 1,1,-1
 522 1058 l 1,2,-1
 131 1058 l 1,3,-1
 131 1123 l 1,0,-1
EndSplineSet
EndChar

StartChar: degree
Encoding: 176 176 130
Width: 813
Flags: W
LayerCount: 2
Fore
SplineSet
413 1239 m 256,0,1
 277.52173913 1239 277.52173913 1239 231.5 1129.5 c 0,2,3
 217 1095 217 1095 217 1052 c 256,4,5
 217 967.326923077 217 967.326923077 271.295918367 916.163461538 c 0,6,7
 325.591836735 865 325.591836735 865 413 865 c 256,8,9
 548.47826087 865 548.47826087 865 594.5 974.5 c 0,10,11
 609 1009 609 1009 609 1052 c 256,12,13
 609 1136.67307692 609 1136.67307692 554.704081633 1187.83653846 c 0,14,15
 500.408163265 1239 500.408163265 1239 413 1239 c 256,0,1
413 768 m 256,16,17
 291.112676056 768 291.112676056 768 198.556338028 843.534482759 c 0,18,19
 106 919.068965517 106 919.068965517 106 1052 c 256,20,21
 106 1184.93103448 106 1184.93103448 198.556338028 1260.46551724 c 0,22,23
 291.112676056 1336 291.112676056 1336 413 1336 c 256,24,25
 534.887323944 1336 534.887323944 1336 627.443661972 1260.46551724 c 0,26,27
 720 1184.93103448 720 1184.93103448 720 1052 c 256,28,29
 720 919.068965517 720 919.068965517 627.443661972 843.534482759 c 0,30,31
 534.887323944 768 534.887323944 768 413 768 c 256,16,17
EndSplineSet
EndChar

StartChar: plusminus
Encoding: 177 177 131
Width: 901
Flags: W
LayerCount: 2
Fore
SplineSet
840 0 m 1,0,-1
 66 0 l 1,1,-1
 66 62 l 1,2,-1
 840 62 l 1,3,-1
 840 0 l 1,0,-1
486 598 m 1,4,-1
 842 598 l 1,5,-1
 842 534 l 1,6,-1
 486 534 l 1,7,-1
 486 138 l 1,8,-1
 424 138 l 1,9,-1
 424 534 l 1,10,-1
 68 534 l 1,11,-1
 68 598 l 1,12,-1
 424 598 l 1,13,-1
 424 982 l 1,14,-1
 486 982 l 1,15,-1
 486 598 l 1,4,-1
EndSplineSet
EndChar

StartChar: twosuperior
Encoding: 178 178 132
Width: 811
Flags: W
LayerCount: 2
Fore
SplineSet
159 535 m 1,0,1
 151 570.2 151 570.2 151 627.1 c 0,2,3
 151 743.333333333 151 743.333333333 226.090909091 812.166666667 c 128,-1,4
 301.181818182 881 301.181818182 881 419.019480519 881 c 128,-1,5
 536.857142857 881 536.857142857 881 608.428571429 815.652173913 c 128,-1,6
 680 750.304347826 680 750.304347826 680 631.366459627 c 0,7,8
 680 473.818181818 680 473.818181818 339.480392157 164.254901961 c 0,9,10
 271 102 271 102 241 72 c 1,11,-1
 639 72 l 1,12,-1
 639 0 l 1,13,-1
 133 0 l 1,14,-1
 133 70 l 1,15,16
 151 88 151 88 193 125 c 128,-1,17
 235 162 235 162 287 210.5 c 0,18,19
 426.399727149 340.517053206 426.399727149 340.517053206 514.199863574 449.312874429 c 128,-1,20
 602 558.108695652 602 558.108695652 602 639.554347826 c 128,-1,21
 602 721 602 721 554 766.5 c 128,-1,22
 506 812 506 812 418 812 c 0,23,24
 284.071428571 812 284.071428571 812 238.5 702 c 0,25,26
 224 667 224 667 224 630.9 c 128,-1,27
 224 594.8 224 594.8 237 535 c 1,28,-1
 159 535 l 1,0,1
EndSplineSet
EndChar

StartChar: threesuperior
Encoding: 179 179 133
Width: 811
Flags: W
LayerCount: 2
Fore
SplineSet
382 812 m 0,0,1
 231.774193548 812 231.774193548 812 175 702 c 1,2,-1
 109 732 l 1,3,4
 185.829268293 882 185.829268293 882 384 882 c 0,5,6
 493.440677966 882 493.440677966 882 580.220338983 818.790123457 c 128,-1,7
 667 755.580246914 667 755.580246914 667 648 c 0,8,9
 667 582 667 582 631 535 c 128,-1,10
 595 488 595 488 538 464 c 1,11,12
 606 439 606 439 644 381.5 c 128,-1,13
 682 324 682 324 682 257 c 0,14,15
 682 135.397590361 682 135.397590361 592.746376812 61.1987951807 c 128,-1,16
 503.492753623 -13 503.492753623 -13 371.730992196 -13 c 128,-1,17
 239.969230769 -13 239.969230769 -13 144.5 85.5 c 0,18,19
 113 118 113 118 92 161 c 1,20,-1
 152 200 l 1,21,22
 222.56 53 222.56 53 390 53 c 0,23,24
 477.692307692 53 477.692307692 53 541.846153846 108.6 c 128,-1,25
 606 164.2 606 164.2 606 237.6 c 128,-1,26
 606 311 606 311 579.5 346 c 128,-1,27
 553 381 553 381 502.628571429 402.5 c 128,-1,28
 452.257142857 424 452.257142857 424 320 424 c 2,29,-1
 284 424 l 1,30,-1
 284 498 l 1,31,-1
 347 498 l 2,32,33
 458.666666667 498 458.666666667 498 501.833333333 516.5 c 0,34,35
 589 553.857142857 589 553.857142857 589 639.920096852 c 128,-1,36
 589 725.983050847 589 725.983050847 527.109756098 768.991525424 c 128,-1,37
 465.219512195 812 465.219512195 812 382 812 c 0,0,1
EndSplineSet
EndChar

StartChar: acute
Encoding: 180 180 134
Width: 414
Flags: W
LayerCount: 2
Fore
SplineSet
125 985 m 1,0,-1
 184 1234 l 1,1,-1
 310 1234 l 1,2,-1
 156 985 l 1,3,-1
 125 985 l 1,0,-1
EndSplineSet
EndChar

StartChar: mu
Encoding: 181 181 135
AltUni2: 0003bc.ffffffff.0
Width: 1190
Flags: W
LayerCount: 2
Fore
SplineSet
339 40 m 1,0,-1
 339 -232 l 1,1,-1
 259 -232 l 1,2,-1
 259 776 l 1,3,-1
 84 776 l 1,4,-1
 84 836 l 1,5,-1
 338 836 l 1,6,-1
 339 208 l 1,7,8
 343.476404494 134.139325843 343.476404494 134.139325843 373.238202247 105.069662921 c 0,9,10
 426.547619048 53 426.547619048 53 521.137445887 53 c 0,11,12
 615.727272727 53 615.727272727 53 688.839364519 83.932038835 c 0,13,14
 761.951456311 114.86407767 761.951456311 114.86407767 854 173 c 1,15,-1
 854 776 l 1,16,-1
 680 776 l 1,17,-1
 680 836 l 1,18,-1
 933 836 l 1,19,-1
 933 58 l 1,20,-1
 1106 58 l 1,21,-1
 1106 0 l 1,22,-1
 866 0 l 1,23,-1
 858 104 l 1,24,25
 748.786516854 38.4719101124 748.786516854 38.4719101124 678.220844634 12.2359550562 c 0,26,27
 607.655172414 -14 607.655172414 -14 506.807586207 -14 c 128,-1,28
 405.96 -14 405.96 -14 339 40 c 1,0,-1
EndSplineSet
EndChar

StartChar: paragraph
Encoding: 182 182 136
Width: 1020
Flags: W
LayerCount: 2
Fore
SplineSet
709 661 m 1,0,-1
 513 661 l 1,1,-1
 513 -23 l 1,2,-1
 432 -23 l 1,3,-1
 432 661 l 1,4,-1
 396 661 l 2,5,6
 237.228915663 661 237.228915663 661 147.114457831 748.994117647 c 0,7,8
 57 836.988235294 57 836.988235294 57 952.011764706 c 0,9,10
 57 1067.03529412 57 1067.03529412 146.82278481 1150.51764706 c 0,11,12
 236.64556962 1234 236.64556962 1234 396 1234 c 2,13,-1
 956 1234 l 1,14,-1
 956 1171 l 1,15,-1
 790 1171 l 1,16,-1
 790 -23 l 1,17,-1
 709 -23 l 1,18,-1
 709 661 l 1,0,-1
EndSplineSet
EndChar

StartChar: periodcentered
Encoding: 183 183 137
Width: 369
Flags: W
LayerCount: 2
Fore
SplineSet
242 815 m 1,0,-1
 242 695 l 1,1,-1
 125 695 l 1,2,-1
 125 815 l 1,3,-1
 242 815 l 1,0,-1
EndSplineSet
EndChar

StartChar: cedilla
Encoding: 184 184 138
Width: 430
Flags: W
LayerCount: 2
Fore
SplineSet
336 -187.5 m 0,0,1
 336 -276 336 -276 201.25 -276 c 0,2,3
 152.5 -276 152.5 -276 100 -256 c 1,4,-1
 100 -210 l 1,5,6
 146.666666667 -224 146.666666667 -224 189.333333333 -224 c 128,-1,7
 232 -224 232 -224 232 -192 c 0,8,9
 232 -153.181818182 232 -153.181818182 131 -144 c 1,10,-1
 189 6 l 1,11,-1
 239 6 l 1,12,-1
 200 -108 l 1,13,-1
 212 -108 l 2,14,15
 273 -108 273 -108 304.5 -135.5 c 128,-1,16
 336 -163 336 -163 336 -187.5 c 0,0,1
EndSplineSet
EndChar

StartChar: onesuperior
Encoding: 185 185 139
Width: 551
Flags: W
LayerCount: 2
Fore
SplineSet
439 61 m 1,0,-1
 439 0 l 1,1,-1
 127 0 l 1,2,-1
 127 61 l 1,3,-1
 248 61 l 1,4,-1
 248 787 l 1,5,-1
 144 767 l 1,6,-1
 127 832 l 1,7,-1
 322 869 l 1,8,-1
 322 61 l 1,9,-1
 439 61 l 1,0,-1
EndSplineSet
EndChar

StartChar: ordmasculine
Encoding: 186 186 140
Width: 874
Flags: W
LayerCount: 2
Fore
SplineSet
607.467213115 1126.99275362 m 128,-1,1
 533.93442623 1192 533.93442623 1192 435 1192 c 256,2,3
 335.557377049 1192 335.557377049 1192 263.278688525 1127.16176471 c 128,-1,4
 191 1062.32352941 191 1062.32352941 191 949 c 128,-1,5
 191 835.676470588 191 835.676470588 263.278688525 770.838235294 c 128,-1,6
 335.557377049 706 335.557377049 706 435 706 c 256,7,8
 533.93442623 706 533.93442623 706 607.467213115 771.007246377 c 128,-1,9
 681 836.014492754 681 836.014492754 681 949 c 128,-1,0
 681 1061.98550725 681 1061.98550725 607.467213115 1126.99275362 c 128,-1,1
660 723.333333333 m 128,-1,11
 565 641 565 641 435 641 c 256,12,13
 306 641 306 641 211.5 722.9 c 128,-1,14
 117 804.8 117 804.8 117 949.343820225 c 128,-1,15
 117 1093.88764045 117 1093.88764045 211.335526316 1174.44382022 c 128,-1,16
 305.671052632 1255 305.671052632 1255 435 1255 c 256,17,18
 565.584415584 1255 565.584415584 1255 660.292207792 1173.97222222 c 128,-1,19
 755 1092.94444444 755 1092.94444444 755 949.305555556 c 128,-1,10
 755 805.666666667 755 805.666666667 660 723.333333333 c 128,-1,11
EndSplineSet
EndChar

StartChar: guillemotright
Encoding: 187 187 141
Width: 778
Flags: W
LayerCount: 2
Fore
SplineSet
437 664 m 1,0,-1
 165 281 l 1,1,-1
 117 281 l 1,2,-1
 329 664 l 1,3,-1
 117 1043 l 1,4,-1
 165 1043 l 1,5,-1
 437 664 l 1,0,-1
705 664 m 1,6,-1
 432 281 l 1,7,-1
 384 281 l 1,8,-1
 597 664 l 1,9,-1
 384 1043 l 1,10,-1
 432 1043 l 1,11,-1
 705 664 l 1,6,-1
EndSplineSet
EndChar

StartChar: onequarter
Encoding: 188 188 142
Width: 1348
Flags: W
LayerCount: 2
Fore
SplineSet
398 426 m 1,0,-1
 398 365 l 1,1,-1
 86 365 l 1,2,-1
 86 426 l 1,3,-1
 207 426 l 1,4,-1
 207 1152 l 1,5,-1
 103 1132 l 1,6,-1
 86 1197 l 1,7,-1
 281 1234 l 1,8,-1
 281 426 l 1,9,-1
 398 426 l 1,0,-1
717 316 m 1,10,-1
 1055 866 l 1,11,-1
 1147 866 l 1,12,-1
 1147 323 l 1,13,-1
 1325 323 l 1,14,-1
 1325 260 l 1,15,-1
 1147 260 l 1,16,-1
 1147 61 l 1,17,-1
 1259 61 l 1,18,-1
 1259 0 l 1,19,-1
 962 0 l 1,20,-1
 962 61 l 1,21,-1
 1074 61 l 1,22,-1
 1074 260 l 1,23,-1
 726 260 l 1,24,-1
 717 316 l 1,10,-1
1074 323 m 1,25,-1
 1074 768 l 1,26,27
 1006 654 1006 654 940 546 c 128,-1,28
 874 438 874 438 807 323 c 1,29,-1
 1074 323 l 1,25,-1
781 1255 m 1,30,-1
 852 1255 l 1,31,-1
 484 -23 l 1,32,-1
 409 -23 l 1,33,-1
 781 1255 l 1,30,-1
EndSplineSet
EndChar

StartChar: onehalf
Encoding: 189 189 143
Width: 1339
Flags: W
LayerCount: 2
Fore
SplineSet
398 426 m 1,0,-1
 398 365 l 1,1,-1
 86 365 l 1,2,-1
 86 426 l 1,3,-1
 207 426 l 1,4,-1
 207 1152 l 1,5,-1
 103 1132 l 1,6,-1
 86 1197 l 1,7,-1
 281 1234 l 1,8,-1
 281 426 l 1,9,-1
 398 426 l 1,0,-1
819 632.6 m 0,10,11
 819 592.2 819 592.2 830 535 c 1,12,-1
 752 535 l 1,13,14
 744 572 744 572 744 636 c 0,15,16
 744 746.070422535 744 746.070422535 821.258064516 813.535211268 c 128,-1,17
 898.516129032 881 898.516129032 881 1012 881 c 256,18,19
 1197.40860215 881 1197.40860215 881 1254.5 737.5 c 0,20,21
 1273 691 1273 691 1273 631 c 0,22,23
 1273 473 1273 473 932 164 c 0,24,25
 864 102 864 102 834 72 c 1,26,-1
 1232 72 l 1,27,-1
 1232 0 l 1,28,-1
 726 0 l 1,29,-1
 726 70 l 1,30,31
 735 79 735 79 750 92.5 c 128,-1,32
 765 106 765 106 786 125 c 0,33,34
 1195 486 1195 486 1195 640 c 0,35,36
 1195 812 1195 812 988 812 c 0,37,38
 918.52173913 812 918.52173913 812 868.760869565 763.29787234 c 128,-1,39
 819 714.595744681 819 714.595744681 819 632.6 c 0,10,11
742 1255 m 1,40,-1
 813 1255 l 1,41,-1
 445 -23 l 1,42,-1
 370 -23 l 1,43,-1
 742 1255 l 1,40,-1
EndSplineSet
EndChar

StartChar: threequarters
Encoding: 190 190 144
Width: 1315
Flags: W
LayerCount: 2
Fore
SplineSet
503 829 m 1,0,1
 647 776 647 776 647 595 c 0,2,3
 647 499.047619048 647 499.047619048 556.176470588 425.523809524 c 128,-1,4
 465.352941176 352 465.352941176 352 332.145701357 352 c 128,-1,5
 198.938461538 352 198.938461538 352 106.5 450.5 c 0,6,7
 76 483 76 483 57 526 c 1,8,-1
 117 565 l 1,9,10
 187 418 187 418 355 418 c 0,11,12
 440.705882353 418 440.705882353 418 505.852941176 473.375 c 128,-1,13
 571 528.75 571 528.75 571 603 c 256,14,15
 571 673 571 673 547.79153605 706.920062696 c 128,-1,16
 524.5830721 740.840125392 524.5830721 740.840125392 472.470867357 764.920062696 c 128,-1,17
 420.358662614 789 420.358662614 789 285 789 c 2,18,-1
 249 789 l 1,19,-1
 249 863 l 1,20,-1
 283 863 l 2,21,22
 502.5 863 502.5 863 541 940 c 0,23,24
 554 966 554 966 554 1006 c 0,25,26
 554 1087.79310345 554 1087.79310345 493.837209302 1132.39655172 c 128,-1,27
 433.674418605 1177 433.674418605 1177 347 1177 c 0,28,29
 197 1177 197 1177 140 1067 c 1,30,-1
 74 1097 l 1,31,32
 150 1247 150 1247 349 1247 c 0,33,34
 462.557377049 1247 462.557377049 1247 547.278688525 1181.58227848 c 128,-1,35
 632 1116.16455696 632 1116.16455696 632 999.582278481 c 128,-1,36
 632 883 632 883 503 829 c 1,0,1
927 316 m 1,37,-1
 1265 866 l 1,38,-1
 1357 866 l 1,39,-1
 1357 323 l 1,40,-1
 1535 323 l 1,41,-1
 1535 260 l 1,42,-1
 1357 260 l 1,43,-1
 1357 61 l 1,44,-1
 1469 61 l 1,45,-1
 1469 0 l 1,46,-1
 1172 0 l 1,47,-1
 1172 61 l 1,48,-1
 1284 61 l 1,49,-1
 1284 260 l 1,50,-1
 936 260 l 1,51,-1
 927 316 l 1,37,-1
1284 323 m 1,52,-1
 1284 768 l 1,53,54
 1216 654 1216 654 1150 546 c 128,-1,55
 1084 438 1084 438 1017 323 c 1,56,-1
 1284 323 l 1,52,-1
1015 1255 m 1,57,-1
 1086 1255 l 1,58,-1
 718 -23 l 1,59,-1
 643 -23 l 1,60,-1
 1015 1255 l 1,57,-1
EndSplineSet
EndChar

StartChar: questiondown
Encoding: 191 191 145
Width: 692
Flags: W
LayerCount: 2
Fore
SplineSet
683 160 m 1,0,1
 606.75 -23 606.75 -23 372.5 -23 c 0,2,3
 246.846153846 -23 246.846153846 -23 153.923076923 60.3103448276 c 128,-1,4
 61 143.620689655 61 143.620689655 61 280.935344828 c 128,-1,5
 61 418.25 61 418.25 159 507.5 c 0,6,7
 187 533 187 533 216.5 558.5 c 0,8,9
 292.015444015 623.776061776 292.015444015 623.776061776 336.498008779 698.840389815 c 128,-1,10
 380.980573543 773.904717854 380.980573543 773.904717854 390 911 c 1,11,-1
 423 911 l 1,12,13
 423 656.287671233 423 656.287671233 280.5 525.5 c 0,14,15
 187.804622496 440.423420647 187.804622496 440.423420647 162.902311248 391.211710324 c 128,-1,16
 138 342 138 342 138 287.5 c 0,17,18
 138 181.966101695 138 181.966101695 200.261904762 115.483050847 c 128,-1,19
 262.523809524 49 262.523809524 49 368.261904762 49 c 0,20,21
 560.938461538 49 560.938461538 49 622 196 c 1,22,-1
 683 160 l 1,0,1
354 1223 m 1,23,-1
 438 1223 l 1,24,-1
 438 1144 l 1,25,-1
 354 1144 l 1,26,-1
 354 1223 l 1,23,-1
EndSplineSet
EndChar

StartChar: AE
Encoding: 198 198 152
Width: 1970
Flags: W
LayerCount: 2
Fore
SplineSet
918 1164 m 1,0,-1
 1012 666 l 1,1,-1
 1444 666 l 1,2,-1
 1414 824 l 1,3,-1
 1481 824 l 1,4,-1
 1555 424 l 1,5,-1
 1488 424 l 1,6,-1
 1457 596 l 1,7,-1
 1025 596 l 1,8,-1
 1123 70 l 1,9,-1
 1806 70 l 1,10,-1
 1750 376 l 1,11,-1
 1827 376 l 1,12,-1
 1896 0 l 1,13,-1
 868 0 l 1,14,-1
 880 62 l 1,15,-1
 1038 62 l 1,16,-1
 961 503 l 1,17,-1
 486 503 l 1,18,-1
 244 62 l 1,19,-1
 402 62 l 1,20,-1
 390 0 l 1,21,-1
 -12 0 l 1,22,-1
 0 62 l 1,23,-1
 157 62 l 1,24,-1
 781 1171 l 1,25,-1
 623 1171 l 1,26,-1
 635 1234 l 1,27,-1
 1645 1234 l 1,28,-1
 1715 858 l 1,29,-1
 1638 858 l 1,30,-1
 1582 1164 l 1,31,-1
 918 1164 l 1,0,-1
519 564 m 1,32,-1
 918 564 l 1,33,-1
 845 1153 l 1,34,-1
 519 564 l 1,32,-1
EndSplineSet
EndChar

StartChar: Eth
Encoding: 208 208 162
Width: 1434
Flags: W
LayerCount: 2
Fore
SplineSet
791 1234 m 2,0,1
 1049.88983051 1234 1049.88983051 1234 1192.94491525 1048.5 c 0,2,3
 1336 863 1336 863 1336 613.434306569 c 0,4,5
 1336 363.868613139 1336 363.868613139 1191.92485549 181.934306569 c 0,6,7
 1047.84971098 1.42108547152e-14 1047.84971098 1.42108547152e-14 791 0 c 2,8,-1
 98 0 l 1,9,-1
 98 62 l 1,10,-1
 264 62 l 1,11,-1
 264 1171 l 1,12,-1
 98 1171 l 1,13,-1
 98 1234 l 1,14,-1
 791 1234 l 2,0,1
346 1171 m 1,15,-1
 346 62 l 1,16,-1
 790 62 l 2,17,18
 1009.96794872 62 1009.96794872 62 1130.98397436 226.160869565 c 0,19,20
 1252 390.32173913 1252 390.32173913 1252 615.160869565 c 0,21,22
 1252 840 1252 840 1130.63333333 1005.5 c 0,23,24
 1009.26666667 1171 1009.26666667 1171 790 1171 c 2,25,-1
 346 1171 l 1,15,-1
109 662 m 1,26,-1
 500 662 l 1,27,-1
 500 597 l 1,28,-1
 109 597 l 1,29,-1
 109 662 l 1,26,-1
EndSplineSet
EndChar

StartChar: multiply
Encoding: 215 215 169
Width: 637
Flags: W
LayerCount: 2
Fore
SplineSet
122 812 m 1,0,-1
 325 610 l 1,1,-1
 529 814 l 1,2,-1
 573 769 l 1,3,-1
 371 565 l 1,4,-1
 573 361 l 1,5,-1
 529 317 l 1,6,-1
 325 521 l 1,7,-1
 122 318 l 1,8,-1
 78 362 l 1,9,-1
 281 565 l 1,10,-1
 78 768 l 1,11,-1
 122 812 l 1,0,-1
EndSplineSet
EndChar

StartChar: Oslash
Encoding: 216 216 170
Width: 1440
Flags: W
LayerCount: 2
Fore
SplineSet
1118 1131 m 1,0,-1
 1204 1242 l 1,1,-1
 1250 1210 l 1,2,-1
 1160 1095 l 1,3,4
 1362 909.16 1362 909.16 1362 613 c 0,5,6
 1362 354.5 1362 354.5 1193.2849162 165.75 c 128,-1,7
 1024.5698324 -23 1024.5698324 -23 722 -23 c 0,8,9
 517 -23 517 -23 365 72 c 1,10,-1
 276 -42 l 1,11,-1
 228 -8 l 1,12,-1
 317 105 l 1,13,14
 142.890609602 240.746304378 142.890609602 240.746304378 96.5 469.5 c 0,15,16
 82 541 82 541 82 617 c 128,-1,17
 82 693 82 693 100 772 c 128,-1,18
 118 851 118 851 153.5 922 c 0,19,20
 229.005128205 1073.01025641 229.005128205 1073.01025641 374.187957361 1164.00512821 c 128,-1,21
 519.370786517 1255 519.370786517 1255 737.444013948 1255 c 128,-1,22
 955.517241379 1255 955.517241379 1255 1118 1131 c 1,0,-1
1069 1069 m 1,23,24
 923.403846154 1182 923.403846154 1182 722 1182 c 0,25,26
 458.777777778 1182 458.777777778 1182 312.388888889 1012 c 128,-1,27
 166 842 166 842 166 626.198630137 c 128,-1,28
 166 410.397260274 166 410.397260274 276.5 256 c 0,29,30
 313 205 313 205 363 165 c 1,31,-1
 1069 1069 l 1,23,24
411 131 m 1,32,33
 542.948717949 48 542.948717949 48 719.205128205 48 c 128,-1,34
 895.461538462 48 895.461538462 48 1021.67782805 127.394117647 c 128,-1,35
 1147.89411765 206.788235294 1147.89411765 206.788235294 1212.94705882 336.894117647 c 128,-1,36
 1278 467 1278 467 1278 598 c 0,37,38
 1278 866.012048193 1278 866.012048193 1111 1031 c 1,39,-1
 411 131 l 1,32,33
EndSplineSet
EndChar

StartChar: Thorn
Encoding: 222 222 176
Width: 1130
Flags: W
LayerCount: 2
Fore
SplineSet
338 1042 m 1,0,-1
 736 1042 l 2,1,2
 898.6 1042 898.6 1042 986.3 953.255952381 c 0,3,4
 1074 864.511904762 1074 864.511904762 1074 739.050070028 c 0,5,6
 1074 613.588235294 1074 613.588235294 983.055555556 517.294117647 c 0,7,8
 892.111111111 421 892.111111111 421 736 421 c 2,9,-1
 338 421 l 1,10,-1
 338 62 l 1,11,-1
 508 62 l 1,12,-1
 508 0 l 1,13,-1
 104 0 l 1,14,-1
 104 62 l 1,15,-1
 257 62 l 1,16,-1
 257 1171 l 1,17,-1
 106 1171 l 1,18,-1
 106 1234 l 1,19,-1
 493 1234 l 1,20,-1
 493 1171 l 1,21,-1
 338 1171 l 1,22,-1
 338 1042 l 1,0,-1
338 486 m 1,23,-1
 736 486 l 2,24,25
 856.277777778 486 856.277777778 486 925.638888889 562.830769231 c 0,26,27
 995 639.661538462 995 639.661538462 995 739.853846154 c 0,28,29
 995 840.046153846 995 840.046153846 927.597014925 909.523076923 c 0,30,31
 860.194029851 979 860.194029851 979 736 979 c 2,32,-1
 338 979 l 1,33,-1
 338 486 l 1,23,-1
EndSplineSet
EndChar

StartChar: germandbls
Encoding: 223 223 177
Width: 1081
Flags: W
LayerCount: 2
Fore
SplineSet
214 851 m 2,0,1
 214 1255 214 1255 563 1255 c 0,2,3
 722.904761905 1255 722.904761905 1255 817.952380952 1165.29213483 c 128,-1,4
 913 1075.58426966 913 1075.58426966 913 958 c 0,5,6
 913 796.506024096 913 796.506024096 796.5 716.5 c 0,7,8
 755 688 755 688 694 676 c 1,9,10
 852.884615385 670.115384615 852.884615385 670.115384615 950.442307692 572.557692308 c 128,-1,11
 1048 475 1048 475 1048 337 c 0,12,13
 1048 99.5054347826 1048 99.5054347826 781 25.5 c 0,14,15
 689 0 689 0 562 0 c 1,16,-1
 562 62 l 1,17,18
 844.547169811 62 844.547169811 62 935 203 c 0,19,20
 969 256 969 256 969 325.5 c 0,21,22
 969 467.421052632 969 467.421052632 872 554.210526316 c 128,-1,23
 775 641 775 641 570 641 c 1,24,-1
 570 685 l 1,25,26
 694.827543931 690.589293012 694.827543931 690.589293012 764.413771966 770.71888893 c 128,-1,27
 834 850.848484848 834 850.848484848 834 949.439167797 c 128,-1,28
 834 1048.02985075 834 1048.02985075 763.825396825 1114.01492537 c 128,-1,29
 693.650793651 1180 693.650793651 1180 553.863858364 1180 c 128,-1,30
 414.076923077 1180 414.076923077 1180 354.538461538 1106.28571429 c 128,-1,31
 295 1032.57142857 295 1032.57142857 295 856 c 2,32,-1
 295 62 l 1,33,-1
 411 62 l 1,34,-1
 411 0 l 1,35,-1
 61 0 l 1,36,-1
 61 62 l 1,37,-1
 214 62 l 1,38,-1
 214 851 l 2,0,1
EndSplineSet
EndChar

StartChar: ae
Encoding: 230 230 184
Width: 1499
Flags: W
LayerCount: 2
Fore
SplineSet
761 116 m 1,0,1
 619.181818182 -14 619.181818182 -14 366 -14 c 0,2,3
 227.764705882 -14 227.764705882 -14 153.882352941 56.7605633803 c 128,-1,4
 80 127.521126761 80 127.521126761 80 220.76056338 c 128,-1,5
 80 314 80 314 111.5 362.5 c 128,-1,6
 143 411 143 411 208.92 443 c 128,-1,7
 274.84 475 274.84 475 403.711666667 475 c 128,-1,8
 532.583333333 475 532.583333333 475 680 446 c 1,9,-1
 674 575 l 1,10,11
 674 743.329545455 674 743.329545455 535 776.5 c 0,12,13
 491 787 491 787 436 787 c 0,14,15
 246 787 246 787 156 696 c 1,16,-1
 120 755 l 1,17,18
 222.666666667 854 222.666666667 854 438 854 c 0,19,20
 694.846153846 854 694.846153846 854 744 641 c 1,21,22
 857.29787234 854 857.29787234 854 1097 854 c 0,23,24
 1256.74193548 854 1256.74193548 854 1351.87096774 722.933333333 c 128,-1,25
 1447 591.866666667 1447 591.866666667 1447 400 c 1,26,-1
 756 400 l 1,27,28
 756 133.609756098 756 133.609756098 933.5 73 c 0,29,30
 995 52 995 52 1081 52 c 0,31,32
 1277.18666667 52 1277.18666667 52 1415 204 c 1,33,-1
 1448 149 l 1,34,35
 1281.20930233 -14 1281.20930233 -14 1077.62639029 -14 c 128,-1,36
 874.043478261 -14 874.043478261 -14 761 116 c 1,0,1
1369 466 m 1,37,38
 1358.26146911 599.157783081 1358.26146911 599.157783081 1286.50152107 693.078891541 c 128,-1,39
 1214.74157303 787 1214.74157303 787 1097 787 c 0,40,41
 944.307692308 787 944.307692308 787 854.42177108 690.769190215 c 128,-1,42
 764.535849852 594.53838043 764.535849852 594.53838043 758 466 c 1,43,-1
 1369 466 l 1,37,38
680 384 m 1,44,45
 542.571428571 410 542.571428571 410 473.785714286 410 c 128,-1,46
 405 410 405 410 354 407.5 c 0,47,48
 161 398.039215686 161 398.039215686 161 230 c 0,49,50
 161 113.097560976 161 113.097560976 274 69 c 0,51,52
 315 53 315 53 369 53 c 0,53,54
 491.909090909 53 491.909090909 53 565.957422834 72.627268703 c 128,-1,55
 640.005754759 92.2545374059 640.005754759 92.2545374059 731 164 c 1,56,57
 680 266 680 266 680 384 c 1,44,45
EndSplineSet
EndChar

StartChar: eth
Encoding: 240 240 194
Width: 920
Flags: W
LayerCount: 2
Fore
SplineSet
691 690 m 1,0,1
 585.366580311 897.204015544 585.366580311 897.204015544 369 1088 c 1,2,-1
 103 987 l 1,3,-1
 75 1040 l 1,4,-1
 323 1132 l 1,5,6
 276 1177 276 1177 221 1218.5 c 128,-1,7
 166 1260 166 1260 114 1301 c 1,8,-1
 159 1351 l 1,9,10
 223 1300 223 1300 279.5 1255.5 c 128,-1,11
 336 1211 336 1211 385 1163 c 1,12,-1
 664 1270 l 1,13,-1
 693 1220 l 1,14,-1
 430 1118 l 1,15,16
 663.315602569 895.370608236 663.315602569 895.370608236 766 679.5 c 0,17,18
 839 526.034090909 839 526.034090909 839 409.517045455 c 0,19,20
 839 201 839 201 727 89 c 128,-1,21
 615 -23 615 -23 440.792682927 -23 c 128,-1,22
 266.585365854 -23 266.585365854 -23 159.792682927 107.054455446 c 128,-1,23
 53 237.108910891 53 237.108910891 53 407.235407826 c 128,-1,24
 53 577.361904762 53 577.361904762 166.648514851 686.680952381 c 128,-1,25
 280.297029703 796 280.297029703 796 436 796 c 0,26,27
 536 796 536 796 632 736 c 0,28,29
 664 716 664 716 691 690 c 1,0,1
218.095 154.183544304 m 128,-1,31
 301.19 49 301.19 49 450.433541667 49 c 128,-1,32
 599.677083333 49 599.677083333 49 680.838541667 150.188311688 c 128,-1,33
 762 251.376623377 762 251.376623377 762 402.008536407 c 128,-1,34
 762 552.640449438 762 552.640449438 667.981927711 640.320224719 c 128,-1,35
 573.963855422 728 573.963855422 728 447 728 c 256,36,37
 320.037037037 728 320.037037037 728 227.518518519 641.862068966 c 128,-1,38
 135 555.724137931 135 555.724137931 135 407.545613269 c 128,-1,30
 135 259.367088608 135 259.367088608 218.095 154.183544304 c 128,-1,31
EndSplineSet
EndChar

StartChar: divide
Encoding: 247 247 201
Width: 522
Flags: W
LayerCount: 2
Fore
SplineSet
529 413 m 1,0,-1
 0 413 l 1,1,-1
 0 475 l 1,2,-1
 529 475 l 1,3,-1
 529 413 l 1,0,-1
324 276 m 1,4,-1
 324 156 l 1,5,-1
 208 156 l 1,6,-1
 208 276 l 1,7,-1
 324 276 l 1,4,-1
324 725 m 1,8,-1
 324 605 l 1,9,-1
 208 605 l 1,10,-1
 208 725 l 1,11,-1
 324 725 l 1,8,-1
EndSplineSet
EndChar

StartChar: oslash
Encoding: 248 248 202
Width: 997
Flags: W
LayerCount: 2
Fore
SplineSet
194 -172 m 1,0,-1
 813 1039 l 1,1,-1
 854 1015 l 1,2,-1
 234 -196 l 1,3,-1
 194 -172 l 1,0,-1
761.384615385 690.266666667 m 128,-1,5
 649.769230769 787 649.769230769 787 500.983516484 787 c 128,-1,6
 352.197802198 787 352.197802198 787 242.598901099 690.169902913 c 128,-1,7
 133 593.339805825 133 593.339805825 133 421.611650485 c 128,-1,8
 133 249.883495146 133 249.883495146 242.02688172 151.441747573 c 128,-1,9
 351.053763441 53 351.053763441 53 500.994623656 53 c 128,-1,10
 650.935483871 53 650.935483871 53 761.967741935 151.342857143 c 128,-1,11
 873 249.685714286 873 249.685714286 873 421.60952381 c 128,-1,4
 873 593.533333333 873 593.533333333 761.384615385 690.266666667 c 128,-1,5
818 102.015625 m 128,-1,13
 683 -14 683 -14 500.572727273 -14 c 128,-1,14
 318.145454545 -14 318.145454545 -14 184.572727273 102.611111111 c 128,-1,15
 51 219.222222222 51 219.222222222 51 422.53968254 c 128,-1,16
 51 625.857142857 51 625.857142857 184.083333333 739.928571429 c 128,-1,17
 317.166666667 854 317.166666667 854 500 854 c 128,-1,18
 683 854 683 854 818 740.09375 c 128,-1,19
 953 626.1875 953 626.1875 953 422.109375 c 128,-1,12
 953 218.03125 953 218.03125 818 102.015625 c 128,-1,13
EndSplineSet
EndChar

StartChar: thorn
Encoding: 254 254 208
Width: 1083
Flags: W
LayerCount: 2
Fore
SplineSet
252 695 m 1,0,1
 386.909090909 854 386.909090909 854 636.5 854 c 0,2,3
 718 854 718 854 800 818 c 128,-1,4
 882 782 882 782 937.5 723 c 0,5,6
 1050 603.405405405 1050 603.405405405 1050 434 c 128,-1,7
 1050 264.550724638 1050 264.550724638 951.5 137.5 c 0,8,9
 834.04494382 -14 834.04494382 -14 614 -14 c 0,10,11
 503.285714286 -14 503.285714286 -14 399.215022091 31.5309278351 c 128,-1,12
 295.144329897 77.0618556701 295.144329897 77.0618556701 252 125 c 1,13,-1
 249 -360 l 1,14,-1
 8 -360 l 1,15,-1
 8 -300 l 1,16,-1
 173 -300 l 1,17,-1
 173 1174 l 1,18,-1
 24 1174 l 1,19,-1
 24 1234 l 1,20,-1
 252 1234 l 1,21,-1
 252 695 l 1,0,1
949.5 291.5 m 0,22,23
 971 358 971 358 971 429 c 0,24,25
 971 580.365591398 971 580.365591398 872.954081633 683.682795699 c 128,-1,26
 774.908163265 787 774.908163265 787 615 787 c 0,27,28
 512.918918919 787 512.918918919 787 430.410754396 751.910320835 c 128,-1,29
 347.902589872 716.82064167 347.902589872 716.82064167 252 619 c 1,30,-1
 252 193 l 1,31,32
 354.654545455 113.157575758 354.654545455 113.157575758 420.827272727 89.5787878788 c 0,33,34
 630.300861632 14.9387734415 630.300861632 14.9387734415 767.148882099 82.8483174325 c 128,-1,35
 903.996902565 150.757861423 903.996902565 150.757861423 949.5 291.5 c 0,22,23
EndSplineSet
EndChar

StartChar: hbar
Encoding: 295 295 210
Width: 1204
Flags: W
LayerCount: 2
Fore
SplineSet
577 949 m 1,0,-1
 92 949 l 1,1,-1
 92 1012 l 1,2,-1
 577 1012 l 1,3,-1
 577 949 l 1,0,-1
93 1176 m 1,4,-1
 93 1234 l 1,5,-1
 345 1234 l 1,6,-1
 345 736 l 1,7,8
 464.0625 802.145833333 464.0625 802.145833333 536.479525862 828.072916667 c 128,-1,9
 608.896551724 854 608.896551724 854 692.948275862 854 c 0,10,11
 840.362318841 854 840.362318841 854 903.68115942 783.532258065 c 128,-1,12
 967 713.064516129 967 713.064516129 967 617 c 2,13,-1
 967 60 l 1,14,-1
 1142 60 l 1,15,-1
 1142 0 l 1,16,-1
 730 0 l 1,17,-1
 730 60 l 1,18,-1
 888 60 l 1,19,-1
 888 601 l 2,20,21
 888 688.785714286 888 688.785714286 859.5 723.392857143 c 0,22,23
 807.117647059 787 807.117647059 787 703.758823529 787 c 128,-1,24
 600.4 787 600.4 787 530.157746479 757.732394366 c 128,-1,25
 459.915492958 728.464788732 459.915492958 728.464788732 345 664 c 1,26,-1
 345 60 l 1,27,-1
 537 60 l 1,28,-1
 537 0 l 1,29,-1
 104 0 l 1,30,-1
 104 60 l 1,31,-1
 266 60 l 1,32,-1
 266 1176 l 1,33,-1
 93 1176 l 1,4,-1
EndSplineSet
EndChar

StartChar: dotlessi
Encoding: 305 305 213
Width: 569
Flags: W
LayerCount: 2
Fore
SplineSet
106 776 m 1,0,-1
 106 836 l 1,1,-1
 335 836 l 1,2,-1
 335 60 l 1,3,-1
 489 60 l 1,4,-1
 489 0 l 1,5,-1
 106 0 l 1,6,-1
 106 60 l 1,7,-1
 256 60 l 1,8,-1
 256 776 l 1,9,-1
 106 776 l 1,0,-1
EndSplineSet
EndChar

StartChar: IJ
Encoding: 306 306 214
Width: 1073
Flags: W
LayerCount: 2
Fore
SplineSet
793 1174 m 1,0,-1
 654 1174 l 1,1,-1
 654 1234 l 1,2,-1
 1014 1234 l 1,3,-1
 1014 1174 l 1,4,-1
 875 1174 l 1,5,-1
 875 60 l 2,6,7
 875 -47.5882352941 875 -47.5882352941 816.5 -82 c 0,8,9
 784.2 -101 784.2 -101 706 -101 c 2,10,-1
 635 -101 l 1,11,-1
 635 -41 l 1,12,-1
 719 -41 l 2,13,14
 753.555555556 -41 753.555555556 -41 765.777777778 -31 c 0,15,16
 793 -8.72727272727 793 -8.72727272727 793 59 c 2,17,-1
 793 1174 l 1,0,-1
505 1234 m 1,18,-1
 505 1171 l 1,19,-1
 345 1171 l 1,20,-1
 345 62 l 1,21,-1
 505 62 l 1,22,-1
 505 0 l 1,23,-1
 102 0 l 1,24,-1
 102 62 l 1,25,-1
 263 62 l 1,26,-1
 263 1174 l 1,27,-1
 102 1174 l 1,28,-1
 102 1234 l 1,29,-1
 505 1234 l 1,18,-1
EndSplineSet
EndChar

StartChar: ij
Encoding: 307 307 215
Width: 1008
Flags: W
LayerCount: 2
Fore
SplineSet
742 779 m 1,0,-1
 605 779 l 1,1,-1
 605 836 l 1,2,-1
 821 836 l 1,3,-1
 821 -22 l 2,4,5
 821 -144.75 821 -144.75 797.5 -185.875 c 0,6,7
 748.857142857 -271 748.857142857 -271 607 -271 c 2,8,-1
 527 -271 l 1,9,-1
 527 -211 l 1,10,-1
 605 -211 l 2,11,12
 698.711111111 -211 698.711111111 -211 725 -165.5 c 0,13,14
 742 -136.076923077 742 -136.076923077 742 -34 c 2,15,-1
 742 779 l 1,0,-1
786 1205 m 256,16,17
 818 1205 818 1205 833 1187.5 c 128,-1,18
 848 1170 848 1170 848 1149 c 128,-1,19
 848 1128 848 1128 832.5 1110 c 128,-1,20
 817 1092 817 1092 785.5 1092 c 128,-1,21
 754 1092 754 1092 739 1110 c 128,-1,22
 724 1128 724 1128 724 1149 c 128,-1,23
 724 1170 724 1170 739 1187.5 c 128,-1,24
 754 1205 754 1205 786 1205 c 256,16,17
299 1205 m 256,25,26
 331 1205 331 1205 346.5 1187.5 c 128,-1,27
 362 1170 362 1170 362 1149 c 128,-1,28
 362 1128 362 1128 346 1110 c 128,-1,29
 330 1092 330 1092 298.5 1092 c 128,-1,30
 267 1092 267 1092 252 1110 c 128,-1,31
 237 1128 237 1128 237 1149 c 128,-1,32
 237 1170 237 1170 252 1187.5 c 128,-1,33
 267 1205 267 1205 299 1205 c 256,25,26
113 776 m 1,34,-1
 113 836 l 1,35,-1
 342 836 l 1,36,-1
 342 60 l 1,37,-1
 496 60 l 1,38,-1
 496 0 l 1,39,-1
 113 0 l 1,40,-1
 113 60 l 1,41,-1
 263 60 l 1,42,-1
 263 776 l 1,43,-1
 113 776 l 1,34,-1
EndSplineSet
EndChar

StartChar: kgreenlandic
Encoding: 312 312 219
Width: 1141
Flags: W
LayerCount: 2
Fore
SplineSet
102 778 m 1,0,-1
 102 838 l 1,1,-1
 367 838 l 1,2,-1
 367 445 l 1,3,-1
 761 776 l 1,4,-1
 637 776 l 1,5,-1
 637 836 l 1,6,-1
 1022 836 l 1,7,-1
 1022 776 l 1,8,-1
 863 776 l 1,9,-1
 460 439 l 1,10,-1
 906 60 l 1,11,-1
 1057 60 l 1,12,-1
 1057 0 l 1,13,-1
 674 0 l 1,14,-1
 674 60 l 1,15,-1
 797 60 l 1,16,-1
 367 422 l 1,17,-1
 367 60 l 1,18,-1
 551 60 l 1,19,-1
 551 0 l 1,20,-1
 102 0 l 1,21,-1
 102 60 l 1,22,-1
 288 60 l 1,23,-1
 288 778 l 1,24,-1
 102 778 l 1,0,-1
EndSplineSet
EndChar

StartChar: Lslash
Encoding: 321 321 222
Width: 1169
Flags: W
LayerCount: 2
Fore
SplineSet
562 887 m 1,0,-1
 562 807 l 1,1,-1
 140 557 l 1,2,-1
 140 637 l 1,3,-1
 562 887 l 1,0,-1
493 1234 m 1,4,-1
 493 1174 l 1,5,-1
 354 1174 l 1,6,-1
 354 70 l 1,7,-1
 982 70 l 1,8,-1
 982 412 l 1,9,-1
 1058 412 l 1,10,-1
 1058 0 l 1,11,-1
 133 0 l 1,12,-1
 133 70 l 1,13,-1
 272 70 l 1,14,-1
 272 1174 l 1,15,-1
 133 1174 l 1,16,-1
 133 1234 l 1,17,-1
 493 1234 l 1,4,-1
EndSplineSet
EndChar

StartChar: lslash
Encoding: 322 322 223
Width: 680
Flags: W
LayerCount: 2
Fore
SplineSet
127 1174 m 1,0,-1
 127 1234 l 1,1,-1
 392 1234 l 1,2,-1
 392 60 l 1,3,-1
 576 60 l 1,4,-1
 576 0 l 1,5,-1
 127 0 l 1,6,-1
 127 60 l 1,7,-1
 313 60 l 1,8,-1
 313 1174 l 1,9,-1
 127 1174 l 1,0,-1
563 887 m 1,10,-1
 563 807 l 1,11,-1
 127 557 l 1,12,-1
 141 637 l 1,13,-1
 563 887 l 1,10,-1
EndSplineSet
EndChar

StartChar: OE
Encoding: 338 338 226
Width: 1937
Flags: W
LayerCount: 2
Fore
SplineSet
1068 1164 m 1,0,-1
 1068 666 l 1,1,-1
 1501 666 l 1,2,-1
 1501 824 l 1,3,-1
 1568 824 l 1,4,-1
 1568 424 l 1,5,-1
 1501 424 l 1,6,-1
 1501 596 l 1,7,-1
 1068 596 l 1,8,-1
 1068 70 l 1,9,-1
 1729 70 l 1,10,-1
 1729 376 l 1,11,-1
 1806 376 l 1,12,-1
 1806 0 l 1,13,-1
 716 0 l 2,14,15
 413.10982659 0 413.10982659 0 244.554913295 182.25 c 0,16,17
 76 364.5 76 364.5 76 614.77173913 c 0,18,19
 76 865.043478261 76 865.043478261 236.5 1039.5 c 0,20,21
 415.44 1234 415.44 1234 716 1234 c 2,22,-1
 1784 1234 l 1,23,-1
 1784 858 l 1,24,-1
 1707 858 l 1,25,-1
 1707 1164 l 1,26,-1
 1068 1164 l 1,0,-1
986 1158 m 1,27,-1
 716 1158 l 2,28,29
 454.39869281 1158 454.39869281 1158 307.199346405 995.974820144 c 0,30,31
 160 833.949640288 160 833.949640288 160 611.974820144 c 0,32,33
 160 390 160 390 305.263157895 230 c 0,34,35
 450.526315789 70 450.526315789 70 716 70 c 2,36,-1
 986 70 l 1,37,-1
 986 1158 l 1,27,-1
EndSplineSet
EndChar

StartChar: oe
Encoding: 339 339 227
Width: 1720
Flags: W
LayerCount: 2
Fore
SplineSet
1655 149 m 1,0,1
 1488.20930233 -14 1488.20930233 -14 1288.62113468 -14 c 128,-1,2
 1089.03296703 -14 1089.03296703 -14 962 130.5 c 0,3,4
 922 176 922 176 897 232 c 1,5,6
 847.503008424 113.968712395 847.503008424 113.968712395 736.317077982 49.9843561974 c 128,-1,7
 625.131147541 -14 625.131147541 -14 520.56557377 -14 c 0,8,9
 319.618181818 -14 319.618181818 -14 189.309090909 102.536585366 c 128,-1,10
 59 219.073170732 59 219.073170732 59 422.548780488 c 128,-1,11
 59 626.024390244 59 626.024390244 188.819444444 740.012195122 c 128,-1,12
 318.638888889 854 318.638888889 854 508.846916972 854 c 128,-1,13
 699.054945055 854 699.054945055 854 829 716.5 c 0,14,15
 872 671 872 671 898 610 c 1,16,17
 970.484699261 781.327470981 970.484699261 781.327470981 1153.5 835.5 c 0,18,19
 1216 854 1216 854 1299 854 c 0,20,21
 1468.51612903 854 1468.51612903 854 1573.25806452 722.808080808 c 128,-1,22
 1678 591.616161616 1678 591.616161616 1678 400 c 1,23,-1
 939 400 l 1,24,25
 950.457574583 233.865168539 950.457574583 233.865168539 1049.7517758 142.93258427 c 128,-1,26
 1149.04597701 52 1149.04597701 52 1288 52 c 0,27,28
 1379 52 1379 52 1467 91 c 128,-1,29
 1555 130 1555 130 1622 204 c 1,30,-1
 1655 149 l 1,0,1
749.417582418 690.069306931 m 128,-1,32
 641.835164835 787 641.835164835 787 498 787 c 128,-1,33
 354.164835165 787 354.164835165 787 247.582417582 690.97029703 c 128,-1,34
 141 594.940594059 141 594.940594059 141 421.594059406 c 128,-1,35
 141 248.247524752 141 248.247524752 247.021505376 150.623762376 c 128,-1,36
 353.043010753 53 353.043010753 53 498 53 c 128,-1,37
 642.956989247 53 642.956989247 53 749.978494624 151.544554455 c 128,-1,38
 857 250.089108911 857 250.089108911 857 421.613861386 c 128,-1,31
 857 593.138613861 857 593.138613861 749.417582418 690.069306931 c 128,-1,32
1600 466 m 1,39,40
 1589.25757231 599.206103393 1589.25757231 599.206103393 1506.96586481 693.103051697 c 128,-1,41
 1424.6741573 787 1424.6741573 787 1278.60630942 787 c 128,-1,42
 1132.53846154 787 1132.53846154 787 1040.00904558 690.216358025 c 128,-1,43
 947.47962963 593.432716049 947.47962963 593.432716049 941 466 c 1,44,-1
 1600 466 l 1,39,40
EndSplineSet
EndChar

StartChar: florin
Encoding: 402 402 238
Width: 729
Flags: W
LayerCount: 2
Fore
SplineSet
710 1165 m 1,0,1
 658.25 1183 658.25 1183 617.125 1183 c 0,2,3
 524.086206897 1183 524.086206897 1183 501 1080 c 1,4,-1
 434 836 l 1,5,-1
 636 836 l 1,6,-1
 621 779 l 1,7,-1
 418 779 l 1,8,-1
 220 60 l 2,9,10
 183.351351351 -74.3783783784 183.351351351 -74.3783783784 52 -83.5 c 0,11,12
 16 -86 16 -86 -18 -86 c 1,13,-1
 -2 -24 l 1,14,15
 84.5882352941 -24 84.5882352941 -24 116.5 11 c 0,16,17
 132 28 132 28 141 60 c 2,18,-1
 339 779 l 1,19,-1
 184 779 l 1,20,-1
 200 836 l 1,21,-1
 354 836 l 1,22,-1
 422 1078 l 1,23,24
 442 1157 442 1157 490.5 1200.5 c 128,-1,25
 539 1244 539 1244 603.615384615 1244 c 0,26,27
 668.230769231 1244 668.230769231 1244 724 1219 c 1,28,-1
 710 1165 l 1,0,1
EndSplineSet
EndChar

StartChar: dotlessj
Encoding: 567 567 267
Width: 397
Flags: W
LayerCount: 2
Fore
SplineSet
25 779 m 1,0,-1
 25 860 l 1,1,-1
 241 860 l 1,2,-1
 241 -44 l 2,3,4
 241 -142.333333333 241 -142.333333333 216.5 -183.166666667 c 0,5,6
 163.8 -271 163.8 -271 16 -271 c 2,7,-1
 -80 -271 l 1,8,-1
 -80 -199 l 1,9,-1
 74 -199 l 2,10,11
 125 -199 125 -199 148.5 -151 c 128,-1,12
 172 -103 172 -103 172 0 c 2,13,-1
 172 779 l 1,14,-1
 25 779 l 1,0,-1
EndSplineSet
EndChar

StartChar: circumflex
Encoding: 710 710 268
Width: 598
Flags: W
LayerCount: 2
Fore
SplineSet
106 922 m 1,0,-1
 245 1195 l 1,1,-1
 340 1195 l 1,2,-1
 486 922 l 1,3,-1
 397 922 l 1,4,-1
 293 1146 l 1,5,-1
 188 922 l 1,6,-1
 106 922 l 1,0,-1
EndSplineSet
EndChar

StartChar: caron
Encoding: 711 711 269
Width: 598
Flags: W
LayerCount: 2
Fore
SplineSet
191 1195 m 1,0,-1
 296 971 l 1,1,-1
 400 1195 l 1,2,-1
 489 1195 l 1,3,-1
 343 922 l 1,4,-1
 248 922 l 1,5,-1
 109 1195 l 1,6,-1
 191 1195 l 1,0,-1
EndSplineSet
EndChar

StartChar: breve
Encoding: 728 728 270
Width: 586
Flags: W
LayerCount: 2
Fore
SplineSet
182 1248 m 1,0,1
 187 1192 187 1192 221 1164 c 128,-1,2
 255 1136 255 1136 285.5 1136 c 0,3,4
 338.407407407 1136 338.407407407 1136 372.44028907 1164.7152439 c 128,-1,5
 406.473170732 1193.4304878 406.473170732 1193.4304878 414 1248 c 1,6,-1
 457 1248 l 1,7,8
 445.41509434 1126.35849057 445.41509434 1126.35849057 351.5 1090.5 c 0,9,10
 324 1080 324 1080 296 1080 c 256,11,12
 200 1080 200 1080 152 1174.5 c 0,13,14
 136 1206 136 1206 131 1248 c 1,15,-1
 182 1248 l 1,0,1
EndSplineSet
EndChar

StartChar: dotaccent
Encoding: 729 729 271
Width: 397
Flags: W
LayerCount: 2
Fore
SplineSet
257 1184 m 1,0,-1
 257 1064 l 1,1,-1
 141 1064 l 1,2,-1
 141 1184 l 1,3,-1
 257 1184 l 1,0,-1
EndSplineSet
EndChar

StartChar: ring
Encoding: 730 730 272
Width: 590
Flags: W
LayerCount: 2
Fore
SplineSet
309.571428571 1291 m 0,0,1
 209.266666667 1291 209.266666667 1291 181 1211.5 c 0,2,3
 173 1189 173 1189 173 1165.5 c 0,4,5
 173 1115.58064516 173 1115.58064516 205.972222222 1077.29032258 c 128,-1,6
 238.944444444 1039 238.944444444 1039 282.972222222 1039 c 0,7,8
 353.666666667 1039 353.666666667 1039 385.833333333 1077.6 c 128,-1,9
 418 1116.2 418 1116.2 418 1152.6 c 0,10,11
 418 1215.33333333 418 1215.33333333 385.571428571 1253.16666667 c 128,-1,12
 353.142857143 1291 353.142857143 1291 309.571428571 1291 c 0,0,1
125 1165 m 256,13,14
 125 1275.53125 125 1275.53125 222 1321 c 0,15,16
 254 1336 254 1336 296 1336 c 256,17,18
 375.75 1336 375.75 1336 420.875 1284.42857143 c 128,-1,19
 466 1232.85714286 466 1232.85714286 466 1165 c 256,20,21
 466 1097.14285714 466 1097.14285714 421.3125 1046.07142857 c 128,-1,22
 376.625 995 376.625 995 296 995 c 256,23,24
 215.979166667 995 215.979166667 995 170.489583333 1045.77906977 c 128,-1,25
 125 1096.55813953 125 1096.55813953 125 1165 c 256,13,14
EndSplineSet
EndChar

StartChar: ogonek
Encoding: 731 731 273
Width: 530
Flags: W
LayerCount: 2
Fore
SplineSet
425 -319 m 1,0,1
 359.545454545 -364 359.545454545 -364 265.272727273 -364 c 128,-1,2
 171 -364 171 -364 132 -287.5 c 0,3,4
 119 -262 119 -262 119 -230 c 0,5,6
 119 -167.903225806 119 -167.903225806 151.5 -105 c 128,-1,7
 184.081632653 -41.9387755102 184.081632653 -41.9387755102 240 0 c 1,8,-1
 293 0 l 1,9,10
 202 -87.0434782609 202 -87.0434782609 202 -174 c 0,11,12
 202 -278 202 -278 320 -278 c 0,13,14
 372.2 -278 372.2 -278 425 -256 c 1,15,-1
 425 -319 l 1,0,1
EndSplineSet
EndChar

StartChar: tilde
Encoding: 732 732 274
Width: 717
Flags: W
LayerCount: 2
Fore
SplineSet
559 1153 m 1,0,1
 543.75377051 1019.28690883 543.75377051 1019.28690883 466.704480547 1019.28690883 c 0,2,3
 455.729244468 1019.28690883 455.729244468 1019.28690883 443.5 1022 c 2,4,-1
 231.650390625 1069 l 2,5,6
 226.726823295 1070.09231954 226.726823295 1070.09231954 222.232980353 1070.09231954 c 0,7,8
 194.33681763 1070.09231954 194.33681763 1070.09231954 183 1028 c 1,9,-1
 145 1028 l 1,10,11
 160.70462586 1160.39029064 160.70462586 1160.39029064 235.53595672 1160.39029064 c 0,12,13
 247.510911079 1160.39029064 247.510911079 1160.39029064 261 1157 c 2,14,-1
 448 1110 l 2,15,16
 459.451496988 1107.12186857 459.451496988 1107.12186857 469.284407456 1107.12186857 c 0,17,18
 508.542539733 1107.12186857 508.542539733 1107.12186857 522 1153 c 1,19,-1
 559 1153 l 1,0,1
EndSplineSet
EndChar

StartChar: hungarumlaut
Encoding: 733 733 275
Width: 623
Flags: W
LayerCount: 2
Fore
SplineSet
335 985 m 1,0,-1
 394 1234 l 1,1,-1
 520 1234 l 1,2,-1
 366 985 l 1,3,-1
 335 985 l 1,0,-1
125 985 m 1,4,-1
 184 1234 l 1,5,-1
 310 1234 l 1,6,-1
 156 985 l 1,7,-1
 125 985 l 1,4,-1
EndSplineSet
EndChar

StartChar: dotaccentcmb
Encoding: 775 775 276
Width: 397
Flags: W
LayerCount: 2
Fore
SplineSet
257 1184 m 1,0,-1
 257 1064 l 1,1,-1
 141 1064 l 1,2,-1
 141 1184 l 1,3,-1
 257 1184 l 1,0,-1
EndSplineSet
EndChar

StartChar: uni030F
Encoding: 783 783 277
Width: 627
Flags: W
LayerCount: 2
Fore
SplineSet
258 985 m 1,0,-1
 104 1234 l 1,1,-1
 230 1234 l 1,2,-1
 289 985 l 1,3,-1
 258 985 l 1,0,-1
468 985 m 1,4,-1
 314 1234 l 1,5,-1
 440 1234 l 1,6,-1
 499 985 l 1,7,-1
 468 985 l 1,4,-1
EndSplineSet
EndChar

StartChar: uni0311
Encoding: 785 785 278
Width: 854
Flags: W
LayerCount: 2
Fore
SplineSet
431 1218 m 0,0,1
 242 1218 242 1218 218 1080 c 1,2,-1
 131 1080 l 1,3,4
 141.054768041 1166.47100515 141.054768041 1166.47100515 223.367384021 1219.23550258 c 0,5,6
 305.68 1272 305.68 1272 429.477254902 1272 c 0,7,8
 553.274509804 1272 553.274509804 1272 632.127298048 1219.08562894 c 0,9,10
 710.980086293 1166.17125788 710.980086293 1166.17125788 721 1080 c 1,11,-1
 642 1080 l 1,12,13
 630 1149 630 1149 574 1183.5 c 128,-1,14
 518 1218 518 1218 431 1218 c 0,0,1
EndSplineSet
EndChar

StartChar: uni0326
Encoding: 806 806 279
Width: 412
Flags: W
LayerCount: 2
Fore
SplineSet
274 116 m 1,0,-1
 274 -6 l 2,1,2
 274 -180 274 -180 139 -180 c 1,3,-1
 139 -136 l 1,4,5
 185.943573668 -120.978056426 185.943573668 -120.978056426 197.971786834 -95.2033139275 c 0,6,7
 210 -69.4285714286 210 -69.4285714286 210 -4 c 1,8,-1
 148 -4 l 1,9,-1
 148 116 l 1,10,-1
 274 116 l 1,0,-1
EndSplineSet
EndChar

StartChar: pi
Encoding: 960 960 280
Width: 1137
Flags: W
LayerCount: 2
Fore
SplineSet
855 168 m 2,0,1
 855 49 855 49 919.5 49 c 0,2,3
 950 49 950 49 983 58 c 1,4,-1
 983 13 l 1,5,6
 809.729559748 -70.6477987421 809.729559748 -70.6477987421 775 103 c 0,7,8
 768 138 768 138 768 179 c 2,9,-1
 769 806 l 1,10,-1
 407 806 l 1,11,-1
 372 308 l 2,12,13
 360.017506631 136.250928382 360.017506631 136.250928382 313.58307764 66.125464191 c 128,-1,14
 267.148648649 -4 267.148648649 -4 162 -4 c 1,15,-1
 162 53 l 1,16,17
 243.652173913 53 243.652173913 53 264.5 121.5 c 0,18,19
 275 156 275 156 278 208 c 128,-1,20
 281 260 281 260 287 330 c 2,21,-1
 330 806 l 1,22,-1
 281 806 l 2,23,24
 211.928571429 806 211.928571429 806 205 709 c 1,25,-1
 168 709 l 1,26,27
 168 778.333333333 168 778.333333333 184 799.666666667 c 0,28,29
 211.25 836 211.25 836 282 836 c 2,30,-1
 963 836 l 1,31,-1
 963 806 l 1,32,-1
 855 806 l 1,33,-1
 855 168 l 2,0,1
EndSplineSet
EndChar

StartChar: endash
Encoding: 8211 8211 281
Width: 995
Flags: W
LayerCount: 2
Fore
SplineSet
859 60 m 1,0,-1
 859 0 l 1,1,-1
 143 0 l 1,2,-1
 143 60 l 1,3,-1
 859 60 l 1,0,-1
EndSplineSet
EndChar

StartChar: emdash
Encoding: 8212 8212 282
Width: 1358
Flags: W
LayerCount: 2
Fore
SplineSet
1220 60 m 1,0,-1
 1220 0 l 1,1,-1
 143 0 l 1,2,-1
 143 60 l 1,3,-1
 1220 60 l 1,0,-1
EndSplineSet
EndChar

StartChar: quoteleft
Encoding: 8216 8216 283
Width: 401
Flags: W
LayerCount: 2
Fore
SplineSet
135 959 m 1,0,-1
 135 1081 l 2,1,2
 135 1255 135 1255 271 1255 c 1,3,-1
 271 1211 l 1,4,5
 224.056426332 1195.97805643 224.056426332 1195.97805643 212.028213166 1170.20331393 c 0,6,7
 200 1144.42857143 200 1144.42857143 200 1079 c 1,8,-1
 261 1079 l 1,9,-1
 261 959 l 1,10,-1
 135 959 l 1,0,-1
EndSplineSet
EndChar

StartChar: quoteright
Encoding: 8217 8217 284
Width: 401
Flags: W
LayerCount: 2
Fore
SplineSet
269 1234 m 1,0,-1
 269 1111 l 2,1,2
 269 937 269 937 133 937 c 1,3,-1
 133 982 l 1,4,5
 180.492163009 997.197492163 180.492163009 997.197492163 192.246081505 1022.38446037 c 0,6,7
 204 1047.57142857 204 1047.57142857 204 1114 c 1,8,-1
 143 1114 l 1,9,-1
 143 1234 l 1,10,-1
 269 1234 l 1,0,-1
EndSplineSet
EndChar

StartChar: quotesinglbase
Encoding: 8218 8218 285
Width: 412
Flags: W
LayerCount: 2
Fore
SplineSet
274 116 m 1,0,-1
 274 -6 l 2,1,2
 274 -180 274 -180 139 -180 c 1,3,-1
 139 -136 l 1,4,5
 185.943573668 -120.978056426 185.943573668 -120.978056426 197.971786834 -95.2033139275 c 0,6,7
 210 -69.4285714286 210 -69.4285714286 210 -4 c 1,8,-1
 148 -4 l 1,9,-1
 148 116 l 1,10,-1
 274 116 l 1,0,-1
EndSplineSet
EndChar

StartChar: quotedblleft
Encoding: 8220 8220 286
Width: 627
Flags: W
LayerCount: 2
Fore
SplineSet
361 959 m 1,0,-1
 361 1081 l 2,1,2
 361 1255 361 1255 497 1255 c 1,3,-1
 497 1211 l 1,4,5
 450.056426332 1195.97805643 450.056426332 1195.97805643 438.028213166 1170.20331393 c 0,6,7
 426 1144.42857143 426 1144.42857143 426 1079 c 1,8,-1
 487 1079 l 1,9,-1
 487 959 l 1,10,-1
 361 959 l 1,0,-1
135 959 m 1,11,-1
 135 1081 l 2,12,13
 135 1255 135 1255 271 1255 c 1,14,-1
 271 1211 l 1,15,16
 224.056426332 1195.97805643 224.056426332 1195.97805643 212.028213166 1170.20331393 c 0,17,18
 200 1144.42857143 200 1144.42857143 200 1079 c 1,19,-1
 261 1079 l 1,20,-1
 261 959 l 1,21,-1
 135 959 l 1,11,-1
EndSplineSet
EndChar

StartChar: quotedblright
Encoding: 8221 8221 287
Width: 627
Flags: W
LayerCount: 2
Fore
SplineSet
269 1234 m 1,0,-1
 269 1111 l 2,1,2
 269 937 269 937 133 937 c 1,3,-1
 133 982 l 1,4,5
 180.492163009 997.197492163 180.492163009 997.197492163 192.246081505 1022.38446037 c 0,6,7
 204 1047.57142857 204 1047.57142857 204 1114 c 1,8,-1
 143 1114 l 1,9,-1
 143 1234 l 1,10,-1
 269 1234 l 1,0,-1
495 1234 m 1,11,-1
 495 1111 l 2,12,13
 495 937 495 937 359 937 c 1,14,-1
 359 982 l 1,15,16
 406.492163009 997.197492163 406.492163009 997.197492163 418.246081505 1022.38446037 c 0,17,18
 430 1047.57142857 430 1047.57142857 430 1114 c 1,19,-1
 369 1114 l 1,20,-1
 369 1234 l 1,21,-1
 495 1234 l 1,11,-1
EndSplineSet
EndChar

StartChar: quotedblbase
Encoding: 8222 8222 288
Width: 664
Flags: W
LayerCount: 2
Fore
SplineSet
274 116 m 1,0,-1
 274 -6 l 2,1,2
 274 -180 274 -180 139 -180 c 1,3,-1
 139 -136 l 1,4,5
 185.943573668 -120.978056426 185.943573668 -120.978056426 197.971786834 -95.2033139275 c 0,6,7
 210 -69.4285714286 210 -69.4285714286 210 -4 c 1,8,-1
 148 -4 l 1,9,-1
 148 116 l 1,10,-1
 274 116 l 1,0,-1
525 116 m 1,11,-1
 525 -6 l 2,12,13
 525 -180 525 -180 390 -180 c 1,14,-1
 390 -136 l 1,15,16
 436.943573668 -120.978056426 436.943573668 -120.978056426 448.471786834 -96.2747424989 c 0,17,18
 460 -71.5714285714 460 -71.5714285714 460 -4 c 1,19,-1
 399 -4 l 1,20,-1
 399 116 l 1,21,-1
 525 116 l 1,11,-1
EndSplineSet
EndChar

StartChar: dagger
Encoding: 8224 8224 289
Width: 580
Flags: W
LayerCount: 2
Fore
SplineSet
309 887 m 1,0,1
 335 750.066666667 335 750.066666667 335 593 c 256,2,3
 335 499.2 335 499.2 322 312 c 0,4,5
 309 124.8 309 124.8 309 2 c 1,6,-1
 269 2 l 1,7,8
 269 125.6 269 125.6 256 311.5 c 0,9,10
 243 497.4 243 497.4 243 622 c 0,11,12
 243 746.6 243 746.6 269 887 c 1,13,-1
 39 862 l 1,14,-1
 39 941 l 1,15,-1
 269 923 l 1,16,-1
 236 1210 l 1,17,-1
 342 1210 l 1,18,-1
 309 923 l 1,19,-1
 536 941 l 1,20,-1
 536 862 l 1,21,-1
 309 887 l 1,0,1
EndSplineSet
EndChar

StartChar: daggerdbl
Encoding: 8225 8225 290
Width: 639
Flags: W
LayerCount: 2
Fore
SplineSet
302 299 m 1,0,1
 288 365.5 288 365.5 288 593 c 256,2,3
 288 817 288 817 302 887 c 1,4,-1
 72 862 l 1,5,-1
 72 941 l 1,6,-1
 302 923 l 1,7,-1
 269 1210 l 1,8,-1
 375 1210 l 1,9,-1
 342 923 l 1,10,-1
 569 941 l 1,11,-1
 569 862 l 1,12,-1
 342 887 l 1,13,14
 356 793.666666667 356 793.666666667 356 667.833333333 c 0,15,16
 356 387.666666667 356 387.666666667 342 299 c 1,17,-1
 569 324 l 1,18,-1
 569 245 l 1,19,-1
 342 263 l 1,20,-1
 375 -24 l 1,21,-1
 269 -24 l 1,22,-1
 302 263 l 1,23,-1
 72 245 l 1,24,-1
 72 324 l 1,25,-1
 302 299 l 1,0,1
EndSplineSet
EndChar

StartChar: bullet
Encoding: 8226 8226 291
Width: 739
Flags: W
LayerCount: 2
Fore
SplineSet
369 905 m 256,0,1
 469.258064516 905 469.258064516 905 539.629032258 837.876923077 c 0,2,3
 610 770.753846154 610 770.753846154 610 674.292307692 c 0,4,5
 610 577.830769231 610 577.830769231 539.928571429 509.915384615 c 0,6,7
 469.857142857 442 469.857142857 442 369 442 c 256,8,9
 268.142857143 442 268.142857143 442 198.5 509.5 c 128,-1,10
 129 576.861538462 129 576.861538462 129 674.284615385 c 0,11,12
 129 771.707692308 129 771.707692308 198.870967742 838.353846154 c 0,13,14
 268.741935484 905 268.741935484 905 369 905 c 256,0,1
EndSplineSet
EndChar

StartChar: ellipsis
Encoding: 8230 8230 292
Width: 926
Flags: W
LayerCount: 2
Fore
SplineSet
263 120 m 1,0,-1
 263 0 l 1,1,-1
 147 0 l 1,2,-1
 147 120 l 1,3,-1
 263 120 l 1,0,-1
524 120 m 1,4,-1
 524 0 l 1,5,-1
 407 0 l 1,6,-1
 407 120 l 1,7,-1
 524 120 l 1,4,-1
784 120 m 1,8,-1
 784 0 l 1,9,-1
 668 0 l 1,10,-1
 668 120 l 1,11,-1
 784 120 l 1,8,-1
EndSplineSet
EndChar

StartChar: guilsinglleft
Encoding: 8249 8249 293
Width: 512
Flags: W
LayerCount: 2
Fore
SplineSet
348 1043 m 1,0,-1
 396 1043 l 1,1,-1
 184 664 l 1,2,-1
 396 281 l 1,3,-1
 348 281 l 1,4,-1
 76 664 l 1,5,-1
 348 1043 l 1,0,-1
EndSplineSet
EndChar

StartChar: guilsinglright
Encoding: 8250 8250 294
Width: 512
Flags: W
LayerCount: 2
Fore
SplineSet
437 664 m 1,0,-1
 165 281 l 1,1,-1
 117 281 l 1,2,-1
 329 664 l 1,3,-1
 117 1043 l 1,4,-1
 165 1043 l 1,5,-1
 437 664 l 1,0,-1
EndSplineSet
EndChar

StartChar: fraction
Encoding: 8260 8260 295
Width: 537
Flags: W
LayerCount: 2
Fore
SplineSet
415 1255 m 1,0,-1
 486 1255 l 1,1,-1
 118 -23 l 1,2,-1
 43 -23 l 1,3,-1
 415 1255 l 1,0,-1
EndSplineSet
EndChar

StartChar: foursuperior
Encoding: 8308 8308 296
Width: 770
Flags: W
LayerCount: 2
Fore
SplineSet
74 316 m 1,0,-1
 412 866 l 1,1,-1
 504 866 l 1,2,-1
 504 323 l 1,3,-1
 682 323 l 1,4,-1
 682 260 l 1,5,-1
 504 260 l 1,6,-1
 504 61 l 1,7,-1
 616 61 l 1,8,-1
 616 0 l 1,9,-1
 319 0 l 1,10,-1
 319 61 l 1,11,-1
 431 61 l 1,12,-1
 431 260 l 1,13,-1
 83 260 l 1,14,-1
 74 316 l 1,0,-1
431 323 m 1,15,-1
 431 768 l 1,16,17
 363 654 363 654 297 546 c 128,-1,18
 231 438 231 438 164 323 c 1,19,-1
 431 323 l 1,15,-1
EndSplineSet
EndChar

StartChar: Euro
Encoding: 8364 8364 297
Width: 1303
Flags: W
LayerCount: 2
Fore
SplineSet
1160 994 m 1,0,1
 991.175257732 1178 991.175257732 1178 772 1178 c 0,2,3
 608.247524752 1178 608.247524752 1178 472.813770519 1071.96271955 c 0,4,5
 337.380016285 965.925439107 337.380016285 965.925439107 286 794 c 1,6,-1
 901 794 l 1,7,-1
 901 732 l 1,8,-1
 272 732 l 1,9,10
 262 678 262 678 262 622 c 256,11,12
 262 575.333333333 262 575.333333333 269 517 c 1,13,-1
 901 517 l 1,14,-1
 901 455 l 1,15,-1
 280 455 l 1,16,17
 323.022 261.401 323.022 261.401 462.486728155 154.2005 c 0,18,19
 601.951456311 47 601.951456311 47 793.225728155 47 c 128,-1,20
 984.5 47 984.5 47 1175 174 c 1,21,-1
 1209 110 l 1,22,23
 1009 -22 1009 -22 786.5 -22 c 0,24,25
 564 -22 564 -22 402.226586103 100.367069486 c 0,26,27
 240.453172205 222.734138973 240.453172205 222.734138973 194 455 c 1,28,-1
 10 455 l 1,29,-1
 10 517 l 1,30,-1
 184 517 l 1,31,32
 178 595 178 595 178 636.5 c 128,-1,33
 178 678 178 678 187 732 c 1,34,-1
 10 732 l 1,35,-1
 10 794 l 1,36,-1
 200 794 l 1,37,38
 253.213718412 997.000481348 253.213718412 997.000481348 414.992105107 1126.00024067 c 0,39,40
 576.770491803 1255 576.770491803 1255 779.070431087 1255 c 128,-1,41
 981.37037037 1255 981.37037037 1255 1147 1099 c 1,42,-1
 1147 1237 l 1,43,-1
 1222 1237 l 1,44,-1
 1222 1007 l 1,45,-1
 1160 994 l 1,0,1
EndSplineSet
EndChar

StartChar: trademark
Encoding: 8482 8482 298
Width: 1634
Flags: W
LayerCount: 2
Fore
SplineSet
642 1236 m 1,0,-1
 642 1026 l 1,1,-1
 585 1026 l 1,2,-1
 585 1183 l 1,3,-1
 393 1183 l 1,4,-1
 393 660 l 1,5,-1
 480 660 l 1,6,-1
 480 612 l 1,7,-1
 248 612 l 1,8,-1
 248 660 l 1,9,-1
 334 660 l 1,10,-1
 334 1183 l 1,11,-1
 146 1183 l 1,12,-1
 146 1026 l 1,13,-1
 90 1026 l 1,14,-1
 90 1236 l 1,15,-1
 642 1236 l 1,0,-1
1144 760 m 1,16,-1
 1365 1236 l 1,17,-1
 1506 1236 l 1,18,-1
 1506 1187 l 1,19,-1
 1428 1187 l 1,20,-1
 1428 661 l 1,21,-1
 1506 661 l 1,22,-1
 1506 612 l 1,23,-1
 1291 612 l 1,24,-1
 1291 661 l 1,25,-1
 1370 661 l 1,26,-1
 1370 1114 l 1,27,-1
 1144 638 l 1,28,-1
 910 1115 l 1,29,-1
 910 661 l 1,30,-1
 990 661 l 1,31,-1
 990 612 l 1,32,-1
 774 612 l 1,33,-1
 774 661 l 1,34,-1
 853 661 l 1,35,-1
 853 1187 l 1,36,-1
 774 1187 l 1,37,-1
 774 1236 l 1,38,-1
 915 1236 l 1,39,-1
 1144 760 l 1,16,-1
EndSplineSet
EndChar

StartChar: partialdiff
Encoding: 8706 8706 299
Width: 887
Flags: W
LayerCount: 2
Fore
SplineSet
214.629411765 138.981012658 m 128,-1,1
 298.258823529 49 298.258823529 49 447.153802009 49 c 128,-1,2
 596.048780488 49 596.048780488 49 677.024390244 135.233766234 c 128,-1,3
 758 221.467532468 758 221.467532468 758 356.767474099 c 128,-1,4
 758 492.06741573 758 492.06741573 664.53164557 575.033707865 c 128,-1,5
 571.063291139 658 571.063291139 658 443 658 c 256,6,7
 315.5 658 315.5 658 223.25 577.413793103 c 128,-1,8
 131 496.827586207 131 496.827586207 131 362.894805762 c 128,-1,0
 131 228.962025316 131 228.962025316 214.629411765 138.981012658 c 128,-1,1
343 1361 m 1,9,-1
 701 697 l 1,10,11
 835 472.459459459 835 472.459459459 835 345.709090909 c 0,12,13
 835 185.128440367 835 185.128440367 716.84375 81.0642201835 c 128,-1,14
 598.6875 -23 598.6875 -23 448 -23 c 0,15,16
 261.6 -23 261.6 -23 155.3 92.7722772277 c 128,-1,17
 49 208.544554455 49 208.544554455 49 363.429420085 c 128,-1,18
 49 518.314285714 49 518.314285714 162.578125 622.157142857 c 128,-1,19
 276.15625 726 276.15625 726 432 726 c 0,20,21
 530 726 530 726 628 678 c 1,22,-1
 276 1314 l 1,23,-1
 343 1361 l 1,9,-1
EndSplineSet
EndChar

StartChar: Delta
Encoding: 8710 8710 300
Width: 760
Flags: W
LayerCount: 2
Fore
SplineSet
699 0 m 1,0,-1
 63 0 l 1,1,-1
 63 67 l 1,2,-1
 380 1062 l 1,3,-1
 699 66 l 1,4,-1
 699 0 l 1,0,-1
649 61 m 1,5,-1
 380 935 l 1,6,-1
 110 61 l 1,7,-1
 649 61 l 1,5,-1
EndSplineSet
EndChar

StartChar: minus
Encoding: 8722 8722 303
Width: 1233
Flags: W
LayerCount: 2
Fore
SplineSet
1109 959 m 1,0,-1
 1109 872 l 1,1,-1
 125 872 l 1,2,-1
 125 959 l 1,3,-1
 1109 959 l 1,0,-1
EndSplineSet
EndChar

StartChar: radical
Encoding: 8730 8730 304
Width: 334
Flags: W
LayerCount: 2
Fore
SplineSet
137 32 m 1,0,-1
 158 32 l 1,1,-1
 194 -48 l 1,2,-1
 211 -48 l 1,3,-1
 211 -68 l 1,4,-1
 169 -68 l 1,5,-1
 154 -10 l 1,6,-1
 190 133 l 1,7,-1
 175 133 l 1,8,-1
 137 32 l 1,0,-1
EndSplineSet
EndChar

StartChar: infinity
Encoding: 8734 8734 305
Width: 1294
Flags: W
LayerCount: 2
Fore
SplineSet
647 644 m 1,0,1
 747.266666667 832 747.266666667 832 913 832 c 0,2,3
 1013.49295775 832 1013.49295775 832 1086.74647887 757.7 c 128,-1,4
 1160 683.4 1160 683.4 1160 550.502816901 c 128,-1,5
 1160 417.605633803 1160 417.605633803 1084.75694444 341.302816901 c 128,-1,6
 1009.51388889 265 1009.51388889 265 912 265 c 0,7,8
 744.982142857 265 744.982142857 265 650 462 c 1,9,10
 545.611650485 270 545.611650485 270 387 270 c 0,11,12
 266.302631579 270 266.302631579 270 200.651315789 349.198412698 c 128,-1,13
 135 428.396825397 135 428.396825397 135 549.198412698 c 128,-1,14
 135 670 135 670 204.166666667 753 c 128,-1,15
 273.333333333 836 273.333333333 836 384.837899543 836 c 128,-1,16
 496.342465753 836 496.342465753 836 588.5 732.5 c 0,17,18
 621 696 621 696 647 644 c 1,0,1
784 722 m 128,-1,20
 727 664 727 664 673 548 c 1,21,22
 730.49112426 420.698224852 730.49112426 420.698224852 771.24556213 381.349112426 c 128,-1,23
 812 342 812 342 844 329 c 128,-1,24
 876 316 876 316 915 316 c 256,25,26
 993.983870968 316 993.983870968 316 1042.99193548 380.64893617 c 128,-1,27
 1092 445.29787234 1092 445.29787234 1092 546.12719704 c 128,-1,28
 1092 646.956521739 1092 646.956521739 1042.64516129 713.47826087 c 128,-1,29
 993.290322581 780 993.290322581 780 917.14516129 780 c 128,-1,19
 841 780 841 780 784 722 c 128,-1,20
621 553 m 1,30,31
 521.571428571 785 521.571428571 785 379 785 c 0,32,33
 293.955223881 785 293.955223881 785 248.47761194 714.139534884 c 128,-1,34
 203 643.279069767 203 643.279069767 203 573.139534884 c 0,35,36
 203 449.8 203 449.8 249.357142857 384.9 c 128,-1,37
 295.714285714 320 295.714285714 320 371.857142857 320 c 128,-1,38
 448 320 448 320 506.5 375.5 c 128,-1,39
 565 431 565 431 621 553 c 1,30,31
EndSplineSet
EndChar

StartChar: integral
Encoding: 8747 8747 306
Width: 700
Flags: W
LayerCount: 2
Fore
SplineSet
701 1165 m 1,0,1
 649.25 1183 649.25 1183 608.125 1183 c 0,2,3
 520.912280702 1183 520.912280702 1183 492 1080 c 2,4,-1
 211 60 l 2,5,6
 174.351351351 -74.3783783784 174.351351351 -74.3783783784 43 -83.5 c 0,7,8
 7 -86 7 -86 -27 -86 c 1,9,-1
 -11 -24 l 1,10,11
 75.5882352941 -24 75.5882352941 -24 107.5 11 c 0,12,13
 123 28 123 28 132 60 c 2,14,-1
 413 1078 l 2,15,16
 459.820512821 1244 459.820512821 1244 601 1244 c 0,17,18
 659.230769231 1244 659.230769231 1244 715 1219 c 1,19,-1
 701 1165 l 1,0,1
EndSplineSet
EndChar

StartChar: approxequal
Encoding: 8776 8776 307
Width: 811
Flags: W
LayerCount: 2
Fore
SplineSet
297.5 478.5 m 128,-1,1
 262 486 262 486 221.65 486 c 128,-1,2
 181.3 486 181.3 486 169 445 c 1,3,-1
 131 445 l 1,4,5
 139 513 139 513 173 543.5 c 128,-1,6
 207 574 207 574 252.5 574 c 0,7,8
 311.823529412 574 311.823529412 574 415.5 550.5 c 128,-1,9
 519.176470588 527 519.176470588 527 567.421568627 527 c 128,-1,10
 615.666666667 527 615.666666667 527 630 570 c 1,11,-1
 667 570 l 1,12,13
 652.209677419 439 652.209677419 439 543 439 c 0,14,15
 477.941176471 439 477.941176471 439 405.470588235 455 c 128,-1,0
 333 471 333 471 297.5 478.5 c 128,-1,1
308.5 677.5 m 128,-1,17
 273 685 273 685 231.625 685 c 128,-1,18
 190.25 685 190.25 685 180 644 c 1,19,-1
 142 644 l 1,20,21
 149 712 149 712 183.5 742.5 c 128,-1,22
 218 773 218 773 263 773 c 0,23,24
 322.823529412 773 322.823529412 773 426.5 749.5 c 128,-1,25
 530.176470588 726 530.176470588 726 577.588235294 726 c 128,-1,26
 625 726 625 726 641 769 c 1,27,-1
 678 769 l 1,28,29
 671 708 671 708 639 673 c 128,-1,30
 607 638 607 638 556 638 c 128,-1,31
 505 638 505 638 463 645.5 c 128,-1,32
 421 653 421 653 382.5 661.5 c 128,-1,16
 344 670 344 670 308.5 677.5 c 128,-1,17
EndSplineSet
EndChar

StartChar: notequal
Encoding: 8800 8800 308
Width: 879
Flags: W
LayerCount: 2
Fore
SplineSet
468 677 m 1,0,-1
 517 868 l 1,1,-1
 575 868 l 1,2,-1
 522 677 l 1,3,-1
 797 677 l 1,4,-1
 797 613 l 1,5,-1
 510 613 l 1,6,-1
 437 337 l 1,7,-1
 797 337 l 1,8,-1
 797 276 l 1,9,-1
 420 276 l 1,10,-1
 373 84 l 1,11,-1
 313 84 l 1,12,-1
 363 276 l 1,13,-1
 94 276 l 1,14,-1
 94 337 l 1,15,-1
 381 337 l 1,16,-1
 453 613 l 1,17,-1
 94 613 l 1,18,-1
 94 677 l 1,19,-1
 468 677 l 1,0,-1
EndSplineSet
EndChar

StartChar: lessequal
Encoding: 8804 8804 309
Width: 905
Flags: W
LayerCount: 2
Fore
SplineSet
88 553 m 1,0,-1
 88 590 l 1,1,-1
 776 952 l 1,2,-1
 776 882 l 1,3,-1
 194 571 l 1,4,-1
 776 262 l 1,5,-1
 776 194 l 1,6,-1
 88 553 l 1,0,-1
88 58 m 1,7,-1
 776 58 l 1,8,-1
 776 0 l 1,9,-1
 88 0 l 1,10,-1
 88 58 l 1,7,-1
EndSplineSet
EndChar

StartChar: greaterequal
Encoding: 8805 8805 310
Width: 903
Flags: W
LayerCount: 2
Fore
SplineSet
133 194 m 1,0,-1
 133 262 l 1,1,-1
 715 571 l 1,2,-1
 133 882 l 1,3,-1
 133 952 l 1,4,-1
 821 590 l 1,5,-1
 821 553 l 1,6,-1
 133 194 l 1,0,-1
821 0 m 1,7,-1
 133 0 l 1,8,-1
 133 58 l 1,9,-1
 821 58 l 1,10,-1
 821 0 l 1,7,-1
EndSplineSet
EndChar

StartChar: lozenge
Encoding: 9674 9674 311
Width: 907
Flags: W
LayerCount: 2
Fore
SplineSet
481 -23 m 1,0,-1
 430 -23 l 1,1,-1
 29 614 l 1,2,-1
 430 1254 l 1,3,-1
 481 1254 l 1,4,-1
 881 616 l 1,5,-1
 481 -23 l 1,0,-1
458 1181 m 1,6,-1
 115 616 l 1,7,-1
 458 47 l 1,8,-1
 799 616 l 1,9,-1
 458 1181 l 1,6,-1
EndSplineSet
EndChar

StartChar: fi
Encoding: 64257 64257 312
Width: 1133
Flags: W
LayerCount: 2
Fore
SplineSet
820 1130 m 1,0,1
 754.344827586 1186 754.344827586 1186 637.308777429 1186 c 0,2,3
 520.272727273 1186 520.272727273 1186 429.136363636 1127.02941176 c 0,4,5
 338 1068.05882353 338 1068.05882353 338 972 c 2,6,-1
 338 836 l 1,7,-1
 901 836 l 1,8,-1
 901 60 l 1,9,-1
 1054 60 l 1,10,-1
 1054 0 l 1,11,-1
 672 0 l 1,12,-1
 672 60 l 1,13,-1
 822 60 l 1,14,-1
 822 776 l 1,15,-1
 338 776 l 1,16,-1
 338 60 l 1,17,-1
 529 60 l 1,18,-1
 529 0 l 1,19,-1
 104 0 l 1,20,-1
 104 60 l 1,21,-1
 259 60 l 1,22,-1
 259 776 l 1,23,-1
 104 776 l 1,24,-1
 104 836 l 1,25,-1
 259 836 l 1,26,-1
 259 970 l 2,27,28
 259 1094.9537037 259 1094.9537037 375.401408451 1171.47685185 c 0,29,30
 491.802816901 1248 491.802816901 1248 618.927049476 1248 c 0,31,32
 746.051282051 1248 746.051282051 1248 807.025641026 1219 c 128,-1,33
 868 1190 868 1190 894.5 1160.5 c 128,-1,34
 921 1131 921 1131 921 1097.5 c 128,-1,35
 921 1064 921 1064 904 1044.5 c 128,-1,36
 887 1025 887 1025 857 1025 c 128,-1,37
 827 1025 827 1025 809.5 1043 c 128,-1,38
 792 1061 792 1061 792 1087.5 c 128,-1,39
 792 1114 792 1114 820 1130 c 1,0,1
EndSplineSet
Ligature2: "'liga' Standard Ligatures in Greek lookup 1 subtable" f i
Ligature2: "'liga' Standard Ligatures lookup 0 subtable" f i
EndChar

StartChar: fl
Encoding: 64258 64258 313
Width: 1194
Flags: W
LayerCount: 2
Fore
SplineSet
862 1123 m 2,0,1
 862 1167.76315789 862 1167.76315789 731 1185 c 0,2,3
 693 1190 693 1190 644.5 1190 c 0,4,5
 527.545454545 1190 527.545454545 1190 432.772727273 1132.08333333 c 128,-1,6
 338 1074.16666667 338 1074.16666667 338 965 c 2,7,-1
 338 836 l 1,8,-1
 541 836 l 1,9,-1
 541 779 l 1,10,-1
 338 779 l 1,11,-1
 338 60 l 1,12,-1
 529 60 l 1,13,-1
 529 0 l 1,14,-1
 104 0 l 1,15,-1
 104 60 l 1,16,-1
 259 60 l 1,17,-1
 259 779 l 1,18,-1
 104 779 l 1,19,-1
 104 836 l 1,20,-1
 259 836 l 1,21,-1
 259 962 l 2,22,23
 259 1102.39823009 259 1102.39823009 377.180555556 1177.69911504 c 128,-1,24
 495.361111111 1253 495.361111111 1253 670.180555556 1253 c 128,-1,25
 845 1253 845 1253 918 1180 c 0,26,27
 942 1156 942 1156 942 1123 c 2,28,-1
 942 60 l 1,29,-1
 1125 60 l 1,30,-1
 1125 0 l 1,31,-1
 676 0 l 1,32,-1
 676 60 l 1,33,-1
 862 60 l 1,34,-1
 862 1123 l 2,0,1
EndSplineSet
Ligature2: "'liga' Standard Ligatures in Greek lookup 1 subtable" f l
Ligature2: "'liga' Standard Ligatures lookup 0 subtable" f l
EndChar

StartChar: commaaccent
Encoding: 65537 -1 314
Width: 399
Flags: W
LayerCount: 2
Fore
SplineSet
266 1237 m 1,0,-1
 266 1115 l 2,1,2
 266 941 266 941 131 941 c 1,3,-1
 131 985 l 1,4,5
 177.943573668 1000.02194357 177.943573668 1000.02194357 189.971786834 1025.79668607 c 0,6,7
 202 1051.57142857 202 1051.57142857 202 1117 c 1,8,-1
 140 1117 l 1,9,-1
 140 1237 l 1,10,-1
 266 1237 l 1,0,-1
EndSplineSet
EndChar

StartChar: dotaccentcmb.cap
Encoding: 65541 -1 318
Width: 389
Flags: W
LayerCount: 2
Fore
SplineSet
250 1121 m 1,0,-1
 250 1001 l 1,1,-1
 133 1001 l 1,2,-1
 133 1121 l 1,3,-1
 250 1121 l 1,0,-1
EndSplineSet
EndChar

StartChar: dotlessj.001
Encoding: 65543 -1 320
Width: 391
Flags: W
LayerCount: 2
Fore
SplineSet
158 779 m 1,0,-1
 21 779 l 1,1,-1
 21 836 l 1,2,-1
 237 836 l 1,3,-1
 237 -22 l 2,4,5
 237 -144.75 237 -144.75 213.5 -185.875 c 0,6,7
 164.857142857 -271 164.857142857 -271 23 -271 c 2,8,-1
 -57 -271 l 1,9,-1
 -57 -211 l 1,10,-1
 21 -211 l 2,11,12
 114.711111111 -211 114.711111111 -211 141 -165.5 c 0,13,14
 158 -136.076923077 158 -136.076923077 158 -34 c 2,15,-1
 158 779 l 1,0,-1
EndSplineSet
EndChar

